<svg xmlns="http://www.w3.org/2000/svg" viewBox="0 0 112.76 90.71"><title>Asset 4check</title><g id="Layer_2" data-name="Layer 2"><g id="Layer_1-2" data-name="Layer 1"><path d="M62.78,72.63c-.34,2.7-2.28,4.39-3.5,6.5a.7.7,0,0,1-.33.33,4.41,4.41,0,0,0-2.72,2.82,1.41,1.41,0,0,1-.64.68c-1.73.82-2.35,2.5-3.23,4-.12.21-.2.44-.31.65a3.61,3.61,0,0,1-2.62,2.23,8.71,8.71,0,0,0-1.34.5c-2,.74-3,.44-4.37-1.23l-.43-.57Q41.64,86.21,40,83.89a9.49,9.49,0,0,0-.9-1.11c-.84-.83-1.71-1.64-2.56-2.46a10.53,10.53,0,0,0-4-2.91A5.43,5.43,0,0,1,29.39,75a4,4,0,0,0-1.14-1.22A17.86,17.86,0,0,1,23.68,68a43.57,43.57,0,0,0-4.6-6.38A59.69,59.69,0,0,1,13.41,54a32.8,32.8,0,0,0-3.12-3.89A6.4,6.4,0,0,0,7,48.18c-3-.84-4.68-3.18-6.57-5.32A3.7,3.7,0,0,1,0,41.68c.61-.92,1.1-1.72,1.66-2.47a2.53,2.53,0,0,1,1.07-.89,33.83,33.83,0,0,1,6.65-1.81c3.4-.32,6.65-1.59,10.1-1.41,2.55-.61,5.1-1.21,7.64-1.87a2.55,2.55,0,0,0,1.19-.75c.48-.51,0-1.57.83-1.86a2.77,2.77,0,0,0,1.41-1,5.54,5.54,0,0,1,4.72-1.85,39.87,39.87,0,0,1,4.74.49,6.11,6.11,0,0,1,1.52.78c-.31,1.84.8,3.23,1.38,4.77a34.06,34.06,0,0,0,2.41,4.64c.55,1,1.12,1.09,1.87.36a29.71,29.71,0,0,0,2.44-2.57c1.6-2,3.29-3.84,4.81-5.86a34.67,34.67,0,0,1,3-3,8.19,8.19,0,0,0,1.35-1.66,4.7,4.7,0,0,1,2.42-2.19,3.09,3.09,0,0,0,1.37-1.22A10.43,10.43,0,0,1,65,19.92a9.63,9.63,0,0,0,2.43-2.25,1.92,1.92,0,0,1,.88-.77,3.64,3.64,0,0,0,2-1.92c.53-.86.74-2,1.93-2.25.6-1.56,2.07-2.33,3.15-3.45s2-2.24,3-3.37a2.94,2.94,0,0,0,.5-.79,5.49,5.49,0,0,1,3.28-2.91,4.14,4.14,0,0,0,1.42-.77c.41-.43.67-.53,1.2-.25.2.1.57-.14.86-.24.75-.26,1.49-.54,2.25-.79a3.12,3.12,0,0,1,2.53.25A31.22,31.22,0,0,0,95.7,2.46c2,.65,4.14,1.19,5.7,2.83a1.31,1.31,0,0,0,.84.38c2.24,0,3.83,1.39,5.57,2.47.55.34,1,.79,1.57,1.1A2.55,2.55,0,0,1,110.85,11c.21,1,1,1.55,1.91,2.14a5.42,5.42,0,0,0-.13,3.51,1.64,1.64,0,0,1-.5,1.75,19.82,19.82,0,0,1-2,2.28,6.42,6.42,0,0,0-1.88,2.42c-.88,1.86-2.62,3-3.75,4.58-1,.09-1.16,1.18-1.87,1.66a10.38,10.38,0,0,0-1.83,1.8c-.59.65-1.1,1.36-1.66,2a15.86,15.86,0,0,1-1.61,1.76,22.58,22.58,0,0,0-3.37,3.93,32.45,32.45,0,0,1-5.31,6.38,21.81,21.81,0,0,0-1.89,2.16,5.25,5.25,0,0,1-1,1,6.16,6.16,0,0,0-2.35,2.14,22.75,22.75,0,0,1-1.78,1.9,74.23,74.23,0,0,0-5.7,7,50.74,50.74,0,0,1-3.61,4C71,64.87,69.51,66.41,68,67.86a19.73,19.73,0,0,0-2.71,3.6A2.63,2.63,0,0,1,62.78,72.63ZM22.69,47.1a16.25,16.25,0,0,0,1.93,4.45A20.51,20.51,0,0,0,29.06,58c1.48,1.33,2.63,3,4.31,4.11a5.53,5.53,0,0,1,.81.86c1.6,1.66,3.13,3.39,4.82,4.94a11.46,11.46,0,0,1,2.64,3A5.33,5.33,0,0,0,42.77,72c.51.49,1.11.9,1.57,1.43s.92,1.29,1.38,1.93c.73,1,1.46,1.23,2.39.42a18,18,0,0,0,3-3.06,17.74,17.74,0,0,1,4.47-4.59,2.49,2.49,0,0,0,.64-.69c.89-1.4,2.37-2.38,2.92-4a1.25,1.25,0,0,1,.46-.54c2.73-2.23,4.77-5.09,7.11-7.68a15.62,15.62,0,0,0,1.71-1.94,10.53,10.53,0,0,1,4.18-3.82,2.43,2.43,0,0,0,1.13-1.13c.72-1.4,1.4-2.84,2.92-3.65a3.21,3.21,0,0,0,.89-1.08c.3-.46.51-1,.85-1.42a51,51,0,0,1,5.43-5.67c1.63-1.48,3-3.28,4.7-4.67a16.9,16.9,0,0,1,3.59-4.64A8.77,8.77,0,0,0,92.88,26a5.25,5.25,0,0,1,.88-1.13,21.55,21.55,0,0,0,2.79-3.18A37.65,37.65,0,0,0,99,18.47c.89-1.36.57-2.15-.94-2.72a61.26,61.26,0,0,1-5.75-2.27c-1.54-.77-3.13-1.6-5-1.32a.48.48,0,0,1-.24,0c-2-1-3.12-.06-4.41,1.43-2,2.34-4.33,4.42-6.5,6.62a2.08,2.08,0,0,0-.56.74c-.72,2.23-2.38,3.74-4,5.24a7.36,7.36,0,0,0-2.23,2.75,2.23,2.23,0,0,1-.74.91,19.52,19.52,0,0,0-3.76,3.94c-1.1,1.52-2.67,2.72-3,4.71a1.19,1.19,0,0,1-.26.4c-1.67,2.1-2.84,4.55-4.66,6.56a33.59,33.59,0,0,1-2.69,3.32c-1.48,1.26-2.92,2.41-2.9,4.57a4,4,0,0,0-.79,3.47c-1.22,1.27-2.38.83-3.59.25-2.93-1.43-4.28-4.37-6.36-6.62-.14-1.18-1.41-2-1.17-3.3.06-.31-.29-.72-.52-1C38,45,37.21,43.91,36.4,42.83a5.1,5.1,0,0,0-2.47-2c-.09-.49-.15-.84-.27-1.47-.5.39-1,.56-1,.83a4.75,4.75,0,0,1-3.09,3.36,3.83,3.83,0,0,0-1,.64,6.53,6.53,0,0,1-4.09,1.67A2.05,2.05,0,0,0,22.69,47.1Z"/></g></g></svg>