<svg xmlns="http://www.w3.org/2000/svg" viewBox="0 0 89.43 84.89"><title>Asset 5cross</title><g id="Layer_2" data-name="Layer 2"><g id="Layer_1-2" data-name="Layer 1"><path d="M83.06,30.08c-.06.11-.1.28-.2.32-1.48.74-3,1.45-4.74,2.31-.52.44-.15,1.34-.23,2.13l0,0c-.54.31-.88.93-1.7.76s-1.22.31-1.46,1a2.61,2.61,0,0,0-.26.93c.12,1-1,1.14-1.16,1.87l-2,.18-1.41,1.24a3,3,0,0,0,.53.68,6.26,6.26,0,0,0,1,.44c-.33,1-.45,1.21-.92.93-.66-.39-1.29,0-1.84-.25-.87.61-1.42,1.47-2.41,1.76-.29.09-.46.58-.74,1a13.71,13.71,0,0,0,1.24,1.56c1,1,2.16,1.87,3.2,2.85A16.7,16.7,0,0,1,72,51.9a8.34,8.34,0,0,0,2.57,2.55,1.61,1.61,0,0,1,.55.55c.41.7,1.17,1,1.64,1.57s1,1,1.48,1.52c.17.19.35.45.57.51a2.21,2.21,0,0,1,1.43,1.47,6.53,6.53,0,0,0,1.09,1.35c.27.32.48.73.18,1.06-.44.49-.25,1-.12,1.45a12.82,12.82,0,0,0,1.08,3.52,2.11,2.11,0,0,1-.53,2.67c-.59.61-1.14,1.22-1.68,1.87a5,5,0,0,1-2.87,1.64,7.58,7.58,0,0,1-.2,1.33c-.14.41-.3,1-.62,1.12-.57.27-.3.85-.62,1.15a4.75,4.75,0,0,1-.6.49c-1,.65-2.1,1.29-3.14,2-.33.21-.61.5-.94.69a3.86,3.86,0,0,1-1.23.47c-.41,0-.76,0-1,.43a.93.93,0,0,1-1.2.4,2.57,2.57,0,0,0-2.72.62c-.86.72-1.95.66-2.9,1a1.77,1.77,0,0,1-1.3-.24,4.64,4.64,0,0,1-1.79-1.44c-.41-.79-1.12-1-1.67-1.54a16,16,0,0,1-1.69-1.59c-1-1.31-2.71-2-3.36-3.7a1.25,1.25,0,0,0-.55-.54,11.31,11.31,0,0,1-2.74-2.47,13.09,13.09,0,0,0-1.92-1.64C45.46,69,43.73,67.8,42,66.65c-.54-.35-1.16-.59-1.73-.92A2,2,0,0,0,38,66L37,67.82l-1.33.06c0,.12-.11.27-.07.35.2.38.13.65-.29.73a5,5,0,0,1-.88,0c-.49,1-1,1.91-1.51,2.87a1,1,0,0,1-.92.62,2.29,2.29,0,0,0-1.9,1.2c-.82,1.44-2.23,2.32-3.24,3.57-.08.1-.22.24-.31.23-1.34-.25-1.77,1.19-2.82,1.44,0,.25-.05.44-.09.63-.21,1-.38,1.35-1.2,1.16s-.86.73-1.48.65-.76.56-1,1a3.33,3.33,0,0,1-1.53,1.46c-.47.23-1,.41-1.41.68a2.38,2.38,0,0,1-2.9-.2,11.53,11.53,0,0,0-2.09-1.43c-.11,0-.26-.11-.31-.21C11.08,81.23,9.51,80.5,9,79a2.24,2.24,0,0,0-.7-.92,71.14,71.14,0,0,1-5.73-5.25C2,72.32,1.42,72,1.15,71.27a1.46,1.46,0,0,1,0-1.46,1.17,1.17,0,0,0,0-.92,9.16,9.16,0,0,1-.61-3.58,3.17,3.17,0,0,0-.16-.92,1.19,1.19,0,0,1,.1-1.29,1.41,1.41,0,0,0,.3-1.44c-.25-1.4-.5-2.8-.76-4.29a4.62,4.62,0,0,1,.47-.78c.66-.75.9-.75,1.74-.08.63.52.72.51,1.67-.28-.21-.23-.41-.46-.61-.7l-.69-.86c.7-.22,1.24-.4,1.78-.55.7-.19.65-.91,1-1.43H9.53A6.79,6.79,0,0,1,10,51.5a7.13,7.13,0,0,1,.87-1c.43-.46-.06-1,.11-1.51.43,0,.87.1,1.31.09,1,0,1.37-.36,1.68-1.45a2.54,2.54,0,0,1,.1-.37c0-.12.1-.28.2-.33,1.2-.58,1.18-2.16,2.32-2.79L16.51,44c.16.46.27,1,.91,1.17a4.9,4.9,0,0,0,1.51-1.56l0,.06c.94-.64,2-1.07,2.62-2.15h0c.46-.35.95-.67,1.39-1s1.18,0,1.14-.77c0-.57-.72-.48-1-.83a.44.44,0,0,1-.1-.35c.06-.16.18-.38.33-.42a3.82,3.82,0,0,1,.76,0c.48,0,.47,0,1.32-.7-.15-.87-1.13-.48-1.48-.93a5.45,5.45,0,0,0,.45-1c.07-.44-.31-.83-.7-.66-1,.41-1.3-.14-1.47-.85-.88-.28-1.08.36-1.46.87-.59.18-1.12-.63-1.8-.24-.49.28-1.2.07-1.57.79.15.07.3.2.43.18a4.78,4.78,0,0,1,1-.21c.43,0,.93.1,1.12.63.1.32-.27.72-.84.92a1.6,1.6,0,0,1-1.49,0,2.69,2.69,0,0,0-1.07-.08c-.34-1.73-.34-1.73-1.45-2.19l.65-1a7,7,0,0,1-.74-.81,5.78,5.78,0,0,1-.4-.95l-1.36-.1c0-.16-.2-.39-.14-.52.27-.57.36-1-.25-1.5-.21-.17-.13-.71-.21-1.21-.14,0-.38-.11-.63-.15-.54-.08-.74-.41-.82-.93-.19-1.31-.21-1.31-1.54-1.35a5.13,5.13,0,0,1-1.44-2.21,2.15,2.15,0,0,0-1.17-1.22c-1.2-.49-1.49-1.78-2.42-2.48.23-.71-.81-1.28-.2-2.07.21-.28,0-.64-.37-.78s-.74-.23-1.22-.37c.23-.39.53-.7.55-1S3,15.2,2.89,14.84a2.62,2.62,0,0,1,1.2-3c.51-.31.64-.79.91-1.22.48-.78.89-1.61,2-1.74a1.29,1.29,0,0,0,.68-.38c1.27-1.26,3-1.4,4.59-2a9.61,9.61,0,0,1,1.34-.2A1.94,1.94,0,0,0,14.45,6a3.55,3.55,0,0,1,3.27-.87,8.7,8.7,0,0,0,.89,0l.27-1.39c.56-.18,1.17-.36,1.76-.57.94-.34.94-.35,1.92.45V2.18L26.42.55c.6.42,1,1,1.54,1a3.22,3.22,0,0,1,1.26.7,4.68,4.68,0,0,0,1.67.3l.82-.85A1.61,1.61,0,0,1,33,3.11a1.35,1.35,0,0,0,.77,1,.91.91,0,0,1,.38.61c.28,1.36.27,1.36,1.51,1.31a4.11,4.11,0,0,1,.64.06c.67,1.84,2.2,3,3.65,4.22.16,1.07-.28,2.28.37,3.33.78.12.26-.81.75-.88s.49.17.53.44c.07.5.11,1,.16,1.44.49.36.59-.16.86-.25.08.08.22.15.24.24a1.68,1.68,0,0,1,0,.59c-.07.58,1.12.6.58,1.43a6.15,6.15,0,0,0-.41,1.4.74.74,0,0,0,.12.86c.71.84.71.9.07,1.76a1.71,1.71,0,0,0-.31,1.47c.13.63.68.93,1.14.5a2.1,2.1,0,0,1,1.14-.44,5.66,5.66,0,0,0,2.76-1.72,14.34,14.34,0,0,1,2.89-2.88,3.86,3.86,0,0,0,.9-1A18,18,0,0,1,54.08,14a2.65,2.65,0,0,0,.72-.92A4.5,4.5,0,0,1,56.74,11a16.55,16.55,0,0,0,2.74-2.41c1-1,1-1,2.87-1.5A4.28,4.28,0,0,0,63.79,4.4a3.08,3.08,0,0,0,1.89-1.32,7.56,7.56,0,0,1,1.71-1.57,1.49,1.49,0,0,1,.89-.32c1.11,0,2.25.07,3,1.07.08.1.17.24.28.27C73.19,3,74.22,4.4,75.76,5a3.86,3.86,0,0,1,2.29,1.73.64.64,0,0,0,.11.16c1.53,1.4,3,2.88,4.61,4.18s3,2.85,4.52,4.29c.36.35.81.63.82,1.27,0,.8.71,1.59.06,2.42-.07.09,0,.26,0,.48,1.5,1,1.49,2.51,1,4.11a2.06,2.06,0,0,1-1.2,1.47c-1.44.47-2,1.74-2.72,2.83A6.13,6.13,0,0,1,83,30.11c0-.13,0-.25,0-.37ZM28,30.32l-.51.39.51.41c-.18,1.19-.18,1.19.83,1.77l1-.45c.44.58.8,1.12,1.22,1.61s-.29,1.47.75,1.69a.92.92,0,0,1-.08.5,4.06,4.06,0,0,1-.63.42c-.08.06-.1.18-.15.28l.7.46v2.28c.94.42,1.16,1.32,1.18,2.37A6,6,0,0,1,32.5,45l-1.36-.91a3.85,3.85,0,0,0-1.22,1.83,2.19,2.19,0,0,1-.64,1.16,10.13,10.13,0,0,1-3.46,2.14,8,8,0,0,0-2.6,1.28A2.66,2.66,0,0,1,21,51a15.2,15.2,0,0,0-2.34,0,8.12,8.12,0,0,0-2.82-.11l.83,1.32,2-1.26c0,.5.05,1,.06,1.5,0,.1-.13.19-.19.29l-1.2.08.71,1a9.25,9.25,0,0,1-1.6.42A9.76,9.76,0,0,1,14.81,54v0c.07-.4.13-.81.2-1.21-1.32-.25-1.53,1.09-2.58,1.69a3.67,3.67,0,0,1,2.44,1.37L13,56.29c-.06-.52-.22-.9-1-.62l1,.57-2.1,2.37c.34.47.86.88.59,1.65-.69.6-1.65,1.12-1.75,2.33,0,.23-.46.42-.66.66s-.44.61-.63.89C9.34,66.05,11,67.25,12,68.91c.92.48,1.11,1.56,1.84,2.22a2.26,2.26,0,0,1,.56,1.22,4.83,4.83,0,0,1-.07,1.26c.47.36.91.77,1.46.52,1-.45,1.93-1,2.73-1.41.24-1,.37-1.88.63-2.68a1.36,1.36,0,0,1,1.5-1,5.73,5.73,0,0,0,4-1.29,21.14,21.14,0,0,1,3-1.89,10.53,10.53,0,0,0,3.15-2.49A5.33,5.33,0,0,1,32.6,62a5.42,5.42,0,0,0,1.82-1.41c1.15-1.2,2.09-2.7,3.9-3.08.58-.78,1.58-.48,2.29-.89a3.52,3.52,0,0,1,2.65-.08,1.5,1.5,0,0,0,1.94-.89c.22-.56.74-.67,1.32-.55.25.06.51.08.69.11.92.94,1.75,1.87,2.66,2.7a44.23,44.23,0,0,1,3.7,4.27c.38.44.38,1,.87,1.49,1.44,1.32,2.76,2.76,4.12,4.16a3.4,3.4,0,0,1,.86,1c.67,1.79,2.35,2.76,3.33,4.3a1.85,1.85,0,0,0,2.26.71,28.82,28.82,0,0,1,3.55-1,15.77,15.77,0,0,0,3.53-1.44,5,5,0,0,0,3-3.65l-4.14-4c-1.81.51-3.18-.47-4.44-1.66-.72-.66-1.35-1.41-2-2.13a6.35,6.35,0,0,1-.71-.93c-.54-.87-.9-1.87-2-2.25-.23-.07-.35-.51-.52-.78-.42-.65-.7-1.53-1.3-1.89-1.13-.7-1.37-1.85-1.79-2.87a3.92,3.92,0,0,0-.87-1.68,3.24,3.24,0,0,1-1.06-2.63,7.18,7.18,0,0,0-.36-1.9,11.21,11.21,0,0,0-1.5-2.85,8.07,8.07,0,0,1,1.32-.46,4.1,4.1,0,0,0,2.41-1.19,7.16,7.16,0,0,1,2.27-1.41,5.73,5.73,0,0,0,.58-1.08,8.88,8.88,0,0,1,2.74-4.17c.51-.5.84-1.23,1.41-1.61a3.93,3.93,0,0,0,1.24-1.57,1.68,1.68,0,0,1,1.74-1,2.49,2.49,0,0,0,1-.25c.14-.21.28-.43.41-.65A2.58,2.58,0,0,1,71,27.5c.61-.16,1.13-.68,1.74-.85.84-.23.85-1.06,1.32-1.53a3.31,3.31,0,0,1,.44-.4c.76-.49,1.19-1.37,2.09-1.74.29-.12.67-.68.6-.92-.23-.8.34-1,.75-1.42a6.2,6.2,0,0,0,.73-1A40.87,40.87,0,0,0,68.8,12.1c-.2.27-.43.45-.48.67-.34,1.65-1.85,2.48-2.61,3.84-1.94,1.3-3.49,3.12-5.58,4.24a5.11,5.11,0,0,0-1.91,1.62A8.51,8.51,0,0,1,56,24.91c-.88.65-1.35,1.77-2.51,2.13-.24.07-.42.47-.56.74s-.3.72-.46,1.12c-.36.15-.73.28-1.08.44a3,3,0,0,0-1.73,1.49c-.06.18-.24.3-.35.47-.41.64-1.18.46-1.74.78s-.7,1.33-1.54,1.41-1.45.78-1.91,1.56l-.41-.94-3,.3c.31-1.17.3-1.15-.65-1.53-.41-.17-1-.34-1.13-.68-.49-1-1.76-1.41-2-2.62,0-.15-.25-.3-.41-.39a4.79,4.79,0,0,1-2.93-3.91l-1.63-1c-.67-.41-.11-1.3-.8-1.83-1.37-.19-2.38-1.3-3.59-2a1.53,1.53,0,0,1-.68-1.88,5.08,5.08,0,0,0,.34-2.29c0-.22.34-.5.57-.8l-.33-1.34c-.94-.81-1.68-1.44-2.34-2h-2a3.37,3.37,0,0,1-.38,1.22,3.46,3.46,0,0,1-1.42.95,2.3,2.3,0,0,0-1.41,1.35H18.25c-.15.9-.29,1.71-.42,2.5A3.47,3.47,0,0,1,19.61,20l-.46.92c1.35,0,1.85.93,2.61,1.64l-.7,1.17c.16.58.36,1,1.05,1,1.62,0,1.66,0,2.08,1.56a6.3,6.3,0,0,0,.28.72l1.41.67-.27,1.11,1.19-.1Zm11.43-5.66c-.88-.36-1.13.31-1.59.64l.66,2.07a5,5,0,0,1,1.1-.06,5.21,5.21,0,0,1,1,.35,2.82,2.82,0,0,0,1.65-2l-.89-.43c0-.16,0-.24.07-.27s.25-.11.33-.2a2.65,2.65,0,0,0,.28-.43c-.22-.06-.53-.24-.65-.16A2.79,2.79,0,0,0,40.07,26c0,.19-.28.34-.68.8ZM27.26,47.42c-1.31-.54-2.38-1-3.35.19-.13.17-.47.17-.71.24s-.5.13-.4.55A7.57,7.57,0,0,0,27.26,47.42Zm7-27.1c1.21,2.39,1.21,2.39,2.21,2.83-.17-1-1-1.66-1.29-2.43l.39-.75C34.78,19.8,34.78,19.8,34.22,20.32Zm-6.6-10.21c-.12-.1-.26-.31-.4-.3-.42,0-.64.63-1.2.39a.46.46,0,0,0-.71.37c0,.4.31.52.6.64C26.62,11.49,27.37,11,27.62,10.11ZM18,31.75c-.05-.48-.21-.95.51-1.16.34-.1.15-.75-.25-.86s-.79.15-.91.73C17.1,31.49,17.18,31.63,18,31.75Zm15.52-12.4c.25-.18.52-.28.52-.39a4.51,4.51,0,0,0-.13-1.09c0-.06-.22-.13-.32-.11a.76.76,0,0,0-.59.85A3.24,3.24,0,0,0,33.48,19.35ZM24,33.28c.33-.38.67-.59.67-.81a1.08,1.08,0,0,0-.44-.75c-.26-.19-.59.22-.58.78A3,3,0,0,0,24,33.28ZM42.2,22.18c-.28-.26-.51-.55-.58-.51a1.34,1.34,0,0,0-.62.55.35.35,0,0,0,.39.47C41.63,22.64,41.84,22.41,42.2,22.18Zm-22,4.91c-.26.33-.49.59-.68.87a.37.37,0,0,0,.07.33.33.33,0,0,0,.33,0A.8.8,0,0,0,20.17,27.09ZM14.41,50c-.19.22-.42.41-.39.47a2.53,2.53,0,0,0,.43.51c.15-.16.4-.31.42-.49S14.6,50.14,14.41,50ZM31.9,4.34a2.54,2.54,0,0,0-.48-.26c-.05,0-.15.15-.22.22a2,2,0,0,0,.41.3S31.77,4.46,31.9,4.34Zm-11.78,9a1,1,0,0,0,.28,0c.27-.13.59-.24.44-.66a.73.73,0,0,0-.1-.14,2.59,2.59,0,0,0-.53.39C20.13,13,20.15,13.14,20.12,13.31Zm12.11,1.8c-.14-.22-.18-.37-.27-.42s-.49.22-.44.5c0,.11.13.2.21.3ZM39.58,14a6.52,6.52,0,0,0-.82-.38c-.1,0-.22.08-.33.12.06.15.08.37.19.42S38.94,14.08,39.58,14ZM29.1,11.11c-.13.12-.28.2-.27.27a.42.42,0,0,0,.2.3c.07,0,.2,0,.31-.09ZM37.61,15c-.08.07-.23.15-.22.23s.13.18.2.27l.32-.32Zm-19,17.75c-.15.08-.32.15-.32.19a2.81,2.81,0,0,0,.16.49c.11-.08.31-.15.32-.24S18.69,32.91,18.63,32.76ZM37.51,65c-.12,0-.28.06-.32.14s.05.22.08.33l.44-.19ZM27.65,45.72v.14h.61v-.14Zm12-24.78.21-.26c-.09-.07-.19-.18-.28-.19s-.13.16-.2.25Zm-32,33-.26-.22L7.08,54a.82.82,0,0,0,.32.09C7.48,54.11,7.54,54,7.61,53.92Zm29.7-41.76.21.21s.09-.12.08-.14-.13-.13-.19-.2Zm-3-2.4h-.17l.11.25s.12-.06.13-.1S34.33,9.81,34.31,9.76Zm1,8.83.23.22s.09-.13.08-.15-.15-.14-.22-.22ZM27,3.5l-.1.1.21.1c0-.05,0-.11,0-.14S27.09,3.52,27,3.5ZM12.77,51.94h.12l-.05-.15Zm-8.4,3.33.12-.05-.11,0Zm31.33-47,.16-.07-.15-.07Zm-5.55,6H30l0,.12ZM65.32,59.82l.09-.12-.13,0ZM15.12,27.4a.93.93,0,0,0,0,.13s.07,0,.11,0a.65.65,0,0,0,0-.13S15.16,27.42,15.12,27.4Z"/><path d="M16.57,44.09a5.46,5.46,0,0,0,0-.58,1.17,1.17,0,0,1,.92-1.46,16.08,16.08,0,0,0,1.94-.9V39.7l1.51.43,0-.06L19.73,42.4l-1.06.22.22,1.08,0-.06c-.24.06-.57,0-.71.2-.53.59-1.12.31-1.71.19Z"/><path d="M31.08.28l-.85,1.33a1.49,1.49,0,0,1-1-1.61,7.19,7.19,0,0,0,.91.27A7.32,7.32,0,0,0,31.08.28Z"/><path d="M20.9,40.13c0-.22,0-.57.06-.64a.72.72,0,0,1,1,.12c.07.09,0,.38-.11.49-.32.36-.67.16-1,0Z"/><path d="M8.53,51.78a3.42,3.42,0,0,1-.59.33s-.16-.25-.25-.38c.2-.11.4-.23.61-.32C8.31,51.4,8.41,51.59,8.53,51.78Z"/><path d="M9.23,51.29c-.18-.46-.35-.68-.29-.79a1.21,1.21,0,0,1,.48-.44c.05,0,.28.14.27.17A11.15,11.15,0,0,1,9.23,51.29Z"/><path d="M19.26,38.39l0,.16-.25,0s0-.12.06-.16S19.2,38.4,19.26,38.39Z"/><polygon points="66.19 82.59 66.07 82.59 66.14 82.46 66.19 82.59"/><path d="M77.89,34.84l.34-.13s-.07.07-.11.08a1.11,1.11,0,0,1-.19,0Z"/><path d="M21.51,41.55l-.2,0,.19,0Z"/><polygon points="12.53 45.49 12.53 45.36 12.66 45.43 12.53 45.49"/><path d="M20.49,52.18a.71.71,0,0,1,0-.15h.3a.71.71,0,0,1,0,.15Z"/><path d="M14.81,54v.37c0-.11,0-.22,0-.33Z"/><path d="M27.89,31.16c0-.29,0-.58,0-.88C28.12,30.58,28.28,30.87,27.89,31.16Z"/></g></g></svg>