<svg xmlns="http://www.w3.org/2000/svg" viewBox="0 0 62 97.47"><title>Asset 2droplet</title><g id="Layer_2" data-name="Layer 2"><g id="Layer_1-2" data-name="Layer 1"><path d="M8.58,37.51c-.27-.06-.5-.18-.39-.49a3.3,3.3,0,0,1,.48-.75c0-.05.2,0,.3,0,.75-.14.91-.45.62-1.16a1.27,1.27,0,0,1,.75-1.89c.56-.25,1.09-.58,1.68-.9l-.85-1.17h1.46l-.81-1c.6-1.14,1.19-2.3,1.81-3.45.8-1.5,1.62-3,2.41-4.5a3.21,3.21,0,0,0,.38-1.58,4.47,4.47,0,0,1,1.3-3c.19-.21.55-.26.86-.4l.33-1-1,.21a9.41,9.41,0,0,1,1.1-2c.6-.67.87-1.58,1.66-2.09a.92.92,0,0,0,.36-.5c.26-.86.48-1.73.72-2.59a5.19,5.19,0,0,1,.39-1.17c.73-1.23,1-2.65,1.58-3.92A20.06,20.06,0,0,1,24.64,2,4.58,4.58,0,0,1,26.82.44c.36-.15,1,.26,1.61.47A18.71,18.71,0,0,1,30.3.17C30.84,0,31.43-.19,32,.33c.18.17.53.15.78.27a2.6,2.6,0,0,1,.87.51,6.07,6.07,0,0,1,1.21,1.62c.53,1.31.92,2.68,1.41,4.18l.64.42c0,.57-.1,1.08-.12,1.59,0,.67-.77.63-1.14,1.15.69.66.92,1.7,1.89,2.15.09,0,.2.14.21.22.07.7.69,1.32.28,2.05.29.2.67.33.77.57s-.19.54-.32.86a2.6,2.6,0,0,1,1.1,2.13,3.4,3.4,0,0,0,.23,1c.45,1.19.93,2.37,1.43,3.64.79-.07,1.09.71,1.6,1.17.16.14.18.48.2.73,0,.06-.28.2-.42.18-.31-.05-.61-.18-.6-.59,0-.17,0-.34,0-.59H40l2.18,2.35-.77.42c.24,1.18.24,1.18,1.95.79l-.5,1c1.43,1.2,1.07,1.14,2.12.14.08,0,.23.08.24.15.31,1.24,1.3,1.94,2.21,2.77-.39.67.13,1.44-.33,2.11,0,.07.18.45.35.53a.94.94,0,0,1,.55.92,1.07,1.07,0,0,0,.74,1.11c.3.12.52.54.72.86s0,.5-.26.68c-.59.41-1.16.83-1.73,1.26a5.25,5.25,0,0,1,1.16.94c.4.59-.31.69-.57.92a2.59,2.59,0,0,0,1.71,2.36l-.42-1.19.54.29c.61-.5.72-.51,1.19,0a3.65,3.65,0,0,1,.39.49c.54.77.53.77,1.58.46-.05-.5-1-.66-.55-1.35.32.31.65.6.93.92a1.26,1.26,0,0,1,.31.62c.06.53.06,1.07.09,1.66h1.43a1.53,1.53,0,0,1-.22,1.58,4.39,4.39,0,0,0-.49,1.13c-.26.74-.53.79-1.21.41a5.67,5.67,0,0,0-2.75-.56l-.07.21c.15.08.32.26.45.23.56-.11.85.18,1.22.57a3,3,0,0,0,2.12,1.19.39.39,0,0,1,.29.09c.56.81,1.19.44,1.87,0a8.3,8.3,0,0,1,.66,1.29,11.88,11.88,0,0,0,1.7,2.87,7.76,7.76,0,0,1,.47,1l-.2.13-.74-.68-.25,1.31L57,54.65l-.84.64.68.63a4.51,4.51,0,0,0-.41,1.24c0,.34-.1.86.49,1.07V56.79c.45.11.82.7,1.24.26a4.8,4.8,0,0,0,.6-1.09,4.18,4.18,0,0,0,.61.91,4.94,4.94,0,0,0,.95.49,1.66,1.66,0,0,1-1,.88,8.08,8.08,0,0,0-1,.57c-.37.18-.77.32-1.14.51a.89.89,0,0,0-.1,1.36c.43.4.93.71,1.39,1.08a10,10,0,0,1,1.71,1.45c.44.56.83,1,1.66.83l0,.22-1,.39.41.44-.7.23.16.87c-.44.16-.66-.07-.62-.36.18-1.16-.45-1.54-1.45-1.7a6.31,6.31,0,0,1-1.06-.42c-.11,0-.26,0-.37,0s-.06.21,0,.23a4.63,4.63,0,0,1,1.47,2.21.82.82,0,0,0,.78.57c.83.11,1,.38,1,1.52l-1.18-1.15-1.08,1.79a2.85,2.85,0,0,0,.56.73c.23.18.48.25.42.61s-.31.43-.61.43c0,0-.07.09-.15.19l1.41.41c.13.84-.65.42-.87.83.15.47.31,1,.51,1.61-.78-.15-.75-1-1.44-1.21l-.54.61c-.12-.62-.12-.62-.64-.62,0,.48.38.47.66.59,0,.73.66.93,1.13,1a2.73,2.73,0,0,1,1.41.88h-.67c-.17,0-.43,0-.49,0a3.57,3.57,0,0,1-1.5,1,.36.36,0,0,0,.12.65,2.06,2.06,0,0,0,.82,0,.94.94,0,0,1,.94.51c-.41.44-.41.44-1,.1-.47.43-1,.75-.79,1.61.08.3-.33.73-.52,1.1h-.45c-.79,0-1,.15-.91.93a2.63,2.63,0,0,1,0,.93c-.09.27-.27.62-.5.7a1.09,1.09,0,0,0-.65,1.46,1.18,1.18,0,0,1-.52,1.29c-.48.43-.79,1.18-1.62,1.14a.36.36,0,0,0-.23.19c-.29.74-1,.92-1.66,1.17-.47-.16-.79-1-1.5-.45-.32.24-.35.31-.17,1l1.08-.27L48.14,90c0,.56.88.69.27,1.17-1.21-.16-1.5-1.27-2.14-2a4.21,4.21,0,0,0-.84-.91,9.32,9.32,0,0,0,.82,1.91c.68.92.27,1.67-.15,2.59-1.26-.55-2.2-1.76-3.84-1.7l.56,1.06c-.38.25-.78.53-1.2.79a1.09,1.09,0,0,0-.35,1.41c-.59.19-1.09-.44-1.79,0L42,95.73l-2.18-.25c-.73-.12-.6-1.24-1.59-1.34a1.87,1.87,0,0,0,1.17,1.76c-1.25.8-2.15,0-3.07-.61l-.25.38-.75-.39a2.53,2.53,0,0,0-.28.31c-.48.72-.5.76-1.2.35a1.16,1.16,0,0,0-1.66.21.66.66,0,0,1-.84.23,5.29,5.29,0,0,0-2.49-.17c-.33.5.17.63.35,1-1.33-.35-2.64,0-3.9-.58-.67-.3-1.55-.16-2.21-.47-1.16-.53-2.42-.74-3.56-1.3a5.74,5.74,0,0,1-.91-.77c-.56.23-1.08-.09-1.64-.46-1-.65-2-1.2-3-1.8-.8.16-1.09-.92-1.91-.78-.14,0-.39-.28-.49-.48a2.57,2.57,0,0,0-1.37-1.2,5.9,5.9,0,0,1-2.68-2.08,1.06,1.06,0,0,1-.2-.74c.13-.39.49-.28.8-.18a.94.94,0,0,0,.29,0c.23-.34.13-.55-.22-.64s-1-.2-1.42-.35c-.26-.08-.63-.22-.69-.4-.17-.62-.67-.94-1-1.41a7.66,7.66,0,0,1-1.26-2.46c-.23-1,0-2-.94-2.77-.22-.18-.22-.64-.35-1,.46,0,1-.08,1-.69a1.06,1.06,0,0,0-.7-1.11l-.57.77c-.34-.33-.82-.59-.95-1a18.14,18.14,0,0,1-.83-3.22c-.12-.76,0-1.55-.21-2.32s.31-1.3.72-2l-.82-.24c0-.43-.08-.91-.09-1.38a16.3,16.3,0,0,1,.19-4.63c.56-2,.79-4.12,1.46-6.12.33-1,.38-2.08.67-3.11.21-.72.41-1.46.67-2.17.72-1.93,1.59-3.8,2.16-5.77.33-1.15,1.1-2.07,1.39-3.21,0-.09.13-.16.21-.26l1.32.2C8,40.51,7.47,40.35,7.06,40a3.18,3.18,0,0,1,1.49-2.55c.19-.12.51-.15.36-.72ZM56.81,74.28c0,.41.24.68.85.76l-.87-.74c-.07-.39,0-.89-.55-1.07C56.25,73.73,56.34,74.11,56.81,74.28ZM11.69,81.09c.43-.45.43-.45-.43-.88l.46.94-.94-.43C11.24,81.41,11.24,81.41,11.69,81.09ZM27.12,93l-1.11.7a.78.78,0,0,0,1.17.19L27.12,93c.19.23.28.66.77.43C27.84,92.83,27.37,93.12,27.12,93ZM11.56,72.55l0,0a2,2,0,0,0,.85,1.67,1.09,1.09,0,0,1,.41.8,11.51,11.51,0,0,1-.1,1.52c.47.53.88,1,1.31,1.5s1,1,.37,1.86c1.07-.19,1.15.62,1.33,1.12a1.61,1.61,0,0,0,.87,1l1.51.76-.61.78c.36.13.61.21.86.32s.5.17.58.34c.33.7.71.32,1.1.08a2.45,2.45,0,0,0,.52.34c1.07.4,2.16.76,3.23,1.16a2.09,2.09,0,0,1,.87.53,2.18,2.18,0,0,0,1.44.72c.66.1,1.42-.16,2,.41,1.46.15,2.44,1.76,4.09,1.35a.1.1,0,0,1,.1,0c.61.58,1.31.23,2,.2s1.53-.09,2.29-.1a10.8,10.8,0,0,1,1.23.09l.55,1.19a2.3,2.3,0,0,0,.4-.56c.26-.88.48-.72,1.16-.55a16,16,0,0,1,1.75.65c.71.27.8.24,1.41-.57l-1.46-1.85c1-.49,1.82.38,2.7.53.07-1.06-.91-.56-1.25-1,0-1,.89-.79,1.4-1,.08-.78.08-.78,1.25-.84,0-.49-.43-1.14.36-1.39l1.64.58c.3-.8.55-1.48.81-2.16.11-.29.14-.72.36-.84A3,3,0,0,0,50,79.45a.78.78,0,0,1,.11-.18,32.85,32.85,0,0,0,1.94-2.82,11.11,11.11,0,0,0,1-2.69,14,14,0,0,0,.23-2.25l1.06-.45c-.62-.5-.25-1,0-1.43a1.06,1.06,0,0,1-.47-1.36,3.63,3.63,0,0,0,0-1c-.08-.68-.2-1.36-.3-2l1-.93-1.21-.48c.22-.64.69-.26,1-.33a4,4,0,0,1,1.08,0c.14-.82.14-.82-.59-1.32l-.86.5c.31-1.09-.48-1.48-1-2l.48-.65c-.21-.38-.43-.77-.64-1.17a1.49,1.49,0,0,1,.48-2.07,2.42,2.42,0,0,1,.42-.19c-.52-1.19-1.78-1.76-1.44-2.93a5.2,5.2,0,0,1-1.26-.91c-.88-1.24-1.68-2.54-2.5-3.82-.11-.17-.24-.42-.18-.58a1.28,1.28,0,0,0-.53-1.47c-.63-.6-.63-1.61-1.38-2.13-.14-1.28-.87-2.36-1.18-3.59a3.22,3.22,0,0,0-.45-.91A1.27,1.27,0,0,1,45,38.57l.83-1h.86c-.22-.78-.35-.9-1.17-1.17-.21.31-.34.71-.61.86-.72.42-1.35.15-1.58-.73a5.37,5.37,0,0,0-1.09-2c-.5-.61-1.05-1.18-1.56-1.78a5.58,5.58,0,0,1-.45-.7,8.61,8.61,0,0,1-.65-1c-.31-.67-.93-1.24-.52-2.14a1.8,1.8,0,0,0-.13-1.19c-.07-.18-.44-.25-.67-.38s-.37-.15-.41-.28c-.17-.57-.65-1.06-.45-1.76a1.53,1.53,0,0,0-.16-1c-.61-1.19-1.29-2.34-1.88-3.53-.36-.73-.6-1.51-.92-2.31l.37-.51a2.08,2.08,0,0,1-.61-2.2.61.61,0,0,0-.38-.75,2.94,2.94,0,0,1-1.46-1.47,5.9,5.9,0,0,0-.85-1.18c-.23.33-.36.56-.53.76a1.89,1.89,0,0,1-.51.47c-.66.38-1.38.69-1.09,1.69,0,.11-.05.26-.09.4-.19.7-.36,1.4-.57,2.1-.38,1.28-.77,2.57-1.17,3.85,0,.11-.16.19-.32.37l0-.94a.55.55,0,0,0-.78.42,4.65,4.65,0,0,1-1.12,1.74,1.61,1.61,0,0,0-.18.45l1.1-.27c-.16.61-.28,1.1-.43,1.58a.86.86,0,0,1-.35.36c-.77.5-.87.58-.6,1.39a1.28,1.28,0,0,1-.31,1.35,1.19,1.19,0,0,0-.28,1.23l-.83,1.22a.68.68,0,0,1-.29.27c-.82.27-.92.93-.89,1.65,0,.29.24.62-.21.87-.31,0-.55-.78-1-.15,0,.42.43.86.08,1.36-.06.09.1.37.21.54a5.19,5.19,0,0,0,.45.48c-.05.1-.06.14-.09.16s-.11.1-.17.1A1.16,1.16,0,0,0,20.35,37a1.65,1.65,0,0,1-.31.62c-.1.18-.33.34-.33.5,0,1-.7,1.6-1.4,2.32l.71.34-.14.21-.65.09a10.28,10.28,0,0,0,.32,1.7,2.15,2.15,0,0,1-.2,2H16.82a16.9,16.9,0,0,1,0,1.89,4.67,4.67,0,0,0,0,2.23s-.09.09-.2.22l-1-.64-1,.43c-.24,1,1.08.58,1.1,1.38-.87.35-.75,1.13-.75,1.86,0,.46.15.94-.24,1.37l-.6-1c-.88.11-.81.68-.79,1.26.94.24.83,1.13.95,1.75s-.53.9-.94,1.17l-1.06,2,.83.57c-.21.14-.31.23-.43.29-.74.34-.84.39-.49,1a1.52,1.52,0,0,1-.47,2.2,1,1,0,0,1-.19.13l-.57-.15-.72,1,.65.38a13.29,13.29,0,0,0-.51,2.07,6.57,6.57,0,0,0,.24,1.74c.14.74-.27,1.15-1,1-.29-.07-.58-.16-.89-.26-.09.22-.21.37-.18.47a2.78,2.78,0,0,0,1.21,1.83,3.08,3.08,0,0,1,.65.49C10.86,71.87,11.21,72.21,11.56,72.55Zm-4,9.67A4.69,4.69,0,0,0,4.77,81c-.28,1.33.24,2,1.8,2.47V82.5ZM34.8,93.92l-.39.87c.75,0,1.26-.12,1.48-.93a15.39,15.39,0,0,0-1.55-1c-.48-.23-.86,0-1.23.71ZM9.68,66.8c-.65.33-1.52,0-2.18.55.3.69.81.39,1.26.43a5.2,5.2,0,0,1,1.29.48A1.06,1.06,0,0,0,9.68,66.8Zm5.64-30a3.87,3.87,0,0,0-2-1.44c.06.72,1,1,.49,1.86C14.33,36.79,14.94,37.48,15.32,36.75ZM7,52.69l-.17,1.23,1,.34.62-1.34Zm43.44-6.38h.24l.13-.85-1.18-1.11C49.44,45.32,50.21,45.71,50.48,46.31ZM11.29,52.86c-.28,0-.44.07-.61.07s-.36-.09-.5,0a.84.84,0,0,0-.4.39c0,.06.16.29.29.35C10.64,53.9,10.86,53.77,11.29,52.86Zm8.2-16.56c1.2-.81,1.3-1,1-2Zm18.05,57,.19-.16-.84-1.3c-.66.65-.65.71,0,1.07ZM51.64,49c.4,1,.6,1.15,1.33.75C52.19,48.92,52.19,48.92,51.64,49Zm3.47,8.21c.62-1.1.58-1.15-.84-1.26ZM7.91,84.72c.46-.88.46-.88.46-1.46l-1,.68Zm21.57,9.62c-.69-1.09-.87-1.09-1.39-.22C28.46,94.59,28.91,94.19,29.48,94.34ZM15.92,44c.54-.08.85-.09,1.15-.17a.48.48,0,0,0,.3-.34c0-.12-.17-.38-.25-.37a2.39,2.39,0,0,0-.87.23C16.1,43.43,16.06,43.7,15.92,44ZM44.11,89.81c-.12.35-.26.56-.21.63a2.7,2.7,0,0,0,1.45,1ZM8,59.36c-.35-.57-.8-.4-1.27-.43C7.23,59.68,7.23,59.68,8,59.36Zm5.33-14.27c-.23-.36-.41-.75-.95-.82C12.7,45.46,12.7,45.46,13.35,45.09ZM16.5,90.82a2,2,0,0,1,.15-.59c.18-.26.2-.49-.1-.57-.12,0-.39.22-.45.39S16,90.68,16.5,90.82Zm-1,1.45c.22.61.67.43,1.19.56C16.34,92.29,16.16,91.87,15.47,92.27Zm-4.73-5.44.21-.18-.75-.93-.21.17A1,1,0,0,0,10.74,86.83Zm42.61-6c0,.52.24.8.64.86.15,0,.35-.22.6-.41ZM8.42,49.4l.6-.74C8.16,48.5,8.16,48.5,8.42,49.4ZM40.23,92.75c.26-.83.26-.83-.42-1.08Zm-21.37-1c.46.62.46.62,1.16,0ZM6.32,65.91c.38-.18.49-.42.33-.75a.27.27,0,0,0-.27-.07C6.1,65.29,6,65.54,6.32,65.91Zm8.31,23c.3.68.3.68.91.53ZM12.1,50.7c.6,0,.6,0,.66-.46ZM10.68,74.27l-1.48.14C9.86,74.89,10.28,74.5,10.68,74.27ZM45.34,33.18c.56.28.56.28.91-.11Zm-37,17.6.21.09L9,50.08C8.39,50.12,8.33,50.42,8.35,50.78ZM56,71.68l-.25.11c-.06.34.08.54.63.63ZM20.42,27.05c.49,0,.74-.12.59-.71ZM55.71,53.93c-.14-.16-.23-.33-.31-.32s-.28.12-.41.19c.07.13.14.35.23.36S55.5,54,55.71,53.93ZM22.47,93c0-.62,0-.62-.42-.88Zm2.35-.06c-.16.74-.16.74.4.85ZM8.76,43.82c-.5.36-.5.36-.17,1Zm3.66-7.12c0,.32.15.53.51.45a.31.31,0,0,0,.16-.23C13,36.58,12.75,36.56,12.42,36.7Zm-.09,20.84-.08-.27a6.23,6.23,0,0,0-.62.15s0,.16,0,.36ZM5.32,60c-.26-.73-.26-.73-.8-.74Zm2.33,5.38c-.59.25-.59.25-.32.81ZM39.3,92.28l-.26,0,.14.56.19,0ZM56.83,53.53c.59.32.75.18.77-.17,0-.08-.05-.17-.15-.43Zm-.66,21.66c-.13.18-.27.32-.25.36a.85.85,0,0,0,.34.31s.25-.19.23-.24A2.12,2.12,0,0,0,56.17,75.19ZM7.08,63.72a1.37,1.37,0,0,0-.33-.26s-.15.1-.22.15a1.81,1.81,0,0,0,.3.32A2.31,2.31,0,0,0,7.08,63.72ZM17,91.21a.43.43,0,0,0,.06.68.29.29,0,0,0,.27,0C17.54,91.54,17.36,91.36,17,91.21ZM8,69l-.89.37.54.42ZM38.17,19.5c-.29.37-.26.59.28.64ZM17.36,86.19c-.24-.44-.24-.44-.69-.32Zm-3-2-.25.23a5,5,0,0,0,.42.36s.14-.09.14-.1C14.52,84.48,14.42,84.32,14.31,84.16Zm38.88,1.29.11-.25L52.79,85c0,.09-.1.24-.08.25A4.16,4.16,0,0,0,53.19,85.45ZM44.12,36.92l.24.15a1.94,1.94,0,0,0,.12-.39c0-.07-.11-.21-.16-.21a.46.46,0,0,0-.32.14C44,36.67,44.07,36.81,44.12,36.92ZM11.5,74.52a1.69,1.69,0,0,0-.12.46c0,.07.13.13.19.2.08-.09.21-.18.21-.28S11.66,74.72,11.5,74.52ZM45.12,31c.09-.09.21-.14.21-.2s-.09-.16-.13-.23-.2.08-.21.14S45.06,30.9,45.12,31ZM19.4,36.93l-.06.25.45,0a.47.47,0,0,0,0-.17Zm-11,34c-.13.15-.23.22-.27.32s.12.19.18.18a.76.76,0,0,0,.31-.13ZM39.21,22.86l.12-.1L39,22.37l-.14.11ZM11.58,60.64c-.08.1-.18.18-.17.24s.12.13.18.2.18-.12.18-.19S11.67,60.75,11.58,60.64Zm1.41-9c-.05.06-.13.13-.12.14a1.92,1.92,0,0,0,.18.22l.17-.17ZM57.66,62.35l-.22,0-.1.52.19,0ZM28.25,14c-.05-.13-.06-.25-.13-.3s-.18,0-.27,0a1.28,1.28,0,0,0,.11.33S28.13,14.05,28.25,14Zm-19,71.31.14-.17L9,84.83,8.91,85ZM50.7,49.42c-.19-.13-.27-.23-.34-.22s-.14.1-.21.16a.92.92,0,0,0,.25.2C50.47,49.57,50.56,49.48,50.7,49.42ZM20.63,92.58l-.11-.15s-.11.1-.11.15.07.09.11.14A.76.76,0,0,1,20.63,92.58Zm6.63-1-.12.15.43.37.14-.17ZM16.19,34.49l.17-.1c-.1-.13-.19-.26-.3-.39l-.15.1Zm29.47-2.75c0,.13-.12.23-.1.29s.13.12.2.17.13-.15.11-.22S45.76,31.85,45.66,31.74ZM59.49,63.86a1,1,0,0,0-.14-.25s-.12,0-.18,0a1.17,1.17,0,0,0,.1.26S59.39,63.87,59.49,63.86ZM2.19,65.94c0-.21.08-.3.06-.32A1.48,1.48,0,0,0,2,65.46ZM48.52,37c-.08-.11-.14-.25-.19-.25s-.19.1-.29.15c.06.07.12.17.2.19S48.4,37.05,48.52,37ZM13.91,43.86c-.1-.1-.16-.19-.24-.2s-.17.11-.17.16a.29.29,0,0,0,.18.18C13.73,44,13.81,43.92,13.91,43.86Zm32.26-9-.1-.13c-.06,0-.16,0-.18,0a1.7,1.7,0,0,0-.06.31ZM14.26,41.71c.05.2.05.3.08.31a1.48,1.48,0,0,0,.3,0ZM30.9,95.6l.07,0-.1-.1s-.05,0-.07,0A.52.52,0,0,0,30.9,95.6ZM12.4,90.77h.09v-.14l-.13.08Zm-.57-48.92.25-.16c-.05-.07-.1-.17-.17-.19s-.17.08-.17.12A.53.53,0,0,0,11.83,41.85ZM49.38,83.38v-.21h-.47v.14Zm-28,2.94.06.18c.06,0,.13-.08.16-.14s-.06-.09-.1-.14Zm30.11-2.53c0-.25,0-.36-.08-.41a.84.84,0,0,0-.27-.13l-.09.14ZM22.9,28.3a.77.77,0,0,0,.18-.18S23,28,23,28a2.39,2.39,0,0,0-.21.13Zm-4.58-.42-.12,0v.41c.07-.09.13-.13.14-.18A.47.47,0,0,0,18.32,27.88Zm4.07-.17a1.23,1.23,0,0,0-.3-.08s-.11.12-.1.13.12.16.19.16S22.29,27.82,22.39,27.71ZM8.23,65s.14,0,.15-.09,0-.11-.06-.17l-.22.12ZM38,21.25a.58.58,0,0,0-.12.1s0,.08,0,.08l.16,0C38.09,21.34,38.06,21.29,38,21.25Zm4.21,11.29s-.09-.12-.14-.12-.09.07-.14.11.09.12.14.12S42.2,32.58,42.25,32.54Z"/><path d="M58.3,60.2c1-.64,1.73.54,2.68.24.12.52-.11,1.16.73,1.3-.76.13-1.49-.07-1.93,1l-.4-1c-.09-.25-.19-.49-.31-.81l-.77.45Z"/><path d="M61.64,63.39c-.49.1-.76-.08-.82-.87l1,.6Z"/><path d="M43,93.74l-.85-.64C42.83,93,42.83,93,43,93.74Z"/><path d="M50,40.1l-.78.74L49,40.69c.25-.26.24-.74.71-.82Z"/><path d="M50.66,39.61c.46.12.57.35.34.79C50.6,40.25,50.47,40,50.66,39.61Z"/><path d="M43,25.7l.41.56-.18.13-.42-.55Z"/><path d="M46.4,28.4l-.19.26A1.38,1.38,0,0,1,46,28.4s.12-.18.18-.18S46.31,28.33,46.4,28.4Z"/><path d="M61.84,69.28l-.3-.18c.07-.09.12-.21.21-.26s.16,0,.25.09Z"/><path d="M44.77,93.22c-.12.11-.2.21-.31.24s-.2-.13-.19-.16a.82.82,0,0,1,.22-.27S44.63,93.12,44.77,93.22Z"/><path d="M38.31,96.45c.06.13.16.28.14.3a1.48,1.48,0,0,1-.38.23s-.17-.18-.15-.2A1.87,1.87,0,0,1,38.31,96.45Z"/><path d="M61,58.72a1.2,1.2,0,0,1-.23.11s-.11-.13-.1-.14a1.49,1.49,0,0,1,.2-.15Z"/><path d="M31.39,97.21l-1-.29c.6-.26.78,0,1,.31Z"/><path d="M31.36,97.23H32c-.3.45-.43.17-.58,0Z"/><path d="M61.89,66.65a2.17,2.17,0,0,1,.07.24s-.14.07-.16,0a.74.74,0,0,1-.13-.21Z"/><path d="M20.65,40.35a13.6,13.6,0,0,1-.41-1.42c0-.16.18-.37.28-.55.17.14.49.27.49.41a11.46,11.46,0,0,1-.15,1.55Z"/><path d="M52.34,55.14c.21.26.41.42.45.61s-.22.27-.35.4a2.26,2.26,0,0,1-.37-.52C52,55.54,52.21,55.38,52.34,55.14Z"/><path d="M11.64,71c-.12.11-.22.24-.32.24s-.16-.16-.23-.25a1,1,0,0,1,.3-.21S11.52,70.87,11.64,71Z"/><path d="M11.56,72.55c0-.07-.05-.14,0-.2s.06-.22.09-.33.17.06.17.07a1,1,0,0,1-.09.3c0,.06-.1.08-.15.13Z"/></g></g></svg>