<svg xmlns="http://www.w3.org/2000/svg" viewBox="0 0 132.42 107.95"><title>Asset 2heart</title><g id="Layer_2" data-name="Layer 2"><g id="Layer_1-2" data-name="Layer 1"><path d="M101.27,8c.69-.4.65-1.24,1-1.79a2.3,2.3,0,0,1,1.75,0c1.27.5,2.55,1,3.85,1.38.88.26,1.08,1.09,1.67,1.72a4.75,4.75,0,0,0,.88,0,4,4,0,0,0,.72-.22c.07.09.2.17.22.28.23,1.24,1.23,1.6,2.23,1.83a1.55,1.55,0,0,1,1.12.6,3,3,0,0,0,1.7,1.24c.21.05.52.36.5.51-.12.86.57,1.09,1,1.48,1,.85,2.12,1.68,3.16,2.53.07.05,0,.24,0,.36a4.08,4.08,0,0,0-2.45,1.13,4.61,4.61,0,0,1,1.61.54,4.45,4.45,0,0,1,.79,1.48c.49,0,.54-.35.36-.67-.53-1,0-1.43.75-1.8.87.38.37,1,.32,1.62a5.23,5.23,0,0,1,.9.54,2.51,2.51,0,0,1,.47.85,1.68,1.68,0,0,0,1,.91c.31.14.4.77.56,1.19a3.46,3.46,0,0,1,.3,1.11,13.31,13.31,0,0,0,.92,3.57,1.86,1.86,0,0,0,.29.51c.63.9,1.3.91,2.19,0a1.35,1.35,0,0,1,.38-.18,1.24,1.24,0,0,1,.76,1.54,14.45,14.45,0,0,1-1.33,4.1c1.18.5,2.08,0,3.09-.58a7.24,7.24,0,0,1,.28,1.18.69.69,0,0,1-.73.75c-.58,0-1.16,0-1.83,0-.43.56-.13,1.18,0,1.88l2,.78,0-.05c-1.31,1.69-1.34,2-.36,4a2,2,0,0,1,.08.38l-1,.48c.46.59.46.59,1.41.86a1.1,1.1,0,0,1-.5,1.49l-1.68,1.09c.08,1.12-.41,2.23.53,3.13a12.11,12.11,0,0,0-1,1.49,7.39,7.39,0,0,0-.38,1.47l-.79.26L128,54.3a7.9,7.9,0,0,0-.9.29c-.29.12-.7.25-.78.47-.27.77-.91.27-1.32.49,0,.13-.11.26-.08.37a1.38,1.38,0,0,1-.8,1.77,6.11,6.11,0,0,0-.92.81l1.11.9c0,.12,0,.28-.11.36a25,25,0,0,1-3.41,3.42,1.61,1.61,0,0,0-.4.86,2.79,2.79,0,0,1-1.62,2.07,2.09,2.09,0,0,0-1.22,1.2c-.05.12-.13.28-.22.31-1.42.48-1.84,2-2.89,2.83a2.15,2.15,0,0,0-.64,1,4.59,4.59,0,0,1-2.43,2.66c-1,.49-1.61,1.61-2.86,1.32a9.82,9.82,0,0,0-.31.94,1.84,1.84,0,0,1-1.77,1.54c-.33,0-.65.09-1,.15a1.28,1.28,0,0,0-1.07,1c0,.19-.08.39-.11.58a2,2,0,0,1-1.73,1.86c-.24.06-.57.14-.68.33-.78,1.37-2.12,2.25-3,3.53a28.49,28.49,0,0,1-2.12,2.56,5,5,0,0,1-.93.7,10.62,10.62,0,0,0-2.93,2.54,2.84,2.84,0,0,1-1.27.84,11,11,0,0,1-1.69.43l-.09,1.38-1.5-.33c-.43.36-.89.72-1.36,1.1l-1.53-.16a1.4,1.4,0,0,0,0,.42c.37.74.37,1,0,1.35a6.66,6.66,0,0,1-2.92,1.54,7.7,7.7,0,0,0-3.22,1.72c-1.08,1-2.4,1.76-3.57,2.68a9.3,9.3,0,0,0-2.56,2.67,1.62,1.62,0,0,1-1.77.92,2.18,2.18,0,0,0-2.2,1,3.24,3.24,0,0,1-.37.46c-1.16,1.18-1.91,1.08-2.72-.35l-.37-.68a1.34,1.34,0,0,0-1.39-.88,3,3,0,0,1-2-.72,26.65,26.65,0,0,0-6.21-3.25,18.74,18.74,0,0,0-4.48-2.34,2.22,2.22,0,0,1-.71-.66,1.49,1.49,0,0,0-1.36-.62,1.51,1.51,0,0,1-1.24-.45,12.73,12.73,0,0,0-3.81-2,12.8,12.8,0,0,1-1.37-.72c-.17-.09-.3-.33-.46-.34-2-.08-3.22-1.86-5.07-2.36A8.93,8.93,0,0,1,35,90.12a9,9,0,0,0-2.55-1.39,2.89,2.89,0,0,1-1.4-1,25.35,25.35,0,0,0-3.27-3.88,3.53,3.53,0,0,1-.43-.74l-1.69-.33c-.24-.57-.45-1.11-.71-1.73a6,6,0,0,1-1.08-.19c-1-.41-2.06-.84-2.43-2.06a1.29,1.29,0,0,0-1.43-1c-1.09,0-1.93-.7-2.87-1.11-.28-.13-.43-.62-.56-1s-.25-1-.42-1.48a1.43,1.43,0,0,0-.92-1,1.39,1.39,0,0,1-1-2c0-.11,0-.25-.08-.46l-1.87-.58.22-1.82a2.47,2.47,0,0,0-1.69-1.12,2,2,0,0,1-1.6-2,3.23,3.23,0,0,0-.75-2,2.57,2.57,0,0,1-.37-1.06C8,61.5,7.9,60.73,7.71,60a2.59,2.59,0,0,0-.45-.83c-.57-.79-1.15-1.58-1.75-2.35s-1.23-1.5-1.87-2.27l.65-1.83c-.23-.13-.48-.3-.75-.43a1.9,1.9,0,0,1-1-1.56,8.51,8.51,0,0,1,0-2.52,2.73,2.73,0,0,0-.39-2.4,2.06,2.06,0,0,1-.36-1.28A1.63,1.63,0,0,0,1,42.84c-.15-.1-.23-.3-.4-.52a8.11,8.11,0,0,1,.28-.88,1.76,1.76,0,0,0-.08-1.85,3.65,3.65,0,0,1-.41-3,1.73,1.73,0,0,0-.11-1.49,2,2,0,0,1,0-1.86c.84-2.19,1.64-4.4,2.44-6.6.18-.49.29-1,.47-1.49a2.76,2.76,0,0,1,.48-1,4.34,4.34,0,0,0,1.17-4,2.1,2.1,0,0,0,1.43-1.17c.81-1.26,1.67-2.48,2.52-3.72.26-.37.69-.7.79-1.1.33-1.35,1.42-2,2.38-2.74.75-.61,1.46-1.28,2.19-1.93.15-.13.32-.35.45-.34,1.1.16,1.36-.78,1.92-1.36a5.54,5.54,0,0,1,2.19-1.59,2.42,2.42,0,0,0,1.78-1.67,5.58,5.58,0,0,1,.87-1.33l1.54.94,2.59-2.34,3.87-.44c-.47-.19-.64-.24-.78-.32a1.94,1.94,0,0,1-.26-.23c.21-.49.66-.35,1-.41,2.13-.32,4.27-.6,6.35.27.12.05.27.14.37.11,1.07-.44,1.86.32,2.74.65a4.61,4.61,0,0,0,1.67.49,1.83,1.83,0,0,1,.94.24,3.22,3.22,0,0,0,2.35.66c.56-.09,1.21.33,1.81.55a42.84,42.84,0,0,1,5.37,2.13c.12,0,.29.15.3.24.09,1.1,1.06.9,1.72,1.2,1.11.5,2.32.83,3,2.07.2.38.85.52,1.41.83.06.32.14.76.23,1.2.11,0,.27.14.35.1a2.08,2.08,0,0,1,2.89.78c.34.48.68.77,1.29.59,0,0,.17,0,.18,0,.4.94,1.68,1,2,2.05s1.17,1.3,2.12,1.37c1.18.09,1.19.08,1.58,1.22a3.24,3.24,0,0,0,.19.55,1.06,1.06,0,0,0,1.65.37,7.16,7.16,0,0,0,.81-.84c.36-.37.67-.88,1.12-1.06.93-.39,1.58-.88,1.55-2,.76-1.29,1.66-2.38,3.39-2.23a10.78,10.78,0,0,1,4.83-3.83c1.69-.68,3.39-1.35,5.1-2a2,2,0,0,1,.94,0,10.6,10.6,0,0,0,4.27-.19c.75-.18,1.53-.24,2.3-.38A2.65,2.65,0,0,0,95,5.24a2.81,2.81,0,0,1,2.34,0c.25.53.51,1.1.8,1.74L100.21,6c.6.25.49.68.52,1.06s.1.78.57.91c0,.12,0,.24,0,.36ZM98.61,76.57a9.91,9.91,0,0,0,1.07-.84,22.13,22.13,0,0,0,2.19-2.46c.67-1,2.08-1.2,2.34-2.53,0-.13.33-.18.48-.3a5.52,5.52,0,0,0,1-.87c1.45-1.92,3.08-3.69,4.35-5.75a4.09,4.09,0,0,1,.77-.84c.71-.65,1.45-1.28,2.2-1.94l-.64-1.3a13.3,13.3,0,0,1,1.7-2.65,2.41,2.41,0,0,0,.87-2.24,2.12,2.12,0,0,1,0-1,16.65,16.65,0,0,0,.29-7,2.64,2.64,0,0,1,0-1,7.35,7.35,0,0,0-.25-3.86,1.81,1.81,0,0,1,.05-1.3,3.16,3.16,0,0,0,.07-2.81,8.91,8.91,0,0,1-.28-4.91c-1.15-.39-1.5-1.42-1.71-2.55a12.84,12.84,0,0,1-.37-1.31,3.86,3.86,0,0,0-.87-2.11,8.84,8.84,0,0,1-1.54-.83,15.87,15.87,0,0,1-1.74-1.83A6.6,6.6,0,0,0,106,22.26c-.73-.27-1.35-.85-2.08-1.05a8.36,8.36,0,0,1-2.74-1,1.07,1.07,0,0,0-.74-.16,7.87,7.87,0,0,1-3.09-.32,7.37,7.37,0,0,0-4.61.36c-1.25.55-2.51,1.09-3.77,1.61-.48.2-1,.55-1.46.45a6.28,6.28,0,0,0-2.09.19,1.27,1.27,0,0,0-1.32,1.17c-.09.5,0,1.08-.67,1.37-.11-.13-.22-.28-.34-.41s-.25-.23-.4-.36c-.85.8-.43,2.28-1.64,2.79l-.82-.39c-.91.73-1.77,1.42-2.62,2.12a1.34,1.34,0,0,0-.36.46,2.64,2.64,0,0,1-1.44,1.51,1.18,1.18,0,0,0-.47.59A5,5,0,0,1,72,34a2.56,2.56,0,0,0-2.07,2.34,1,1,0,0,1-.17.33l-1.55.6-.75-.49a6.06,6.06,0,0,1-.92,1.5,8.19,8.19,0,0,1-1.75,1,2.19,2.19,0,0,0-1.91-.43,2.2,2.2,0,0,1-1.83-.53,11.09,11.09,0,0,0-1-.65c-1.25-.74-1.25-.74-.88-2.12.06-.24.09-.5.14-.77a15.65,15.65,0,0,1-2.14-1.44,4.86,4.86,0,0,0-3.08-1.7,2.15,2.15,0,0,1-.26-.44A3.39,3.39,0,0,0,52,28.6a3.3,3.3,0,0,1-.82-.77c-.27-.28-.5-.59-.76-.86A12.61,12.61,0,0,1,49,25.58a12.73,12.73,0,0,0-3.06-3,6.8,6.8,0,0,1-2.44-3.18,23.18,23.18,0,0,0-1.76-3.48,1.7,1.7,0,0,0-1-.79,2,2,0,0,1-1.43-.88A13,13,0,0,0,38.1,13a1.16,1.16,0,0,0-1.25-.36c-1.15.51-2.32.19-3.48.17-.84,0-1.69,0-2.53,0s-1.8.23-2.7.39a3.4,3.4,0,0,0-.89.36c-.7.34-1.36.77-2.08,1.06a10.4,10.4,0,0,0-4,3.09c-1.11,1.33-2.13,2.78-3.79,3.53-.05,0-.08.1-.21.24l-.16,1.58a4.25,4.25,0,0,0-3,2.81c-.26.6-.41,1.25-.7,1.83a6.7,6.7,0,0,0-.21,4.77,13.22,13.22,0,0,1,1.25.62.62.62,0,0,1,.23.48.63.63,0,0,1-.29.46c-.63.19-1.27.28-1.9.47-.19,0-.34.28-.6.51l2.29,1.34a1,1,0,0,1,.5,1.47,1.51,1.51,0,0,1-.93.93,1.08,1.08,0,0,1-1.1-.19c-.11-.08-.33,0-.48,0-.26,1.21-.11,1.48.79,1.52h1.05l1.59,1.83a1.08,1.08,0,0,1,.23,1.26,1.69,1.69,0,0,0-.12.56c0,.3.31.4.67.21a4.22,4.22,0,0,1,.43-.17,22.69,22.69,0,0,1-.33,2.53c-.2.78.05,1.15.85,1.42.35.12.55.25.61.63.11.56.26,1.11.4,1.65l-.8,1.15c.44.43.76,1,1.18,1.1,1.47.32,1.58,1.48,1.56,2.54a4.43,4.43,0,0,0,.28,1.68,3.8,3.8,0,0,1,.4,2.85,6.2,6.2,0,0,0,.75,0c1-.09,1.46.78,2.24,1.07.32,1.17,1.47,1.62,2.14,2.48.07.08.06.23.08.35l-.68.19c.13,1.07.94.65,1.51.72a2.86,2.86,0,0,1,1,1.82c0,.69.44,1.07,1.05,1.48a4.43,4.43,0,0,0,2.8,1l.46,1.18a8.12,8.12,0,0,1,.81-.18.79.79,0,0,1,1,.49c.21.85.87,1.21,1.5,1.69s1,1.16,1.9,1.23a.91.91,0,0,1,.56.5,4.63,4.63,0,0,0,2.75,2.29,10.13,10.13,0,0,1,.17,1,1.26,1.26,0,0,0,1.1,1.2,3.41,3.41,0,0,0,1.14.12,2.9,2.9,0,0,1,3.26,1.88,4.13,4.13,0,0,0,.5.72c.22.06.36.14.47.11a2.44,2.44,0,0,1,2.76.93,1.26,1.26,0,0,0,.45.38c1.88.91,3.35,2.4,5,3.58a2.35,2.35,0,0,1,.85,1,1.86,1.86,0,0,0,1.31,1.08,3.88,3.88,0,0,1,1.87,1,9.74,9.74,0,0,0,.15,1.58,3.12,3.12,0,0,0,.63.93,3.62,3.62,0,0,0,1.11,1.94c.39.37.66.07.82-.34a4.94,4.94,0,0,0,3,2.86,21.4,21.4,0,0,1,2.42,1.26c.34.18.69.33,1.1.52a4.08,4.08,0,0,1,2.67-1.09,3.18,3.18,0,0,0,2.65-1.73,2.25,2.25,0,0,1,1.69-1.4,4.23,4.23,0,0,0,2-1.15,7.31,7.31,0,0,1,3.81-2.26,1.84,1.84,0,0,0,1.21-.89,5.67,5.67,0,0,1,2.74-2.11,6.42,6.42,0,0,0,2.59-1.71A10,10,0,0,1,91,83a2.4,2.4,0,0,0,1.6-2.24l1,.29c.68-1.14,2-1.74,2.16-3.17l2.9-1.29ZM117,15.74c-.11.14-.38.36-.43.61a.83.83,0,0,0,.74,1c.33,0,.6-.39.59-.87S117.56,15.7,117,15.74ZM52.85,86.88c.2-.24.42-.41.39-.48a2.32,2.32,0,0,0-.42-.54c-.14.16-.39.32-.4.48S52.66,86.66,52.85,86.88ZM50.31,6.09l-.81-.55a1.43,1.43,0,0,0-.2.46.39.39,0,0,0,.47.44C49.92,6.42,50,6.27,50.31,6.09Zm74.07,20.84a2.18,2.18,0,0,0,.09-.52c0-.08-.16-.14-.24-.21a1.77,1.77,0,0,0-.15.48C124.08,26.74,124.24,26.82,124.38,26.93Zm4.29,4.39c0-.19.14-.37.1-.51s-.25-.14-.39-.21a2.35,2.35,0,0,0,0,.52C128.34,31.19,128.52,31.23,128.67,31.32ZM56.49,89.92a4.45,4.45,0,0,0,.23-.67s-.16-.14-.24-.21c-.13.19-.27.38-.38.58A2.94,2.94,0,0,0,56.49,89.92Zm72.66-47.17c.09.06.17.14.26.19s.13-.1.12-.13a1.55,1.55,0,0,0-.14-.29ZM23.62,79.42a2,2,0,0,0-.27-.17s-.14.09-.14.1l.17.28ZM57.5,90.57l.25.18s.11-.09.1-.11a1.38,1.38,0,0,0-.14-.27ZM18.93,54.43v-.15l-.23.09s0,.1.09.11S18.88,54.45,18.93,54.43ZM107.21,9.55a.75.75,0,0,0,0-.15c-.12,0-.23,0-.35,0a.75.75,0,0,0,0,.15C107,9.58,107.09,9.56,107.21,9.55Zm12,10.94-.19.23s.12.11.13.1l.2-.22Zm9.21,17.34s.08-.08.08-.12-.05-.08-.08-.12-.08.08-.08.12S128.38,37.79,128.41,37.83Zm-6.21,5.41,0,.13.12,0ZM10.75,39.45l.11,0,0-.11Z"/><path d="M128.77,28c-.26.08-.45.2-.6.17a.71.71,0,0,1-.59-.87,1,1,0,0,1,.46-.54c.07,0,.37.14.44.28A5.46,5.46,0,0,1,128.77,28Z"/><path d="M126.47,24.31c-.1-.27-.23-.46-.19-.61s.26-.2.4-.3c.08.16.23.34.21.48S126.67,24.12,126.47,24.31Z"/><path d="M127.29,25.46a2,2,0,0,1,.24.16s0,.09-.07.14a1.94,1.94,0,0,1-.24-.15S127.27,25.51,127.29,25.46Z"/><path d="M131.83,38.46l.14-.83.22.07c-.13.23-.27.46-.39.7Z"/><path d="M62.34,92.84c-.56-.66-1-1.53-2-1.6.28-.25.52-.6.84-.72a8.52,8.52,0,0,1,1.68-.37,1.68,1.68,0,0,1,1.52,1,.82.82,0,0,1-.43,1,8.81,8.81,0,0,0-.92.2A3.32,3.32,0,0,0,62.34,92.84Z"/><path d="M16,25.68l-.66.48c-.06-.11-.16-.22-.16-.32,0-.43.32-.72.57-.58C15.85,25.32,15.89,25.46,16,25.68Z"/><path d="M61.22,89.65l-.34.17a4,4,0,0,1-.21-.47s.25-.15.27-.13A3.18,3.18,0,0,1,61.22,89.65Z"/><path d="M17.7,45.17a2.07,2.07,0,0,1-.25.15s-.1-.1-.09-.13a1.16,1.16,0,0,1,.15-.26Z"/><path d="M98.62,76.54l-.09-.78c.37.26.13.54.08.8Z"/></g></g></svg>