<svg xmlns="http://www.w3.org/2000/svg" xmlns:xlink="http://www.w3.org/1999/xlink" width="41" height="36.739" viewBox="0 0 41 36.739">
  <defs>
    <clipPath id="clip-path">
      <rect id="Rectangle_129" data-name="Rectangle 129" width="32.756" height="31.367" fill="none"/>
    </clipPath>
    <clipPath id="clip-path-2">
      <rect id="Rectangle_40" data-name="Rectangle 40" width="41" height="33.424" transform="translate(0 0)" fill="none"/>
    </clipPath>
  </defs>
  <g id="Group_194" data-name="Group 194" transform="translate(-305 -516.213)">
    <g id="Group_193" data-name="Group 193" transform="translate(305 516.212)">
      <g id="Group_192" data-name="Group 192" transform="translate(0 0)" clip-path="url(#clip-path)">
        <path id="Path_6852" data-name="Path 6852" d="M10.383,27.238c.016-.106.033-.211.049-.319.362.053.684.116,1.008.143.282.024.428-.1.42-.385a.665.665,0,0,1,.32-.639,2.594,2.594,0,0,0-1.351.322,2.454,2.454,0,0,1-1.773.193c-.315-.1-.65-.124-.971-.2a1.526,1.526,0,0,1-.481-.189.267.267,0,0,1,0-.451c.033-.029.089-.037.111-.07.058-.086.151-.186.142-.272-.016-.159-.167-.21-.3-.186a.574.574,0,0,1-.706-.447c-.036-.1-.175-.162-.37-.33.085.339.128.546.192.746s.155.367.211.557a.275.275,0,0,1-.053.235c-.05.041-.159.02-.24.009a.2.2,0,0,1-.108-.074,1.08,1.08,0,0,0-1.073-.369.483.483,0,0,1-.521-.227,4.928,4.928,0,0,1-.672-1.492c.111-.009.194-.013.276-.023.328-.038.469-.254.354-.55a1.059,1.059,0,0,0-.143-.224c-.051-.07-.109-.133-.159-.194a.333.333,0,0,1,.046-.079c.083-.067.231-.1.2-.237a.517.517,0,0,0-.177-.265c-.174-.136-.367-.247-.578-.385-.129.067-.259.147-.4.2a4.334,4.334,0,0,1-.438.122l.672.481c.007.2.02.4.02.6,0,.311-.055.394-.334.5-.137.053-.279.094-.476.159.085.113.12.2.183.236.23.133.472.245.7.376.046.027.1.135.086.157-.046.064-.132.154-.189.146a1.023,1.023,0,0,1-.491-.15,1.643,1.643,0,0,0-.9-.387.386.386,0,0,1-.18-.078.349.349,0,0,1-.145-.354.259.259,0,0,1,.281-.23c.1,0,.206.015.308.023.029-.364-.054-.486-.259-.389a1.329,1.329,0,0,1-1.065.033l-.3-.693c.121-.158.215-.1.289-.007.113.145.221.29.426.275a.6.6,0,0,0,.564-.285c.1-.045.206-.082.3-.135a.2.2,0,0,0,.113-.277C2.768,22.093,2.675,22,2.618,22a.42.42,0,0,0-.265.15c-.115.149-.019.3.054.438-.158-.076-.32-.143-.471-.23s-.294-.194-.482-.32c.007-.2.1-.458-.1-.653a1.658,1.658,0,0,0-.624-1.122.811.811,0,0,1-.179-.424,2.061,2.061,0,0,0-.507-1.172l.2-.287L0,17.771l.407-.2c0-.07.024-.126,0-.155a1.609,1.609,0,0,1-.135-1.55,2.282,2.282,0,0,0,.115-.729c.008-.362.12-.614.494-.689.037-.008.064-.058.122-.113C1,14.228.987,14.1.984,13.965a1.131,1.131,0,0,1,.449-1.122.405.405,0,0,0,.193-.254c0-.211-.025-.412.232-.487.042-.485.594-.724.572-1.243,0-.048.078-.1.143-.176l.57.23a.863.863,0,0,0,.111-.3c-.043-.916.137-1.191.96-1.389a.564.564,0,0,0,.429-.281c.29-.641.935-.791,1.448-1.121.214-.137.285.139.433.193.275-.14.089-.411.191-.655.076-.043.188-.108.3-.171a1.432,1.432,0,0,0,.8-1.165A3.511,3.511,0,0,1,7.966,5.3a.96.96,0,0,1,.54-.638,1.632,1.632,0,0,0,.8-.772,1.221,1.221,0,0,1,.416-.414c.293-.2.606-.366.911-.545a1.844,1.844,0,0,1,.234-.124A.284.284,0,0,1,11.287,3c.034.082.049.173.089.251a.212.212,0,0,0,.294.043,1.649,1.649,0,0,0,.169-.206.913.913,0,0,1,.66-.374,1.153,1.153,0,0,1,.259.908c.265.32.6-.034.868.2.049.365.1.759.159,1.183H13.52a.194.194,0,0,0-.024.312c.09.092.21.211.321.215a1.057,1.057,0,0,1,.978.77c-.063.162-.2.146-.332.142L12.77,6.4c.2.454.582.428.915.519.107.334.384.6.243,1.01.307-.13.567-.243.831-.347.024-.01.087.03.1.062a.136.136,0,0,1-.01.125c-.265.227-.537.447-.815.676a.662.662,0,0,0,.858.321c.127-.038.246-.1.369-.151a.646.646,0,0,0,.394-.422,1.321,1.321,0,0,1,.314-.5c.276-.268.56-.148.66.259a.685.685,0,0,1,0,.136l.012-.016c-.145-.054-.307-.138-.441-.024a.675.675,0,0,0-.233.668.518.518,0,0,1-.145.593h.438a3.559,3.559,0,0,1,.085-.408c.1-.29.216-.365.55-.313a.6.6,0,0,0,.381-.041.39.39,0,0,1,.251-.05c.425.139.716-.092,1.042-.359a.755.755,0,0,1,.13-.8c.173-.2-.05-.363-.158-.567a1.569,1.569,0,0,1,.283-.334.862.862,0,0,0,.4-.73c.024-.388.185-.445.513-.225.036.024.068.054.106.075.017.009.043,0,.069,0,.286-.148.369-.588.82-.571a1.49,1.49,0,0,0,.035.333,1.159,1.159,0,0,0,.171.288.387.387,0,0,0,.621.08.893.893,0,0,0,.271-.84c.323.1.364.357.509.561l-.373.2c.011.056.006.123.029.136.233.122.5.2.564.51a.824.824,0,0,0,.233-.077c.273-.22.285-.268.163-.562-.039-.094-.085-.186-.137-.3a.7.7,0,0,1,.646.1c-.021.224-.044.462-.069.719l.4.214c-.02.059-.022.122-.047.136a.721.721,0,0,0-.4.9,1.209,1.209,0,0,1,0,.234,1.246,1.246,0,0,1-.307.072,3.093,3.093,0,0,1-.428-.058c-.111.216.029.29.14.341.216.1.445.171.65.247.04.72.04.72.31.945.111-.086.225-.187.351-.268a.641.641,0,0,0,.284-.911c-.165-.389-.115-.433.316-.869-.028-.229-.059-.473-.088-.7.377-.419.377-.419.451-.8a1.7,1.7,0,0,1,.52.876c.117.342.117.341.523.359a1.614,1.614,0,0,1,.224.053c-.043.1-.056.2-.111.237a1.518,1.518,0,0,1-.368.142.919.919,0,0,0-.731.906c.046.023.093.066.122.056a6.563,6.563,0,0,0,1.573-.479.509.509,0,0,1,.446-.052c.288.09.623.038.843.267a3.537,3.537,0,0,1,0,.814,2.909,2.909,0,0,1-.359.667c.1.1.207.211.326.3.451.359.568.364,1.058.063.037-.024.072-.054.111-.076a.4.4,0,0,1,.6.215c.05.122.058.263.1.39a1.3,1.3,0,0,0,.181.432,4.669,4.669,0,0,1,.72,1.046c.041.088.164.145.26.194a3.987,3.987,0,0,0,.386.153q.074.294.147.58a2.3,2.3,0,0,1,.977,1.6,1.286,1.286,0,0,0,.179.367,1.925,1.925,0,0,1-.169.2,1.038,1.038,0,0,1-.193.107c-.127-.076-.254-.16-.389-.229a.326.326,0,0,0-.468.1.392.392,0,0,0-.113.486,4.367,4.367,0,0,1,.248.4.37.37,0,0,1-.015.307c-.053.068-.241.128-.281.089-.4-.364-.778-.135-1.163,0a2.817,2.817,0,0,0-.848.724.252.252,0,0,0,.141.381,1.051,1.051,0,0,1,.524.252c.09.083.288.037.435.063.06.011.153.05.16.089a.316.316,0,0,1-.039.245,1.1,1.1,0,0,1-.327.217c-.133.063-.277.1-.464.167l.346.334a.584.584,0,0,1-.339.5l-1.13-.208c-.03-.169-.063-.361-.1-.557l.644-.546a1.1,1.1,0,0,0-.138-.3c-.307-.328-.541-.319-.7.1a1.041,1.041,0,0,1-1.155.7c-.4-.009-.794-.041-1.19-.059-.128,0-.257,0-.424,0a1.524,1.524,0,0,1,.2.474,1.658,1.658,0,0,1-.14.516,1.625,1.625,0,0,0-.11.316.332.332,0,0,0,.107.223.2.2,0,0,0,.182,0c.15-.075.259-.315.452-.178.107.075.141.255.2.364.506.008.986.015,1.466.028.026,0,.051.059.1.12-.225.035-.433.072-.641.1s-.432.049-.673.076c-.178.161-.171.5-.475.593a1.2,1.2,0,0,0-.628.41l.357.352c-.019.13-.04.282-.068.481.078.042.17.092.262.143.246.139.293.238.2.483-.072.189-.159.372-.25.583l-.515.1.225.49c-.175.45-.586.294-.913.446a1.483,1.483,0,0,0-.133.932c.1.289.012.346-.355.35-.043,0-.085.014-.057.009l-.636.619c.086.114.18.233.269.356a.34.34,0,0,1-.191.572,1.046,1.046,0,0,1-.646,0,.92.92,0,0,0-.938.047.447.447,0,0,1-.549-.067,1.6,1.6,0,0,0-.929-.485c0-.08.006-.167.015-.253.043-.384-.032-.48-.407-.5-.109-.007-.219,0-.328-.008a2.658,2.658,0,0,1-.272-.054l-.261.359c.052.277.278.309.435.42.11.078.233.151.215.311-.02.192-.173.243-.326.287a.944.944,0,0,1-.65,0,.474.474,0,0,0-.543.137c-.128.124-.257.246-.382.374-.17.173-.337.35-.506.526l-.515-.383c.036-.076.072-.154.117-.25-.063-.033-.119-.09-.169-.086a1.777,1.777,0,0,0-1.268.482c-.074.083-.228.09-.333.128-.1-.144,0-.19.047-.255.226-.287.186-.409-.146-.525a1.218,1.218,0,0,0-.911.02,1.654,1.654,0,0,0-1.2-.507.488.488,0,0,1-.339-.179.148.148,0,0,0-.232.02.215.215,0,0,0,0,.3,1.1,1.1,0,0,0,.215.153c.087.057.177.109.272.167-.169.263-.392.054-.586.147v.477a1.421,1.421,0,0,1-.259-.118.442.442,0,0,0-.425-.122.5.5,0,0,1-.5-.11c-.067-.055-.166-.146-.224-.128-.409.125-.634-.254-.96-.346Zm11.431-3.163a1.4,1.4,0,0,1,.346.078.274.274,0,0,1,.13.2.3.3,0,0,1-.146.191.912.912,0,0,1-.254.063c-.385.093-.771.184-1.155.281a.285.285,0,0,0-.244.278.33.33,0,0,0,.2.318,1.386,1.386,0,0,0,.254.063,4.161,4.161,0,0,0,1.181,0,1.252,1.252,0,0,0,.863-.4c.425-.4.855-.87,1.535-.776.029,0,.066-.05.129-.1l-.164-.567c-.2.046-.369.09-.54.12a.187.187,0,0,1-.248-.175l.363-.324c-.4-.524-.632-.558-1.016-.18a1.053,1.053,0,0,1-1.237.408Zm5.96-10.914c-.327.21-.694.281-.9.594.073.3.4.186.538.4-.029.144-.063.307-.1.5a4.862,4.862,0,0,1,.814-.071,1.363,1.363,0,0,0,1.05-.457c.05-.047.046-.158.065-.233-.163-.084-.359-.118-.416-.228a5,5,0,0,0-.454-.567,5.124,5.124,0,0,1-.324-.627c-.288.194-.288.194-.271.688M3.568,21.4a2.34,2.34,0,0,1,.6.127,2.676,2.676,0,0,1,.482.407c.3-.238.29-.237.257-.48A1.689,1.689,0,0,1,4.9,20.382a.473.473,0,0,0-.523-.078c-.146.059-.128.219-.185.335a.394.394,0,0,1-.228.2c-.263.056-.359.227-.394.566M1.612,16.631c.006.03.012.06.018.09a.607.607,0,0,1-.2.1c-.173.012-.35-.008-.524,0a.263.263,0,0,0-.255.258c0,.141.111.168.221.2.6.162,1.024-.216,1.543-.477-.259-.3-.494-.516-.866-.453a.751.751,0,0,1-.507-.082.633.633,0,0,0-.249-.072.23.23,0,0,0-.25.172c-.036.1.049.211.182.224s.263.006.394.013c.165.008.329.022.494.033m22.731,5.061c.024-.271-.01-.328-.133-.331a.685.685,0,0,0-.653.381.434.434,0,0,0-.015.312c.02.059.137.107.214.115a4.171,4.171,0,0,1,.59.018,2.365,2.365,0,0,1,.508.248c.208-.541.179-.585-.511-.743M26.755,15.7c-.091-.289-.239-.465-.445-.4a1.193,1.193,0,0,1-.636-.02.272.272,0,0,0-.294.346,1.522,1.522,0,0,0,.138.31l1.237-.231M.9,18.109a.893.893,0,0,0,.75.557,2.753,2.753,0,0,1,.9.194c.1.037.22-.007.2-.247-.6-.093-1.155-.428-1.772-.572-.012,0-.032.028-.076.068m15.585,7.239a.82.82,0,0,0-.989-.053.345.345,0,0,0-.136.269.37.37,0,0,0,.214.216.47.47,0,0,0,.5-.072c.135-.11.263-.228.414-.36m9.6-7.58c.2.011.321-.053.37-.2a.3.3,0,0,0-.366-.391c-.272.044-.437.158-.454.311s.151.261.45.279m-1.936-7.644c-.048.056-.117.1-.124.153a1.044,1.044,0,0,0,0,.389.259.259,0,0,0,.281.224c.135-.015.2-.194.145-.381a1.214,1.214,0,0,0-.133-.3c-.028-.044-.107-.054-.173-.083M1.83,20.133c.035-.175-.063-.168-.146-.193a1.159,1.159,0,0,1-.228-.1c-.07-.038-.134-.086-.2-.128a.385.385,0,0,0-.1.5c.1.163.269.093.41.044a2.572,2.572,0,0,0,.263-.12m1.813-4.118L3.35,15.6l-.392.45a.582.582,0,0,0,.685-.038m8.489-8.066c-.228-.012-.4.124-.359.257a.273.273,0,0,0,.189.149.224.224,0,0,0,.27-.224c0-.07-.073-.137-.1-.181m-9.7,12.358c.12.12.181.229.263.247a.5.5,0,0,0,.3-.076c.042-.022.087-.137.067-.165-.042-.063-.127-.137-.189-.133a2.255,2.255,0,0,0-.438.126m0-8.216-.142-.01a2.285,2.285,0,0,0-.1.433c0,.054.1.156.159.163s.167-.094.166-.145a2.454,2.454,0,0,0-.081-.441M9.145,24.784c-.016-.04-.022-.094-.05-.115a.283.283,0,0,0-.432.22.132.132,0,0,0,.063.1.337.337,0,0,0,.42-.21m7.329,1.221a.384.384,0,0,0,.526.037.18.18,0,0,0,.052-.163.187.187,0,0,0-.137-.107.485.485,0,0,0-.441.233m-7.082-.067a.776.776,0,0,0-.554.031c-.029.009-.035.1-.051.158a1.434,1.434,0,0,0,.364.073c.126-.006.26-.057.241-.262m18.418-8.3c-.343-.041-.343-.041-.472.368a.465.465,0,0,0,.472-.368m1.4-4.607c.02-.2-.184-.372-.337-.3a.19.19,0,0,0-.069.162.253.253,0,0,0,.272.224c.05,0,.1-.063.133-.088M11.662,4.368c.408.085.408.085.663-.2a.67.67,0,0,0-.663.2m14.389,8.6a.556.556,0,0,0,.48.184c.083,0,.175-.022.156-.171a.94.94,0,0,0-.636-.013m-22.619.582a2.147,2.147,0,0,0,.212-.367c.01-.03-.1-.143-.162-.15a.219.219,0,0,0-.214.268c.014.071.083.131.163.249m19.507,8.377a.965.965,0,0,0,.133-.066.065.065,0,0,0,.01-.062.732.732,0,0,0-.155-.2c-.034-.024-.114.007-.164.03-.013.007-.011.091.009.12a1.707,1.707,0,0,0,.167.173M4.423,18.632a1.185,1.185,0,0,0-.3-.115.171.171,0,0,0-.165.225c.024.046.109.1.145.089a1.844,1.844,0,0,0,.316-.2m-2.249-.7c-.079-.082-.124-.156-.187-.186a.177.177,0,0,0-.163.05c-.061.076.028.215.15.224.05,0,.1-.043.2-.088m5.1-8.279c-.082-.063-.126-.125-.171-.126a.13.13,0,0,0-.137.167c.012.05.1.127.119.117a.773.773,0,0,0,.189-.159m20.087,5.563c-.013-.016-.024-.048-.038-.049a1.547,1.547,0,0,0-.246,0,.316.316,0,0,0-.015.106,1.065,1.065,0,0,0,.241.041c.019,0,.039-.063.058-.1M12.1,7.2c-.078-.083-.115-.156-.155-.159a.182.182,0,0,0-.147.086.213.213,0,0,0,.046.151A1.423,1.423,0,0,0,12.1,7.2M1.95,13.742c-.209-.033-.209-.033-.466.137.216-.054.369.046.466-.137M6.57,23.954a.651.651,0,0,0-.189-.048c-.027,0-.075.081-.067.093.029.045.081.108.119.1s.074-.076.137-.149m9.975.271c.145.092.281.144.385-.011a1.721,1.721,0,0,0-.2-.021,1.376,1.376,0,0,0-.188.033M15.641,9.8c-.085-.025-.141-.058-.156-.043a1.444,1.444,0,0,0-.147.18c.037.013.089.05.109.037a1.51,1.51,0,0,0,.194-.173m9.108,10.17a.663.663,0,0,0-.167-.062c-.022,0-.05.054-.075.085a.719.719,0,0,0,.151.081c.016,0,.049-.055.091-.1M16.9,9.289c.052-.089.111-.148.1-.179a.168.168,0,0,0-.133-.089c-.047,0-.091.062-.137.1l.171.172M7.368,13.558a1.505,1.505,0,0,0-.147.192c-.012.022.019.069.03.1a1.459,1.459,0,0,0,.171-.145c.011-.013-.023-.069-.054-.152M6.9,20.485c-.03-.053-.055-.121-.069-.119a.753.753,0,0,0-.162.064c.025.048.051.1.077.144l.154-.089m12.577,6.339c-.027-.032-.049-.08-.081-.089s-.067.031-.1.049l.1.13c.026-.03.052-.06.079-.089m2.172-.533a.9.9,0,0,0-.066.092s.032.041.042.038a.59.59,0,0,0,.1-.049l-.076-.081M13.6,25.221c-.028-.051-.041-.109-.066-.115a.608.608,0,0,0-.172,0c.02.046.03.121.062.133.048.017.111-.011.176-.02M11.571,3.763l-.077.075c.017.013.043.041.049.037a.585.585,0,0,0,.079-.071l-.05-.041M25.407,10.27l.039-.1a.51.51,0,0,0-.106,0c-.011,0-.017.033-.026.051l.093.046M8.213,25.844c.021-.029.041-.059.062-.089a.5.5,0,0,0-.09-.041c-.007,0-.036.037-.032.046a.464.464,0,0,0,.06.084m1.993-.989-.1-.023a.845.845,0,0,0,0,.1s.043.015.05.007a.509.509,0,0,0,.054-.085m7.971-1.377a.42.42,0,0,0-.015-.067c-.059,0-.12.009-.179.014,0,.018.007.051.011.051.059,0,.119,0,.182,0M24.869,14.6c0-.02.01-.041.014-.061a1,1,0,0,0-.109-.024l-.014.059.109.026M5.3,14.709a.536.536,0,0,0-.037-.1c0-.01-.054-.007-.055,0a.631.631,0,0,0-.016.1Zm7.839-4.745c.007-.02.023-.043.017-.059s-.033-.022-.05-.033c-.008.032-.017.063-.025.1l.059,0m9.552,11.085c-.015-.007-.033-.024-.046-.02s-.015.028-.023.044c.015.007.034.024.046.02s.015-.028.023-.044M10.334,12.272c.008-.017.026-.038.021-.052s-.032-.017-.049-.025c-.007.018-.025.039-.02.052s.031.017.048.025M5.3,24.369c.008-.018.026-.039.021-.052s-.032-.018-.05-.026c-.007.017-.025.039-.02.052s.032.018.049.026M16.09,23.7c.007.015.016.041.024.041a.9.9,0,0,0,.1-.018c-.007-.015-.016-.041-.024-.041a.751.751,0,0,0-.1.018M5.71,11.578c.006-.017.02-.037.016-.05s-.028-.018-.043-.027l-.024.082.051,0m-1.755-.283a.763.763,0,0,0-.108-.029c-.007,0-.031.044-.027.05a.61.61,0,0,0,.08.072l.055-.093M10.7,3.227l-.024.05c.017.008.037.025.049.021a.051.051,0,0,0,.021-.047c0-.012-.03-.016-.046-.024m17.133,7.322c-.013-.034-.019-.089-.041-.1s-.071.016-.107.027c.013.034.018.089.039.1s.072-.015.108-.025M26.905,17.5l-.048.017c.006.017.007.041.019.047s.031-.009.046-.015l-.017-.049m-5.966,4.48L20.89,22c.006.017.008.043.02.048s.032-.01.048-.015c-.006-.017-.012-.034-.018-.05M4.549,16.531c-.017.009-.046.017-.047.029s.013.038.021.058l.072-.045-.046-.042m.517-5.65-.051-.008.014.049Zm9.626-1.108-.025-.037-.021.042Zm-9.687-.82.048.026c.009-.016.026-.036.022-.049a.049.049,0,0,0-.045-.023c-.011,0-.017.029-.025.046m20.645-.538.05.008-.014-.047Zm-2.3,16.951c.018,0,.038.009.051,0s0-.031.006-.047c-.017,0-.037-.008-.05,0s0,.031-.007.047m-13.308.855L10,26.25l.046.023Zm-4.13-2.854-.008.05.044-.014ZM19.175,7.505c.019-.011.045-.016.053-.032s-.007-.039-.011-.059l-.085.052c.015.012.028.025.043.039M2.325,19.653c0-.017,0-.043-.01-.051s-.037,0-.055,0l.015.08.05-.024m.686-3.063.022-.042c-.014-.007-.031-.022-.041-.018s-.015.025-.022.04l.041.02m26.2-.112-.068-.025.015.045.054-.02m1.955-2.772-.081-.026.018.052.063-.026M5.673,9.836l0,.041.041-.016ZM6.1,17.07l0-.041-.042.018Zm8.342-6.378,0-.041-.04.017Z" transform="translate(0 -0.508)" fill="#91b508"/>
        <path id="Path_6853" data-name="Path 6853" d="M22.481,35.275l.228-.429c-.128-.2-.281-.132-.426-.089-.178.053-.324.252-.563.125a.514.514,0,0,1,.337-.446,1.679,1.679,0,0,0,.755-.718.326.326,0,0,1,.508-.118.6.6,0,0,1,.1.083.553.553,0,0,0,.78.034.586.586,0,0,1,.68-.053.366.366,0,0,1,.167.256.4.4,0,0,1-.147.275.821.821,0,0,1-.306.11,1.348,1.348,0,0,0-.946.664.581.581,0,0,1-.54.324c-.192.006-.381.122-.632-.018" transform="translate(-4.061 -6.268)" fill="#91b508"/>
        <path id="Path_6854" data-name="Path 6854" d="M23.039,3.119c.315.242.694.337.876.746-.211.046-.381.07-.543.119-.715.217-.715.22-1.421-.151-.045-.216.13-.263.26-.323s.3-.085.436-.146a3.628,3.628,0,0,0,.393-.246" transform="translate(-4.102 -0.583)" fill="#91b508"/>
        <path id="Path_6855" data-name="Path 6855" d="M31.7,32.165a.431.431,0,0,1-.257.436.887.887,0,0,1-.642.077.2.2,0,0,1-.121-.312,6.547,6.547,0,0,1,.462-.572.359.359,0,0,1,.286-.1.436.436,0,0,1,.231.2.733.733,0,0,1,.041.264" transform="translate(-5.728 -5.925)" fill="#91b508"/>
        <path id="Path_6856" data-name="Path 6856" d="M30.185,34.394a1.825,1.825,0,0,1-1.033.012c-.054-.015-.133-.086-.131-.13a.3.3,0,0,1,.092-.221,2.541,2.541,0,0,1,1.081-.322.82.82,0,0,1-.008.661" transform="translate(-5.426 -6.307)" fill="#91b508"/>
        <path id="Path_6857" data-name="Path 6857" d="M21.312,5.658a.532.532,0,0,1,.208-.527,3.726,3.726,0,0,1,.717-.282c.04-.013.125.046.154.094a.229.229,0,0,1,.007.186.652.652,0,0,1-.481.4c-.2.034-.4.085-.6.128" transform="translate(-3.984 -0.906)" fill="#91b508"/>
        <path id="Path_6858" data-name="Path 6858" d="M18.128,33.64c.08.272.14.475.2.694-.081.1-.183.034-.263-.033-.152-.128-.29-.272-.423-.4-.286-.069-.6.071-.855-.211.146-.12.289.015.419-.011a2.8,2.8,0,0,1,.455-.07,4.119,4.119,0,0,1,.462.031" transform="translate(-3.139 -6.283)" fill="#91b508"/>
        <path id="Path_6859" data-name="Path 6859" d="M12.41,32.821a.76.76,0,0,1-.841.137,2.554,2.554,0,0,0-.662-.126c.392-.259.73-.253,1.513,0l-.011-.009" transform="translate(-2.039 -6.102)" fill="#91b508"/>
        <path id="Path_6860" data-name="Path 6860" d="M32.5,30.347c-.136-.067-.234-.108-.324-.163a.177.177,0,0,1,.009-.28.8.8,0,0,1,.624-.066.2.2,0,0,1,.063.321,2.215,2.215,0,0,1-.372.188" transform="translate(-6.003 -5.572)" fill="#91b508"/>
        <path id="Path_6861" data-name="Path 6861" d="M19.135,35.8a.181.181,0,0,1,.233-.167c.246.06.485.151.776.246-.357.144-.389.141-1.008-.079" transform="translate(-3.577 -6.66)" fill="#91b508"/>
        <path id="Path_6862" data-name="Path 6862" d="M5.121,32.341l.372-.57c.084.084.16.129.186.2a.339.339,0,0,1,.011.253c-.112.182-.272.277-.569.122" transform="translate(-0.957 -5.94)" fill="#91b508"/>
        <path id="Path_6863" data-name="Path 6863" d="M9.355,33.955a.965.965,0,0,1-.792.288c.277-.258.47-.449.792-.288" transform="translate(-1.601 -6.337)" fill="#91b508"/>
        <path id="Path_6864" data-name="Path 6864" d="M39.822,20.476c-.066.254-.185.422.01.572.006,0-.044.128-.087.144a.185.185,0,0,1-.173-.04c-.172-.234-.11-.434.25-.676" transform="translate(-7.381 -3.828)" fill="#91b508"/>
        <path id="Path_6865" data-name="Path 6865" d="M38.7,22.152a1.222,1.222,0,0,1-.157-.063.141.141,0,0,1,.007-.228.585.585,0,0,1,.183-.064c.11-.011.228-.011.263.132.027.113-.109.22-.3.223" transform="translate(-7.196 -4.075)" fill="#91b508"/>
        <path id="Path_6866" data-name="Path 6866" d="M20.459,9.283c.15-.088.29-.207.481-.154a.135.135,0,0,1,.081.085.143.143,0,0,1-.037.114c-.191.172-.356.1-.511-.063l-.014.018" transform="translate(-3.825 -1.705)" fill="#91b508"/>
        <path id="Path_6867" data-name="Path 6867" d="M21.034,37.655c-.254.089-.391,0-.587-.2a.569.569,0,0,1,.587.2" transform="translate(-3.823 -7.001)" fill="#91b508"/>
        <path id="Path_6868" data-name="Path 6868" d="M38.425,19.984h-.45c.212-.172.212-.172.45,0" transform="translate(-7.1 -3.712)" fill="#91b508"/>
        <path id="Path_6869" data-name="Path 6869" d="M17.647,7.746c-.086.076-.139.151-.169.142a.71.71,0,0,1-.191-.124c.039-.043.079-.123.117-.121a.823.823,0,0,1,.243.1" transform="translate(-3.232 -1.429)" fill="#91b508"/>
        <path id="Path_6870" data-name="Path 6870" d="M7.615,32.635c-.028-.085-.068-.147-.054-.19s.083-.065.128-.1c.024.052.074.108.067.154s-.076.076-.141.134" transform="translate(-1.413 -6.048)" fill="#91b508"/>
        <path id="Path_6871" data-name="Path 6871" d="M9.306,32.466c-.046-.037-.091-.054-.1-.085a.111.111,0,0,1,.142-.138c.029.013.071.072.063.09a.686.686,0,0,1-.1.133" transform="translate(-1.719 -6.027)" fill="#91b508"/>
        <path id="Path_6872" data-name="Path 6872" d="M26.318,36.012a.644.644,0,0,1-.17.018c-.02,0-.033-.061-.05-.094a.785.785,0,0,1,.163-.036c.015,0,.032.061.057.112" transform="translate(-4.879 -6.712)" fill="#91b508"/>
        <path id="Path_6873" data-name="Path 6873" d="M22.621,38.5c-.176.028-.239.055-.289.04s-.076-.076-.114-.117c.036-.016.076-.053.107-.046a2.14,2.14,0,0,1,.3.123" transform="translate(-4.154 -7.174)" fill="#91b508"/>
        <path id="Path_6874" data-name="Path 6874" d="M7.178,33.407c.043.051.08.1.117.139-.03.025-.064.073-.089.068a.135.135,0,0,1-.089-.082c-.008-.026.03-.067.061-.125" transform="translate(-1.33 -6.246)" fill="#91b508"/>
        <path id="Path_6875" data-name="Path 6875" d="M35.169,24.764c-.01.019-.024.054-.028.053a.793.793,0,0,1-.1-.043c.01-.019.024-.054.028-.053a.9.9,0,0,1,.1.043" transform="translate(-6.551 -4.622)" fill="#91b508"/>
        <path id="Path_6876" data-name="Path 6876" d="M32.88,33.1l-.054.086a.6.6,0,0,1-.074-.069c0-.006.019-.047.026-.046a.683.683,0,0,1,.1.029" transform="translate(-6.123 -6.183)" fill="#91b508"/>
        <path id="Path_6877" data-name="Path 6877" d="M16.046,2.724c-.065.009-.126.032-.137.016a.684.684,0,0,1-.064-.156c.037-.006.09-.029.107-.013a.7.7,0,0,1,.094.153" transform="translate(-2.962 -0.48)" fill="#91b508"/>
        <path id="Path_6878" data-name="Path 6878" d="M24.861,5.084a.589.589,0,0,1-.1.036s-.016-.036-.025-.054a.773.773,0,0,1,.1-.036s.016.036.025.054" transform="translate(-4.624 -0.941)" fill="#91b508"/>
        <path id="Path_6879" data-name="Path 6879" d="M18.608,4.844l.053.093c-.019.008-.05.028-.052.024a.709.709,0,0,1-.054-.089l.054-.027" transform="translate(-3.469 -0.906)" fill="#91b508"/>
        <path id="Path_6880" data-name="Path 6880" d="M19.1,3.346l.05.086c-.016.009-.046.028-.049.024a.735.735,0,0,1-.052-.085Z" transform="translate(-3.561 -0.626)" fill="#91b508"/>
        <path id="Path_6881" data-name="Path 6881" d="M34.252,23.44l.109-.049a.555.555,0,0,1,.02.107c0,.009-.045.032-.053.026a.584.584,0,0,1-.076-.085" transform="translate(-6.404 -4.373)" fill="#91b508"/>
        <path id="Path_6882" data-name="Path 6882" d="M33.383,32.321l0-.055.046.023Z" transform="translate(-6.24 -6.032)" fill="#91b508"/>
        <path id="Path_6883" data-name="Path 6883" d="M26.03,37.291c-.006.019-.006.049-.017.054s-.038-.007-.058-.011l.028-.085.047.041" transform="translate(-4.852 -6.964)" fill="#91b508"/>
        <path id="Path_6884" data-name="Path 6884" d="M24.438,36.6l.02.054c-.018.007-.04.023-.052.017s-.014-.034-.02-.052l.053-.02" transform="translate(-4.559 -6.843)" fill="#91b508"/>
        <path id="Path_6885" data-name="Path 6885" d="M28.838,36.089l-.091-.045c.015-.011.033-.036.043-.033a.523.523,0,0,1,.092.043l-.044.034" transform="translate(-5.374 -6.733)" fill="#91b508"/>
        <path id="Path_6886" data-name="Path 6886" d="M39.557,19.271c.007-.016.012-.041.024-.046s.03.012.046.02c-.007.015-.012.041-.024.046s-.03-.012-.046-.02" transform="translate(-7.395 -3.595)" fill="#91b508"/>
        <path id="Path_6887" data-name="Path 6887" d="M20.707,3.408l-.054,0,.022-.047Z" transform="translate(-3.861 -0.629)" fill="#91b508"/>
        <path id="Path_6888" data-name="Path 6888" d="M14.489,2.084l-.038-.034.046-.017Z" transform="translate(-2.702 -0.38)" fill="#91b508"/>
        <path id="Path_6889" data-name="Path 6889" d="M20.85,0l.02.057-.046.016C20.833.051,20.84.03,20.85,0" transform="translate(-3.893 0)" fill="#91b508"/>
        <path id="Path_6890" data-name="Path 6890" d="M17.565,5.754l0-.05.042.021Z" transform="translate(-3.283 -1.067)" fill="#91b508"/>
        <path id="Path_6891" data-name="Path 6891" d="M25.879,4.518c.015.007.038.011.042.023s-.011.029-.019.045c-.015-.007-.039-.011-.042-.022s.011-.03.019-.046" transform="translate(-4.834 -0.845)" fill="#91b508"/>
        <path id="Path_6892" data-name="Path 6892" d="M9.787,33.027l-.041-.02c.007-.015.011-.036.024-.041s.027.011.041.018Z" transform="translate(-1.822 -6.163)" fill="#91b508"/>
        <path id="Path_6893" data-name="Path 6893" d="M19.693,5.023l-.032.033-.01-.041Z" transform="translate(-3.674 -0.938)" fill="#91b508"/>
      </g>
    </g>
    <g id="Group_100" data-name="Group 100" transform="translate(305 519.528)">
      <g id="Group_99" data-name="Group 99" transform="translate(0 0)" clip-path="url(#clip-path-2)">
        <path id="Path_598" data-name="Path 598" d="M31.355,2.472c.213-.125.2-.384.316-.556a.712.712,0,0,1,.542.008c.393.155.789.3,1.193.426.272.082.332.337.516.533a1.716,1.716,0,0,0,.27.015,1.039,1.039,0,0,0,.223-.07c.024.029.062.055.068.088.072.384.381.5.692.566a.491.491,0,0,1,.346.186.924.924,0,0,0,.527.383c.064.017.161.113.155.16-.037.266.177.337.325.457.324.263.655.519.979.782.021.017.01.074.014.112a1.245,1.245,0,0,0-.757.351,1.417,1.417,0,0,1,.5.165,1.477,1.477,0,0,1,.244.46c.152-.012.166-.109.112-.207-.164-.3,0-.443.231-.559.269.119.115.309.1.5a1.308,1.308,0,0,1,.277.167.748.748,0,0,1,.146.262.522.522,0,0,0,.323.28c.095.044.124.24.173.371a1.061,1.061,0,0,1,.094.342A4.159,4.159,0,0,0,39.247,8.8a.547.547,0,0,0,.089.157c.2.281.4.283.677.011a.457.457,0,0,1,.119-.057.385.385,0,0,1,.235.477,4.427,4.427,0,0,1-.41,1.27.967.967,0,0,0,.955-.179,2.158,2.158,0,0,1,.087.366.215.215,0,0,1-.226.233c-.18.01-.36,0-.567,0-.132.174-.039.365,0,.581l.613.24-.01-.015c-.406.523-.415.627-.111,1.25a.483.483,0,0,1,.023.115l-.313.151c.141.182.141.182.433.266a.336.336,0,0,1-.154.46c-.169.107-.335.219-.519.34.026.344-.127.689.163.969a3.48,3.48,0,0,0-.323.46,2.253,2.253,0,0,0-.119.455l-.245.079c-.007.115-.015.231-.024.375a2.689,2.689,0,0,0-.281.091c-.087.039-.216.078-.24.147-.082.236-.282.082-.408.15-.01.039-.035.081-.026.113a.428.428,0,0,1-.246.55,1.807,1.807,0,0,0-.285.249l.343.28c-.011.039-.01.088-.034.112a7.76,7.76,0,0,1-1.056,1.06.466.466,0,0,0-.123.265.866.866,0,0,1-.5.641.658.658,0,0,0-.379.373c-.013.037-.038.086-.069.1-.439.148-.568.612-.895.875a.681.681,0,0,0-.2.3,1.416,1.416,0,0,1-.751.825c-.3.151-.5.5-.886.408a3,3,0,0,0-.1.291.568.568,0,0,1-.55.478c-.1.012-.2.028-.3.046a.391.391,0,0,0-.33.314,1.541,1.541,0,0,0-.034.179.621.621,0,0,1-.534.577c-.076.016-.18.044-.211.1-.242.425-.657.7-.934,1.093a9.046,9.046,0,0,1-.657.793,1.52,1.52,0,0,1-.288.217,3.266,3.266,0,0,0-.907.787.894.894,0,0,1-.4.259,3.67,3.67,0,0,1-.522.135c-.01.141-.019.27-.029.426l-.463-.1-.42.341-.477-.051a.49.49,0,0,0,.017.129c.114.231.113.294-.01.418a2.045,2.045,0,0,1-.9.479,2.345,2.345,0,0,0-1,.531c-.336.312-.744.545-1.107.83a2.906,2.906,0,0,0-.792.827.5.5,0,0,1-.547.284.672.672,0,0,0-.681.3,1.1,1.1,0,0,1-.114.142c-.359.366-.592.337-.841-.106-.04-.071-.08-.141-.115-.214a.421.421,0,0,0-.432-.272.945.945,0,0,1-.606-.221,8.2,8.2,0,0,0-1.923-1.006A5.793,5.793,0,0,0,16,30.629a.719.719,0,0,1-.22-.2.46.46,0,0,0-.42-.194.464.464,0,0,1-.386-.138,3.885,3.885,0,0,0-1.179-.606,4.352,4.352,0,0,1-.423-.22c-.052-.029-.095-.1-.144-.106-.622-.026-1-.577-1.569-.73a2.771,2.771,0,0,1-.807-.526,2.79,2.79,0,0,0-.792-.431.9.9,0,0,1-.432-.311,7.986,7.986,0,0,0-1.012-1.2,1.016,1.016,0,0,1-.133-.227l-.525-.1-.217-.535a1.625,1.625,0,0,1-.335-.06c-.321-.125-.638-.259-.753-.637a.4.4,0,0,0-.443-.323,2.051,2.051,0,0,1-.889-.346c-.086-.038-.133-.191-.174-.3-.055-.148-.077-.308-.129-.458a.442.442,0,0,0-.283-.3.428.428,0,0,1-.3-.618c.011-.033-.012-.076-.025-.143l-.58-.18c.023-.191.044-.365.068-.562a.769.769,0,0,0-.522-.348.609.609,0,0,1-.5-.611,1.014,1.014,0,0,0-.232-.608.814.814,0,0,1-.116-.329c-.053-.235-.085-.475-.144-.709a.8.8,0,0,0-.142-.257c-.176-.245-.354-.49-.54-.727s-.382-.465-.581-.706l.2-.565c-.071-.041-.149-.094-.232-.135A.588.588,0,0,1,.77,15.7a2.733,2.733,0,0,1,0-.78.846.846,0,0,0-.12-.743.617.617,0,0,1-.112-.394A.508.508,0,0,0,.3,13.263.721.721,0,0,1,.18,13.1a2.186,2.186,0,0,1,.087-.273.555.555,0,0,0-.026-.574,1.127,1.127,0,0,1-.125-.932.525.525,0,0,0-.036-.459.6.6,0,0,1-.012-.577c.262-.678.507-1.362.755-2.045.055-.151.09-.31.145-.461a.893.893,0,0,1,.151-.321,1.345,1.345,0,0,0,.361-1.25.666.666,0,0,0,.444-.362c.249-.391.518-.77.781-1.152.08-.116.212-.216.244-.342.1-.416.44-.607.735-.846.234-.19.453-.4.68-.6.045-.039.1-.11.14-.1.338.048.42-.244.594-.421a1.679,1.679,0,0,1,.678-.494.751.751,0,0,0,.549-.515A1.787,1.787,0,0,1,6.6.963l.475.29.8-.723,1.2-.138c-.148-.059-.2-.074-.243-.1a.463.463,0,0,1-.08-.072C8.814.071,8.954.114,9.063.1a3.544,3.544,0,0,1,1.965.084c.037.015.085.043.113.032.333-.135.579.1.851.2a1.424,1.424,0,0,0,.516.152.585.585,0,0,1,.29.075,1.008,1.008,0,0,0,.728.206c.172-.03.375.1.561.168a13.368,13.368,0,0,1,1.663.659c.035.018.088.047.091.075.029.342.329.28.532.371a1.619,1.619,0,0,1,.922.642c.062.117.263.16.436.257.019.1.044.236.069.372.037.011.084.041.109.029a.645.645,0,0,1,.894.242c.107.148.211.24.4.182.018-.005.053,0,.057,0,.123.291.521.316.613.635s.362.4.657.424c.367.027.367.027.488.379a1.307,1.307,0,0,0,.059.171.332.332,0,0,0,.514.114,2.724,2.724,0,0,0,.249-.261c.113-.114.209-.272.347-.329.288-.119.489-.273.482-.61.235-.4.512-.736,1.047-.688a3.349,3.349,0,0,1,1.5-1.189c.524-.211,1.049-.416,1.578-.613a.586.586,0,0,1,.293-.01,3.235,3.235,0,0,0,1.319-.06c.234-.054.476-.075.713-.115a.888.888,0,0,0,.29-.072.872.872,0,0,1,.726-.016l.248.54.646-.3c.186.077.152.212.161.328s.031.242.176.283c0,.038.006.074.01.11l-.019-.1m-.824,21.236a2.811,2.811,0,0,0,.331-.26,6.8,6.8,0,0,0,.68-.761c.208-.3.645-.371.724-.783.007-.039.1-.057.148-.094a1.657,1.657,0,0,0,.322-.27c.449-.593.956-1.142,1.347-1.778a1.283,1.283,0,0,1,.238-.261c.221-.2.448-.4.681-.6l-.2-.4a3.979,3.979,0,0,1,.528-.819.755.755,0,0,0,.269-.7.68.68,0,0,1,.011-.3A5.155,5.155,0,0,0,35.7,14.52a.758.758,0,0,1,0-.3,2.289,2.289,0,0,0-.079-1.2.563.563,0,0,1,.017-.4.974.974,0,0,0,.02-.869,2.753,2.753,0,0,1-.085-1.521c-.357-.123-.466-.441-.532-.79-.026-.138-.1-.269-.114-.407a1.224,1.224,0,0,0-.268-.653,2.582,2.582,0,0,1-.476-.255,5.054,5.054,0,0,1-.541-.568,2.026,2.026,0,0,0-.841-.665c-.224-.084-.417-.264-.645-.324a2.629,2.629,0,0,1-.846-.31.337.337,0,0,0-.23-.05,2.4,2.4,0,0,1-.958-.1,2.293,2.293,0,0,0-1.427.111c-.386.173-.777.338-1.168.5-.147.061-.319.171-.451.138a1.951,1.951,0,0,0-.647.06.391.391,0,0,0-.409.362c-.028.154-.008.332-.208.424-.035-.042-.068-.086-.107-.126s-.077-.072-.121-.112c-.265.249-.136.706-.507.864l-.256-.122c-.281.227-.547.441-.809.658a.413.413,0,0,0-.113.14.811.811,0,0,1-.445.47.369.369,0,0,0-.147.18,1.537,1.537,0,0,1-1.018.876.79.79,0,0,0-.639.723c0,.035-.035.068-.054.1l-.477.183-.234-.149a1.926,1.926,0,0,1-.282.465,2.666,2.666,0,0,1-.542.3.682.682,0,0,0-.593-.135.687.687,0,0,1-.567-.162,3.186,3.186,0,0,0-.3-.2c-.389-.231-.389-.23-.274-.659.02-.075.028-.152.043-.237a4.683,4.683,0,0,1-.661-.447,1.531,1.531,0,0,0-.954-.526c-.042-.068-.076-.1-.082-.137a1.043,1.043,0,0,0-.585-.8,1.1,1.1,0,0,1-.256-.239c-.082-.085-.153-.182-.235-.267a3.912,3.912,0,0,1-.419-.43A3.908,3.908,0,0,0,14.236,7a2.108,2.108,0,0,1-.756-.985,7.065,7.065,0,0,0-.544-1.076.518.518,0,0,0-.321-.244.626.626,0,0,1-.444-.272,3.719,3.719,0,0,0-.376-.387.352.352,0,0,0-.386-.111,2.41,2.41,0,0,1-1.078.051c-.261,0-.523-.01-.783.011-.28.024-.558.072-.835.123a1.066,1.066,0,0,0-.276.109c-.215.108-.421.239-.643.33A3.19,3.19,0,0,0,6.569,5.5,3.5,3.5,0,0,1,5.4,6.595c-.017.007-.026.03-.064.076-.015.145-.033.322-.05.49a1.322,1.322,0,0,0-.943.868c-.078.186-.124.387-.214.566a2.085,2.085,0,0,0-.067,1.476c.138.067.268.12.387.192a.194.194,0,0,1,.071.151.185.185,0,0,1-.089.141c-.193.057-.394.087-.587.144-.06.018-.1.087-.188.16l.712.414a.318.318,0,0,1,.154.455.466.466,0,0,1-.29.288.33.33,0,0,1-.339-.06c-.035-.025-.1-.009-.148-.011-.082.373-.035.458.244.469.119,0,.238,0,.327,0l.491.566a.329.329,0,0,1,.071.389.5.5,0,0,0-.035.174c-.007.094.094.124.205.066.031-.016.064-.027.133-.054a6.336,6.336,0,0,1-.1.783c-.062.242.014.357.263.442.11.037.169.077.19.193.032.173.081.344.121.513l-.246.355c.138.134.235.312.365.34.456.1.49.46.485.788a1.307,1.307,0,0,0,.085.52,1.175,1.175,0,0,1,.125.881c.081,0,.157.006.232,0,.3-.029.452.242.694.329.1.362.453.5.663.768.021.027.017.072.025.109l-.21.059c.04.332.289.2.468.224a.906.906,0,0,1,.3.562c0,.215.135.333.326.46a1.376,1.376,0,0,0,.865.31l.143.365c.1-.023.172-.048.25-.058a.244.244,0,0,1,.3.154c.068.264.271.375.467.524s.316.357.588.381a.288.288,0,0,1,.174.154,1.432,1.432,0,0,0,.85.71c.021.124.046.222.054.321a.389.389,0,0,0,.338.373,1.111,1.111,0,0,0,.354.036.894.894,0,0,1,1.008.582,1.266,1.266,0,0,0,.155.224c.068.018.111.043.145.035a.756.756,0,0,1,.857.288.4.4,0,0,0,.137.116A12.032,12.032,0,0,1,17.206,26.5a.722.722,0,0,1,.262.317.575.575,0,0,0,.405.333,1.218,1.218,0,0,1,.581.3,2.707,2.707,0,0,0,.046.491,1.063,1.063,0,0,0,.2.288,1.107,1.107,0,0,0,.342.6c.12.116.205.022.253-.1a1.536,1.536,0,0,0,.935.886,6.519,6.519,0,0,1,.751.39c.1.054.213.1.341.16a1.26,1.26,0,0,1,.825-.337.99.99,0,0,0,.821-.536.692.692,0,0,1,.523-.433A1.315,1.315,0,0,0,24.1,28.5a2.244,2.244,0,0,1,1.179-.7.581.581,0,0,0,.375-.277,1.733,1.733,0,0,1,.848-.652,1.99,1.99,0,0,0,.8-.531,3.119,3.119,0,0,1,.862-.659.749.749,0,0,0,.5-.7l.3.09c.21-.351.633-.538.668-.981l.9-.4ZM36.217,4.873c-.033.045-.12.111-.134.191a.26.26,0,0,0,.229.3c.1,0,.186-.124.183-.269s-.1-.232-.278-.219M16.364,26.9c.061-.073.13-.127.121-.149a.74.74,0,0,0-.13-.165c-.044.049-.12.1-.123.148s.075.1.133.166M15.578,1.887l-.25-.172a.439.439,0,0,0-.064.144.122.122,0,0,0,.146.135c.045-.005.085-.052.168-.107M38.512,8.338a.655.655,0,0,0,.026-.162c0-.023-.048-.042-.074-.063a.614.614,0,0,0-.045.148c0,.019.048.041.093.077M39.84,9.7c.013-.057.043-.113.029-.157s-.078-.043-.12-.064a.667.667,0,0,0-.014.161c0,.02.056.034.1.06M17.491,27.842a1.409,1.409,0,0,0,.069-.207c0-.017-.047-.044-.072-.067a2.019,2.019,0,0,0-.116.18.934.934,0,0,0,.12.094m22.5-14.606a.656.656,0,0,0,.083.057s.038-.029.035-.039a.511.511,0,0,0-.043-.09l-.074.072M7.313,24.589a.519.519,0,0,0-.085-.05c-.01,0-.043.026-.042.028a1.013,1.013,0,0,0,.054.087l.073-.065M17.8,28.041a.874.874,0,0,0,.078.057s.033-.027.031-.034a.527.527,0,0,0-.044-.082l-.065.059M5.862,16.854c0-.016,0-.033,0-.049l-.073.027c.01.013.018.034.03.037s.031-.01.047-.015m27.331-13.9a.331.331,0,0,0-.008-.047c-.036,0-.072.006-.107.01a.253.253,0,0,0,.008.046c.036,0,.071-.005.107-.009m3.713,3.389-.059.071c.014.011.039.032.041.03a.762.762,0,0,0,.061-.069l-.043-.032m2.851,5.366c.009-.012.025-.024.025-.036s-.016-.024-.025-.036c-.009.012-.025.024-.025.036s.016.024.025.036m-1.921,1.677-.007.039.036-.016ZM3.329,12.216l.033,0-.013-.034Z" transform="translate(0 0)" fill="#161615"/>
        <path id="Path_599" data-name="Path 599" d="M127.94,27.122c-.082.025-.139.063-.185.053a.219.219,0,0,1-.182-.268.307.307,0,0,1,.142-.167c.021-.013.115.043.137.087a1.758,1.758,0,0,1,.089.3" transform="translate(-88.069 -18.459)" fill="#161615"/>
        <path id="Path_600" data-name="Path 600" d="M126.334,23.686c-.029-.086-.07-.145-.058-.189s.08-.062.124-.093c.024.05.071.1.065.149s-.07.074-.132.133" transform="translate(-87.176 -16.158)" fill="#161615"/>
        <path id="Path_601" data-name="Path 601" d="M127.243,25.462a.651.651,0,0,1,.075.049s-.014.029-.022.044a.643.643,0,0,1-.075-.049s.014-.029.021-.045" transform="translate(-87.83 -17.578)" fill="#161615"/>
        <path id="Path_602" data-name="Path 602" d="M131.807,37.884c.014-.085.028-.171.042-.256l.068.021c-.041.073-.082.145-.122.219l.011.016" transform="translate(-90.989 -25.977)" fill="#161615"/>
        <path id="Path_603" data-name="Path 603" d="M60.962,90.977c-.175-.2-.3-.473-.62-.494.085-.077.159-.185.259-.224a2.452,2.452,0,0,1,.519-.115.525.525,0,0,1,.473.3.26.26,0,0,1-.135.3c-.091.032-.2.02-.285.06a1.028,1.028,0,0,0-.212.177" transform="translate(-41.659 -62.232)" fill="#161615"/>
        <path id="Path_604" data-name="Path 604" d="M15.447,25.367l-.207.146c-.017-.033-.049-.067-.047-.1.007-.133.1-.223.176-.178.028.017.039.063.079.131" transform="translate(-10.489 -17.414)" fill="#161615"/>
        <path id="Path_605" data-name="Path 605" d="M60.843,89.354l-.106.053a1.153,1.153,0,0,1-.065-.146s.077-.047.083-.04a.874.874,0,0,1,.087.133" transform="translate(-41.886 -61.596)" fill="#161615"/>
        <path id="Path_606" data-name="Path 606" d="M17.464,45.007a.784.784,0,0,1-.079.047s-.031-.03-.027-.04a.473.473,0,0,1,.046-.079l.06.072" transform="translate(-11.984 -31.022)" fill="#161615"/>
        <path id="Path_607" data-name="Path 607" d="M98.558,76l-.028-.242c.114.081.041.167.025.249,0,0,0-.007,0-.007" transform="translate(-68.023 -52.3)" fill="#161615"/>
      </g>
    </g>
  </g>
</svg>
