<svg xmlns="http://www.w3.org/2000/svg" viewBox="0 0 316.4 13.35"><title>Asset 1line</title><g id="Layer_2" data-name="Layer 2"><g id="Layer_1-2" data-name="Layer 1"><path d="M224.69,5.12c.06-.22.21-.5-.08-.6a1.08,1.08,0,0,1-.72-.58.51.51,0,0,1,.43-.79c.32,0,.64.08,1,.09.58,0,1.16.25,1.75-.1.2-.11.59.12.88.18,0,.21,0,.34,0,.47s0,.18.05.37c.2,0,.46,0,.59-.09s.26-.6.68-.6a.43.43,0,0,0,.09-.28c-.43-.45,0-.74.2-1.16.83.25,1.32,1,2.06,1.32l.52,1.37a2.57,2.57,0,0,0,.61,0,.47.47,0,0,0,.21-.84c-.28-.22-.7-.28-.75-.74.13-.25.33-.13.46,0,.33.24.62.34,1,0a.86.86,0,0,1,.64,0,6.75,6.75,0,0,1,.9.36l.52-.21a.91.91,0,0,1,1,.11,5.91,5.91,0,0,0,.67.48.62.62,0,0,0,.77-.06.65.65,0,0,0,.19-.75c-.1-.3-.21-.59-.38-1.05l1,.37.32-.66.81.1c.2.42-.28.45-.31.71,0,.08,0,.21.08.24.64.34,1.3.66,1.92,1,.54-.18.9-.67,1.47-.47l1.42.49L245.71,3a1,1,0,0,1,1.47.15c0,.06.16.08.19.1L249,3.16c.23.36.5.73.71,1.12s.34.76.54,1.2a2.65,2.65,0,0,0,1.37-.12c.22-.34,0-.45-.17-.62a.55.55,0,0,1,.09-.86c.74.1,1.47.51,2.27.23h0c0,.45-.35.61-.67.81a.78.78,0,0,0-.37,1c.05.14.23.23.36.35.31-.3-.1-.7.24-.87a3.12,3.12,0,0,1,.73-.18c.57,1.06.57,1.06,1.24,1.24a3.62,3.62,0,0,1,.32-1c.26-.38.07-.69,0-1a.48.48,0,0,1,.52-.52,8.77,8.77,0,0,1,1.11.43c.5-.1.72-.75,1.3-1.12a3.33,3.33,0,0,0,.42.42,1.55,1.55,0,0,0,.6.27c.31,0,.63,0,.95,0a.48.48,0,0,1,.32.82,1.63,1.63,0,0,0-.27.6.44.44,0,0,0,.19.34c.09.06.31.11.37.06.25-.26.58-.52.66-.83a3.1,3.1,0,0,0-.07-2.41s0-.06.11-.14c.75.4,1.5.83,2.28,1.18s1.53.58,2.35.89l1.36-1.16,2.42.36a1.57,1.57,0,0,0,1.43-.32c.42-.42.86-.26,1.25,0s.85.69,1.27,1l0,0-.52.23c.35.43.76.31,1.12.33l0,0a1,1,0,0,0,1,.41,1.64,1.64,0,0,0,.29-.37,1.28,1.28,0,0,1,.92-.74c.86-.26.85-.29.77-1.26,0-.07.07-.15.1-.23.61.29,1.21.58,1.82.85s1.18.51,1.78.73a1.41,1.41,0,0,0,1.56-.1c.14-.12.42-.09.65-.11.38-.05.52-.33.65-.63h0a2.34,2.34,0,0,0,3.09.35c.41-.3.88-.2,1.29-.43l-.07-.55a1.85,1.85,0,0,1,1.2.15c.56.24.62.56.21,1l-.34.36a3.42,3.42,0,0,0,2,1,4.14,4.14,0,0,1,2.05-2.15c.67,0,.87.62,1.33.91.41.06.81.14,1.23.18a1.32,1.32,0,0,0,1.16-.29A1.55,1.55,0,0,1,299,3.53c.18,0,.36.07.54.1a2.2,2.2,0,0,0,1.91-.34l2,1L305.86,3l.5.51h0l1.15.36.35-.57c.66.23,1.47,0,1.95.75.09,0,.2,0,.26,0,1.3-1,2.69-.56,4.07-.24a3.09,3.09,0,0,1,.47.18c.29-.1.25-.28.21-.46s-.08-.34-.14-.63a2.38,2.38,0,0,1,.74.15,2.19,2.19,0,0,1,.92,1.17.79.79,0,0,1-.26,1c-.64.53-1.3,1-1.92,1.58a4.22,4.22,0,0,1-2.1,1c-.5.1-1,.16-1.5.23-.19,0-.41.1-.55,0-1-.52-1.95-.09-2.9.29A9.23,9.23,0,0,0,306,8.06a4.92,4.92,0,0,0-.94,0c-.13,0-.27.1-.39.07-.29-.08-.51-.5-.86-.24a5.59,5.59,0,0,0-.66.75c-.26-.07-.58-.06-.77-.22-.77-.65-1.48-.11-2.2.07-.09,0-.12.25-.22.33s-.29.13-.33.09c-.27-.26-.57-.16-.88-.19a4.16,4.16,0,0,1-1.6-.38c-.76-.41-1.06-.28-1.7.56l-.58-.31a1.54,1.54,0,0,0-1.46-.11.92.92,0,0,1-.65,0c-.49-.23-.77.13-1.09.33-.84,0-1.56-.55-2.41-.49-.19,0-.41-.18-.6-.32s-.56-.47-.87-.68a.52.52,0,0,0-.74.13,8,8,0,0,0-.58.93c-.64.16-1.19-.18-1.77-.26s-1.08-.23-1.63-.33a2.09,2.09,0,0,0-.93-.15,1.29,1.29,0,0,1-1-.16,1.34,1.34,0,0,0-1.21-.14A1.63,1.63,0,0,1,278,7.08C278,7,277.84,7,277.68,7a1.66,1.66,0,0,0-.42.24,1,1,0,0,1-1.15.22,2.34,2.34,0,0,1-.4-.12,1.45,1.45,0,0,0-1.68.12,1.25,1.25,0,0,1-.34,0L273,6.93l-1.72.47A1.84,1.84,0,0,1,269.19,7a1.19,1.19,0,0,0-1.07-.34l-.35.79-.72-.64a2.38,2.38,0,0,0-1.56.42,11.26,11.26,0,0,0-1.43-.8c-.6-.25-1,.26-1.5.56l-.39-.42c-.3-.07-.34.22-.5.37A2,2,0,0,1,260,7.6l-.68-.07a2.75,2.75,0,0,1-1.75-.75,2.45,2.45,0,0,0-.69-.4c-.45.88-.45.88-.26,1.7-.18,0-.41.13-.52.05a5.53,5.53,0,0,0-2.2-.62l-1.19.75c-.93-.45-1.76-1.23-3-1,0,.12-.1.29-.15.46-.16.48-.46.6-.78.29s-.54-.62-.81-.93a2,2,0,0,0,1.57-.57,3.74,3.74,0,0,1-.47-.86c0-.23.23-.56-.13-.72s-.44.31-.62.51a.81.81,0,0,1-.1.09c-.66.67-.66.68-.19,1.59L246.88,7c-.47.29-.37.63-.31,1a.8.8,0,0,1-.22.6c-.14.13-.39.13-.64.19-.1-.53-.16-1-.27-1.42s-.62-.48-.78-.22c-.39.64-1.06.83-1.64,1.16-.28.16-.54.35-.86.55L241,8.6l-.09.8a10.66,10.66,0,0,1-1.51-.63,3.88,3.88,0,0,0-1-.37l0,0c-.3-.18-.61-.31-.89.05l0-.05a8.23,8.23,0,0,0-2.26-.5,4.88,4.88,0,0,1-1.42-.42c-.39.43.16,1.22-.76,1.43L232,8.57a1.17,1.17,0,0,0,0-.27s-.11-.06-.17-.09,0,.09,0,.13l.19.2a.94.94,0,0,1-1,.06,2.13,2.13,0,0,0-2.13,0l-1.57-1-.16,1a.84.84,0,0,1-.3,0c-.07,0-.11-.14-.17-.21-.49-.46-.52-.46-1-.06l-.31.26c-.71-.62-.71-.62-1.41-.57-.73-1.19-.78-1.2-1.89-.45-.05.38-.08.79-.14,1.19a.43.43,0,0,1-.67.23,2.75,2.75,0,0,1-.45-.52,1.86,1.86,0,0,0-1.15-.7,1,1,0,0,0-1,.2l-1,.81c-.25-.05-.52-.09-.78-.16a1.43,1.43,0,0,1-.36-.2A3.17,3.17,0,0,0,213,8.22l-.8-1a5.58,5.58,0,0,1-1.22.54c-.36.07-.72,0-1,.38-.05,0-.24,0-.36,0s-.35-.09-.4,0c-.42.54-1,.26-1.52.37a1.13,1.13,0,0,1-1.15-.28A.54.54,0,0,0,206,8a.59.59,0,0,1-.64-.12,1.5,1.5,0,0,0-1.44-.24,6.78,6.78,0,0,1-2.58.13c-.64-.07-1-.21-1.27-.81-.14-.34-.19-.32-.82-.23l.05.89-1.6.69-1.4-.57c-.14.2-.29.42-.45.63a.51.51,0,0,1-.72.13c-.53-.36-1-.73-1.62-1.14l-.79,1.26a3.71,3.71,0,0,1-.63-.28c-.7-.48-.69-.48-1.42.14a1.67,1.67,0,0,0-.58-.2c-1.13.07-1.65-.6-2-1.55a2.23,2.23,0,0,0-.26-.48.48.48,0,0,0-.88,0,7.13,7.13,0,0,0-.33.78c0,.6,1.07.47.72,1.2-.78-.1-1.54-.25-2.3-.28s-1.18-.16-1.24-1c0-.13-.13-.24-.18-.33-.4-.32-.58.29-1,0v1c-.07,0-.16.12-.22.1-.25-.07-.45-.36-.75-.12a1.58,1.58,0,0,1-1.46.13,1.72,1.72,0,0,0-1.47,0c-.07,0-.32-.12-.41-.25a.56.56,0,0,0-.85-.13c-1,1.08-2.13.86-3.31.58a1.23,1.23,0,0,0-.66,0,1.34,1.34,0,0,1-1.73-.37c-.25-.49.12-.9.18-1.42-.37-.14-.9.21-1.18-.46a5.54,5.54,0,0,0-.32,1,2,2,0,0,1-.58,1,1.12,1.12,0,0,1-1.64.4,9.67,9.67,0,0,0-1.77-.53l-.68.81c-1-.39-1.23-.69-.95-1.6.06-.22.17-.42.24-.64a.83.83,0,0,0-.35-1c-.61-.47-1.21-.27-1.34.47a1.62,1.62,0,0,0,.28,1.44,3.28,3.28,0,0,1,.3.51,4.46,4.46,0,0,1-2.82.35l-.48-.66-.44.85a3.18,3.18,0,0,0-1-.1,1.24,1.24,0,0,1-.91-.2.28.28,0,0,0-.25,0c-.7.71-1.23.11-1.84-.16-.15-.07,0,.66-.52.6a4,4,0,0,0-.68,0,1.63,1.63,0,0,1-1.83-1.14,8.35,8.35,0,0,0-.62-1.08.6.6,0,0,0,.26,0A.29.29,0,0,0,153,6a.23.23,0,0,0-.13-.2c-.06,0-.22,0-.23,0a1.53,1.53,0,0,0,0,.37c-.31-.31-.78-.53-.66-1.2l1.39,0,.07-1.09c.07,0,.17-.14.22-.12a3,3,0,0,0,2-.18l.69.93c.07,0,.12.09.14.08.87-.34,1.73.11,2.68,0a2.58,2.58,0,0,1,.2-.29c.57-.64.89-.74,1.48-.16a2,2,0,0,0,2.11.49l.59-1.88a4.36,4.36,0,0,1-.49-.61.39.39,0,0,1,.06-.36.42.42,0,0,1,.37-.07c.43.26.84.55,1.29.86-.08.37-.16.67-.21,1s-.08.53-.11.75c.26.22.42.11.5,0a8.59,8.59,0,0,0,.37-.88c.32-.14.65-.17.79.22a1,1,0,0,0,1.1.66c1.38-.2,2.84-.11,4.14-.91.53.21,1,.55,1.68.28a.58.58,0,0,1,.69.33c0,.08.06.18.11.25.37.5.68.52,1.11,0,.18-.19.33-.4.48-.58.51.36.94.68,1.39,1,.09.05.25,0,.48,0l-.54-.94a2.53,2.53,0,0,0,.86,0c.19-.06.28-.35.47-.47.34-.21.71-.37,1-.53.65.28.76,1.26,1.82.86l.79-.77c.68-.12.46.59.87.84l.59-.44h0l.94.68a7.86,7.86,0,0,0,1.71-.69,7.79,7.79,0,0,1,1.86-.56c.16.39.29.73.44,1.06s.49.52,1,.19a2.43,2.43,0,0,0,.29-.26c.35,0,.25.36.41.5a2.26,2.26,0,0,0,.35.17c.32.16.45-.56.8-.18s.58-.07.87-.1a3.29,3.29,0,0,0,.89-.35L192.62,3c.1,0,.22-.07.26,0L194,4.11c.56.11.73-.37,1-.59.1,0,.22,0,.27,0a1,1,0,0,0,1.17.08,2,2,0,0,1,2.88.65s.09,0,.24,0l.38-.71.9.32.42-.74c.65.11,1.27.11,1.64.74.42,0,.72-.55,1.26-.26a1.27,1.27,0,0,0,.91-.13.86.86,0,0,1,1.19.37h.25s0,0,0-.07l-.32.1c.32-.33.66-.65.95-1a1.05,1.05,0,0,1,.92-.5c.53,0,.45.52.69.84.32,0,.75.24,1,.12a1.83,1.83,0,0,1,1.58.19l.62-.62a2.54,2.54,0,0,0,2.59.16l1,.87c.12,0,.18,0,.21,0,.6-.42,1.17-1,1.85-.08.15.19.4,0,.54-.58L217,2.6c.85-.3.94-.3,2.2,0a4.05,4.05,0,0,0,.18.88c.1.22.51.44.47.56-.21.64.18.65.55.53s.57.22.86.29c.2-1,.2-1-.62-1.4.64-.71.65-.69,1.51-.63L222.42,4c.42.13.42-.23.6-.34s.2,0,.22.07a2.14,2.14,0,0,0,1.47,1.35l.23,0Zm-51.39.27.23.06-.23-.07c-.32.57-.32.57-.2,1C173.44,6.09,173.34,5.73,173.3,5.39Zm34.06,2.07a.61.61,0,0,0,0,.13s0,0,.06.08l-.11-.24A1.74,1.74,0,0,0,208,6.16c-.95.09-1.11.36-.71,1C207.29,7.28,207.31,7.36,207.36,7.46Zm56.8-3.33a.72.72,0,0,0,.36.89,3.11,3.11,0,0,1,.42.32,2.32,2.32,0,0,0-.38.07c-.07,0-.16.09-.17.15s.07.15.12.17a.3.3,0,0,0,.22-.08,3.59,3.59,0,0,0,.17-.34c.3.09.61.25.84-.25a3.6,3.6,0,0,0-1.61-.92l-.11,0-.07,0Zm-55,0a1.33,1.33,0,0,0-1.31,0,.77.77,0,0,0-.34.52.39.39,0,0,0,.41.44c.51,0,.89.11,1,.66a.36.36,0,0,0,.32.13.38.38,0,0,0,.19-.31C209.4,5.05,209.28,4.57,209.17,4.09Zm-51.46,1.8a5.5,5.5,0,0,0,.76.46.52.52,0,0,0,.48-.11c.08-.09,0-.31,0-.48-.57-.1-1.06-.2-1.56-.27a1.25,1.25,0,0,0-.67.06,1.31,1.31,0,0,0-.52.57c0,.14.11.38.2.68Zm4.56.75c.21-.62-.18-.86-.49-1.12a.57.57,0,0,0-.76,0,.63.63,0,0,0-.31.71,4,4,0,0,0,.44.85c0,.07.24,0,.36.05.07-.24-.29-.44,0-.65Zm81.12.25c-.81-.36-1.41-.65-2-.9a.35.35,0,0,0-.32.15.34.34,0,0,0,.08.34c.59.24,1.18.47,1.78.67C243,7.17,243.11,7,243.39,6.89ZM271.9,5.28c.07-.06.26-.16.29-.3a.54.54,0,0,0-.2-.45,1.56,1.56,0,0,0-.64-.21.4.4,0,0,0-.34.15.44.44,0,0,0,0,.37A.77.77,0,0,0,271.9,5.28ZM178,5.69c.34.33.49.5.66.63a.47.47,0,0,0,.63,0,.43.43,0,0,0,0-.73Zm26.65.72c.06-.44.13-.75.14-1.06,0-.09-.15-.23-.26-.27s-.35.08-.41.27C204,5.74,204.13,6.07,204.66,6.41Zm73.79-1.17,0-.28a9.28,9.28,0,0,0-.91-.22c-.18,0-.38,0-.37.34A2.26,2.26,0,0,0,278.45,5.24Zm-84.06,1c.15-.31.31-.5.29-.67s-.3-.33-.52-.26-.24.2-.37.31Zm87-1a.46.46,0,0,0,.62.39.49.49,0,0,0,.32-.35c0-.25-.48-.46-.76-.32C281.48,5,281.45,5.16,281.4,5.24ZM186.19,6c.14-.24.31-.39.29-.52,0-.29-.28-.33-.52-.33s-.38.16-.29.35S186,5.8,186.19,6Zm-17-.12c0-.08,0-.13,0-.16a.66.66,0,0,0-.94-.06.34.34,0,0,0,0,.35.55.55,0,0,0,.81.16C169.06,6.12,169.11,6,169.17,5.89ZM154.53,5l-.19,0a4.65,4.65,0,0,0,0,.75c0,.08.19.13.3.19.06-.11.19-.24.17-.32A3.66,3.66,0,0,0,154.53,5Zm74.24.12c.17.19.26.36.4.42a.64.64,0,0,0,.47,0c.05,0,.07-.27,0-.36a.59.59,0,0,0-.38-.28C229.13,4.86,229,5,228.77,5.13Zm-36.06.16c-.2-.15-.29-.27-.4-.29a.46.46,0,0,0-.53.45c0,.09.2.25.25.23A5.69,5.69,0,0,0,192.71,5.29Zm24.84.14A3.85,3.85,0,0,0,217,5c-.07,0-.23.06-.33.12a.32.32,0,0,0,.08.23A.57.57,0,0,0,217.55,5.43Zm66.86.2c-.25-.25-.36-.38-.48-.48s-.35-.21-.42,0,.12.32.24.39S284.06,5.61,284.41,5.63Zm-35.7-1.16c.15-.08.29-.14.28-.17a1.84,1.84,0,0,0-.15-.49s-.18-.06-.24,0a.26.26,0,0,0-.1.23A4.69,4.69,0,0,0,248.71,4.47ZM200.54,6.15l.29-.14c-.06-.15-.13-.3-.2-.45-.07,0-.19.09-.19.12A2.83,2.83,0,0,0,200.54,6.15Zm35.08.1c.13.1.24.23.31.21a.4.4,0,0,0,.24-.25S236,6,235.94,6,235.76,6.14,235.62,6.25Zm8.86-.19c.08-.16.17-.27.15-.3a2,2,0,0,0-.36-.35s-.18.13-.18.13C244.2,5.71,244.33,5.87,244.48,6.06Zm46.46,0c.12.08.21.15.32.21s.14-.14.12-.17a.33.33,0,0,0-.19-.16C291.13,5.88,291.05,6,290.94,6Zm-88.55.24a1.36,1.36,0,0,0,.41-.12,1,1,0,0,0,.13-.31.8.8,0,0,0-.32,0A1.56,1.56,0,0,0,202.39,6.25Zm49.28.1-.14.06a1.57,1.57,0,0,0,.19.26s.11,0,.17-.07ZM300.8,4.64c.07,0,.17,0,.22,0s0-.13,0-.21-.18,0-.22,0S300.8,4.57,300.8,4.64Zm-87,.51-.2-.11c0,.07-.1.15-.08.2s.13.08.19.11ZM229,7.3c.07,0,.15.12.22.12s.12-.1.18-.16l-.3-.18ZM205.82,5.94c-.06-.06-.11-.15-.17-.16s-.15.07-.22.1l.24.24ZM203.1,5c.08,0,.18,0,.21-.09s0-.15,0-.23l-.28.11A2,2,0,0,1,203.1,5ZM177,5.74l.17-.13c0-.06-.08-.15-.14-.16s-.11.07-.17.11Zm70.37-1.26-.11-.21c-.06.07-.14.12-.16.19s.06.13.1.19Zm-6,.39-.14.18s.08.08.1.07a1.24,1.24,0,0,0,.2-.1Zm-39.15-.69.17-.14a1.4,1.4,0,0,0-.17-.09s-.1,0-.09.06A1.4,1.4,0,0,0,202.22,4.18ZM220,6.77l.2-.11c-.06-.06-.1-.16-.17-.18s-.13.06-.19.09ZM155.29,4.88s.08-.06.07-.07a1.18,1.18,0,0,0-.11-.19s-.08.06-.07.07A1.18,1.18,0,0,0,155.29,4.88Zm22.64,0,.12.18a.57.57,0,0,0,.11-.16s0-.1-.06-.1Zm80.63,0a1.8,1.8,0,0,0,.08-.21l-.11,0a1.8,1.8,0,0,0-.08.21ZM234,4.84a.3.3,0,0,0,.1,0s0-.06,0-.1-.08,0-.09,0S234,4.81,234,4.84Zm-37-.32.12,0a1.28,1.28,0,0,0-.11-.2l-.11.05Zm-31.38.27s0,.08,0,.11.06,0,.1,0,0-.08,0-.1S165.61,4.81,165.57,4.79Zm5.2-.42s.08,0,.11,0,0-.06.06-.1l-.19,0Zm4.79,2.8s.06,0,.09,0,.06,0,.09-.06-.06-.06-.09,0S175.59,7.15,175.56,7.17ZM299.44,4.25l.09-.07s-.06-.07-.09-.08-.06.05-.1.07ZM280,5.05S280,5,280,5s-.06,0-.09,0,0,.08.05.09S280,5.06,280,5.05Zm-16.49-.21-.12-.06s-.05.09,0,.11.07,0,.11.06Zm-17.13.59.11-.07h-.19Zm-3.57-1.32a.4.4,0,0,0-.11,0s0,.07,0,.1h.11S242.81,4.14,242.81,4.11ZM228.55,5.92l.12-.15-.1-.06s-.07,0-.1,0Zm-2.42-2.18L226,3.9l.09.07a1.83,1.83,0,0,0,.13-.16Zm-6.37,2,.05-.07h-.11Zm-12.8,0s0,.07.06.08.06,0,.09,0L207,5.64Zm-53.36,0,.06.09.1-.13s-.07,0-.1,0S153.62,5.73,153.6,5.76Zm13.84,1.07-.07,0v.08ZM276.07,6l.11,0s0-.08,0-.09-.06,0-.1,0Zm29.67-1.38v.09l.1,0Zm-130.17,1-.06.09h.1Zm49.56,1.29,0-.08,0,.08Z"/><path d="M78.7,5A.76.76,0,0,1,79.46,5c.64.15.84-.09.65-.73-.09-.3-.19-.6-.28-.91,0,0,0-.08,0-.12.52.36.52.36,1,1.51a7.42,7.42,0,0,0,.79-.1c.48-.12,1-.28,1.44-.42l.4-1.13c.49.44.91.78,1.28,1.17a.86.86,0,0,1,.16.63,1.28,1.28,0,0,0,.69,1.37c.19.12.3.35.47.5.48.43.84.3,1.22-.42l0,0a2.56,2.56,0,0,1,.35-.22c.56-.32.61-.37,1.05.1s.51.24.8.1l.33.43s.08,0,.11.08.21,0,.24-.09a1.72,1.72,0,0,0,.09-1.59c-.1-.29-.25-.58-.39-.89a5.74,5.74,0,0,0,.48-.69,2.82,2.82,0,0,0,.11-.52l1.4.1c.09.46.18.95.27,1.43A3.52,3.52,0,0,0,91.38,4c-.16-.08-.34.09-.28.39l1,.16a2.6,2.6,0,0,1,.36-.21,2.37,2.37,0,0,0,1.68-1.65c0-.06.14-.08.29-.16l.12,1.09L96,3.75l.23-.87c.06,0,.17.08.18.13a2.59,2.59,0,0,1,.1.67c0,.86.06.93.83,1.15A5.32,5.32,0,0,0,98,5l0,0c0,.22-.13.44-.17.67a2.29,2.29,0,0,0,0,.44,1.64,1.64,0,0,0,1.3.61,2.72,2.72,0,0,1,2.23,1,2.59,2.59,0,0,0,1.33-1,1.68,1.68,0,0,0,.38-1.27c-.07-.93.36-1.25,1.26-1,.16,0,.28.23.42.35a1.81,1.81,0,0,0-.87,1.18c-.07.6.41,1.21,1,1a4.66,4.66,0,0,1,2.67.15c.26-.07.53-.13.79-.21a.25.25,0,0,0,0-.23c0-.05-.17-.11-.21-.08-.22.16-.42.35-.63.52.21-.85-.43-1.2-1-1.62a5.54,5.54,0,0,0-.81-.07c-.56,0-.82-.3-1-.72l.83,0,.22-.8a1.26,1.26,0,0,1,1-.16,18.74,18.74,0,0,0,2.26.41h0l.57,1c0,.65-1,.62-.66,1.35l1,.1c.08-.23.1-.54.25-.63a2.81,2.81,0,0,0,1.53-2c.89.83.19,1.6.29,2.34.43.25.86,0,1.26-.08.16.18.26.4.4.44a2.26,2.26,0,0,0,.82,0,9.54,9.54,0,0,0,1-.28L115,4.91l0,0c.56-.14.72-.38.48-.77-.11-.17-.35-.25-.53-.37v0a1.73,1.73,0,0,0,1.2-1.53c.07-.49.19-1,.27-1.4.38-.14.6,0,.61.25a4,4,0,0,0,1,2.49,4.13,4.13,0,0,1,.43,1c.16.37.46.39.8.32a1.69,1.69,0,0,0-.31.46c0,.09.07.22.12.33s.11,0,.12,0a.42.42,0,0,0,.12-.24,5,5,0,0,0-.07-.54,3.07,3.07,0,0,1-.32-.87c0-.17.22-.35.42-.63l.35,1c.61.25.95-.31,1.48-.3L120.93,3a3,3,0,0,1,.4-.4.4.4,0,0,1,.65.21c.1.54.17,1.09.28,1.63a3.79,3.79,0,0,0,.21.65c.09.22.3.19.72-.14a5.35,5.35,0,0,0,.47.76c.16.22.4.38.58.59a1.69,1.69,0,0,1,.25.48c.14.38,0,.62-.52.75l-.27,0,.06-.59c-.12,0-.16.13-.15.19a2.34,2.34,0,0,0,.09.38l-1.25.36-.51-.91L120.7,6.4a1,1,0,0,0,.75-1,.46.46,0,0,0-.66-.45c-.24.1-.47.26-.85.47a1.28,1.28,0,0,1,.8,1,.86.86,0,0,0-.55.58c-.08.3-.19.6-.31,1a8.84,8.84,0,0,0-1.22-.1,2.52,2.52,0,0,1-1.22-.1.55.55,0,0,0-.4,0c-1.39.74-2.92.48-4.4.64a1.31,1.31,0,0,1-.52-.14c-1-.36-1-.36-1.58.42a.91.91,0,0,1-.18.21.45.45,0,0,1-.12.06c-.56,0-.85-.49-1.32-.81-1.08.14-2.3-.44-3.47.58l-1-1.08-.59.8-1.07-.14c-1.49.75-1.14.8-2.52.24l-.69,1.2c-.3-.76-1-.83-1.47-1.28l-.75.81a6.12,6.12,0,0,1-.57-.57c-.64-.91-.64-.92-1.67-.56l-.4.1c-.61-.34-1.19-.71-1.81-1s-1-.22-1.15.6a13.4,13.4,0,0,0-.14,1.51,7.65,7.65,0,0,0-1-.59.62.62,0,0,0-.74.17c-.39.4-.43.37-1.07,0l-1.11.58A3.48,3.48,0,0,1,87.28,9c-.47-.65-.56-.67-1.18-.27a4.84,4.84,0,0,1-.83.46c-.92.35-1.06.29-1.72-.54a1.18,1.18,0,0,0-.25-.17l-.68.41c-.3-.2-.6-.42-.92-.59s-.66-.11-.89.32a5.1,5.1,0,0,0-.23.55,2.83,2.83,0,0,1-2.09-.71c-.47-.14-.76.58-1.21.13A12,12,0,0,1,76,8.85c-.41,0-.81-.23-1.22,0l-.51.22a2.81,2.81,0,0,0-1.93-.59c-.16,0-.4.19-.52.35s0,.32,0,.76a1.06,1.06,0,0,1,1.49-.24c.42.25.68-.08,1-.32a1,1,0,0,1-.86.79l-1.69.4a4.37,4.37,0,0,0-1.24-1.08l-1.65-.92c-.66,0-.38.85-.78,1.3l-.73-.8-1,0c.06-.45.12-.91.17-1.31l.94-.68-.44-1-1.7.33.43,2.63h.64l-.14,1.82h0A6.15,6.15,0,0,1,64.49,9l-.68.6L63,9.34l-.45,1.36c-.43-.46,0-.94-.24-1.4l-.57-.47c0-.12.06-.24.08-.36s0-.07-.06-.1-.12.11-.12.15a3.42,3.42,0,0,0,.13.34c-.82-.09-.82-.09-1,.83l0,0-1.59-.36c0-.18-.09-.44-.15-.68a.43.43,0,0,0-.51-.36c-.32.07-.26.32-.21.55a1.1,1.1,0,0,1,0,.26c-.47.11-.42-.37-.68-.6l-1.39-.19c-.45.33-.09.69-.11,1a.37.37,0,0,1-.24.29.36.36,0,0,1-.34-.13c-.16-.33-.25-.69-.4-1a.49.49,0,0,0-.72-.13,1.35,1.35,0,0,0-.61,1.17A1,1,0,0,1,53,10.55c-.36-.36.22-1.16-.74-1.23l-.43.66c-1.23,0-1.35-.09-1.23-1.27.09-.83.36-1.06,1.27-1.05l.5,0c.3-.33.19-.61,0-.93-.28-.58-.53-1.17-.76-1.77A1,1,0,0,1,51.84,4a.72.72,0,0,1,1.25,0c.26.35.27.38.32,1.16a4.08,4.08,0,0,0,2.82,1l-1.74.66.13.32c.68-.34,1.07.27,1.55.52a1.2,1.2,0,0,0,.71-1.27A3.41,3.41,0,0,1,57,5.26a.45.45,0,0,1,.51-.37,1,1,0,0,1,.46.24,1.84,1.84,0,0,1,.19.37.76.76,0,0,1-.28,1l1.34,1.28,1.23-1.29a2.54,2.54,0,0,0-.09.54c0,.35.13.38.68.26-.1-.35-.17-.71-.63-.76-.08-.1-.15-.26-.25-.29a.68.68,0,0,0-.37.12c-.27.14-.54.19-.75-.06s-.08-.49.1-.73c.33-.42.63-.87,1-1.43l.07,1.41a7.79,7.79,0,0,0,.85,0c.32,0,.63-.09.95-.14l0,0-.1.53.69-.3c.42-.19.58.09.79.46l-.79,1c.95-.17,1.41-.49,1.52-1.18a7,7,0,0,0,.3-2.19.5.5,0,0,1,.48-.62l1.17,2a1.43,1.43,0,0,0,.25-1.51.56.56,0,0,1,.4-.76.69.69,0,0,1,.47.06c0,.5.36.54.77.53.11,0,.26.24.33.4a3.88,3.88,0,0,1,.31,2.07c.57-.3.82-.87,1.38-1.13a2.7,2.7,0,0,0-.34-.37c-.26-.17-.42-.38-.28-.69a.75.75,0,0,1,.8-.43c.54.12,1.11.23,1.22.93.49-.11.57-.36.41-.73a.44.44,0,0,0-.08-.11,1.64,1.64,0,0,1,0-2.39,6,6,0,0,1,.6,2,2.39,2.39,0,0,1,1.85,1c.64-.44,1.27-1.08,2.32-.61l1,1.65a.71.71,0,0,0,.68.38l0,0c0,.09,0,.18,0,.27.08.3.26.48.59.4s.33-.37.11-.79A1.14,1.14,0,0,0,78.66,5ZM67.13,4.71s.06,0,0,0l0-.23Zm2.14,2.57a.41.41,0,0,0,.07.11l.09,0-.19-.1V7s-.07.06-.07.08ZM72,4.83a1.66,1.66,0,0,0-.31.23.27.27,0,0,0-.05.23s.15.11.18.09a.3.3,0,0,0,.14-.2,2.54,2.54,0,0,0,0-.39c.22.06.43.13.65.17.05,0,.12-.1.18-.15s-.12-.18-.16-.17A5,5,0,0,0,72,4.83Zm23.6,1.63c0-.38,0-.75-.06-1.11,0-.57-.24-.71-.79-.48a.75.75,0,0,0-.12.07,2.74,2.74,0,0,1-2,.18,4.12,4.12,0,0,0-1.22,0c-.47,0-.66.29-.55.73a2.28,2.28,0,0,0,.18.52.76.76,0,0,0,1.16.29c.07-.05.12-.14.19-.2.59-.5.64-.5,1.18.13.27.31.51.66.94.73ZM82.15,6.1a2.3,2.3,0,0,0,2,.08.76.76,0,0,0-.25-1c-.3-.26-.49,0-.73.1a.44.44,0,0,1-.36-.09C82.59,5,82.31,4.8,82,5.1s0,.51.08.77A1.07,1.07,0,0,0,82.15,6.1Zm34.63-1.66a10.16,10.16,0,0,0,.32,1.18,1.15,1.15,0,0,0,.39.53.61.61,0,0,0,.48,0c.06,0,.11-.3.06-.35a2.66,2.66,0,0,1-.56-1.5s-.12-.09-.21-.16ZM76.18,6.61c.32-1,.31-1,0-1.16l-1,.58C75.39,6.65,75.72,6.75,76.18,6.61Zm8.25,1.48c.08-.12.26-.29.28-.47,0-.36-.31-.69-.58-.61a.45.45,0,0,0-.31.54A.56.56,0,0,0,84.43,8.09ZM96.69,6.22c.16-.13.3-.19.35-.28s-.14-.49-.47-.47c-.09,0-.26.2-.24.23A3.06,3.06,0,0,0,96.69,6.22Zm1.72,1.32a2,2,0,0,0,.11.39.23.23,0,0,0,.22.09A.42.42,0,0,0,99,7.5a.79.79,0,0,0-.28-.39s-.19,0-.22.07A1.18,1.18,0,0,0,98.41,7.54ZM80.63,5.8a.63.63,0,0,0,.17.81C81.05,6.25,81,6,80.63,5.8ZM73.25,3.91,73,3.73s-.1.06-.1.07S73,4,73,4.08Zm9.22,3.76,0-.18-.1,0Zm33.58-2.39h.12l-.07-.19s-.08,0-.09.08A.56.56,0,0,0,116.05,5.28ZM70.52,6.59l0,.1s.08,0,.09,0,0-.06,0-.1Z"/><path d="M31.13,7.15a1.41,1.41,0,0,1,1.75-1c.31,0,.64,0,1,.08l1,1.13,1.29-.2a1.63,1.63,0,0,1,0,1.81c0,.07-.13.16-.12.24s0,.42.11.47a.68.68,0,0,0,.51-.08c.15-.09.24-.27.37-.4a.83.83,0,0,1,1-.23c.52.19,1,.36,1.58.52a6.24,6.24,0,0,0,.69.11,2.14,2.14,0,0,0,.08-1.78,1.31,1.31,0,0,1,.19-1.17c.19-.31.31-.67.49-1,.08-.13.25-.2.54-.41a3.79,3.79,0,0,1,0,1c-.15.38-.53.67-.46,1.13a3.66,3.66,0,0,0,.55,1.74,4.65,4.65,0,0,0-.6.66,3.07,3.07,0,0,0-.27.77c0,.1,0,.21.09.27s.38.31.22.58-.37.24-.6.11l-.37-.16-1.2.54a1.28,1.28,0,0,1-.55-1c-.06-.31-.1-.63-.18-1a.29.29,0,0,0-.2-.15c-.11.06-.28.16-.28.25,0,.54-.16,1.11.29,1.58,0,.05,0,.17,0,.25a5.18,5.18,0,0,1-2.68,0,2.18,2.18,0,0,0-.8,0c-.18,0-.37.14-.52.1a1.32,1.32,0,0,0-1.57.56c0,.06-.17.07-.31.13-.41-.52-1.19-.12-1.69-.61-.09-.09-.52.08-.73.22a1.29,1.29,0,0,1-1.4.27c-.18-.07-.49.16-.82.28l-.43-.83-2.62.27-1.24,1c-1-.11-1.1-1.25-1.91-1.65a3.6,3.6,0,0,1-2,.74A1.18,1.18,0,0,1,18.1,12a9.14,9.14,0,0,0-.89-.87.61.61,0,0,0-.5-.11c-.1,0-.12.29-.17.45s.05.08.05.13c0,.43-.16.73-.47.61-1.26-.5-2.33.11-3.51.52-.42-.44-.92-.78-1.48-.13l-1.45-.42c.11-.19.16-.38.28-.44a2.21,2.21,0,0,1,1.94-.36c.23.09.62-.11.89-.27.59-.35,1.17-.73,1.73-1.13s.9-.82.55-1.53A1.16,1.16,0,0,1,15,7.93c0-.47.24-.64,1-.75a2.05,2.05,0,0,1-.05.51c-.07.24-.11.46.11.62a.67.67,0,0,0,.78.1,2.58,2.58,0,0,0,1.08-1,4,4,0,0,1,.39-.6,1,1,0,0,1,.51,1.1c0,.38-.36.45-.71.53-.65.14-.68.28-.38,1.14l1-.2.87.73a.92.92,0,0,0,.59-1.16,5.57,5.57,0,0,0-.32-.76.71.71,0,0,1,0-.51c.14-.27.37-.13.6,0,.64.22,1,.1,1.18-.49s.41-.92,1-1a.85.85,0,0,1,.3.09l-.16,1c.12.11.18.21.25.22.23,0,.46,0,.69,0a.43.43,0,0,1,.39.59c-.17.39-.37.74-.89.74-.87,0-1.12.69-1.39,1.32,0,.09.13.28.24.49l.83-.78,1,.42c.09-.26.16-.46.24-.66.28-.73.47-.83,1.24-.65l.4.09,0,0-.44.7a1.52,1.52,0,0,0-.05.22c.23.21.47.47.73.7.47.41.63.41,1.18,0a2,2,0,0,1,1.44-.48V8.76l-.45-.34c0-.08,0-.2.08-.23A3,3,0,0,0,29.47,7c.53.54,1.12.11,1.69.11a1.9,1.9,0,0,1,.25,0s0,0,.05-.07ZM29.75,9.6a.89.89,0,0,0,1,.83.45.45,0,0,0,.29-.25A.84.84,0,0,0,30.49,9,.58.58,0,0,0,29.75,9.6Zm5.1.21a3,3,0,0,0,.3-.6c0-.05-.18-.23-.26-.22a.39.39,0,0,0-.37.47C34.53,9.55,34.68,9.64,34.85,9.81ZM33.54,8.45c-.16-.1-.27-.24-.35-.22s-.19.17-.28.27c.1.08.19.23.28.22S33.39,8.58,33.54,8.45Zm-3.44,3c.08-.05.17-.07.21-.14s-.07-.13-.11-.19-.17.07-.21.13S30.06,11.34,30.1,11.41ZM20.77,9.82s0,.08.06.09.07,0,.1,0l-.09-.15ZM32,7.88s0,.07.06.08.07,0,.1,0l-.1-.14ZM16.69,10.41v.09l.08,0Z"/><path d="M143.2,7.49a1.74,1.74,0,0,0-1.44.31,1.22,1.22,0,0,1-1.31.08,1.7,1.7,0,0,0-1.34-.12c-.51.14-1,.48-1.55.06-.12-.08-.49.17-.83.31L136,7.4l-.69.51A1.15,1.15,0,0,1,135,7.8a1.48,1.48,0,0,0-1.55-.23.82.82,0,0,1-.65-.06,2.23,2.23,0,0,0-1.62-.11c-.92.21-1.74.28-2.28-.47-.71,0-.71.53-1,.82a1,1,0,0,1-.27.06A4.9,4.9,0,0,0,126,7.67c-.35.07-.51-.21-.35-.51.35-.64.39-.7,0-1A2.14,2.14,0,0,1,125,5a6.69,6.69,0,0,0,.89-.44c.25-.19.41-.51.9-.41a5.7,5.7,0,0,0-.05,1.17,8.17,8.17,0,0,0,.46,1.25,4.83,4.83,0,0,1,.57-.49,3.29,3.29,0,0,1,.55-.29c.5.08.94.14,1.38.23a1,1,0,0,0,1.07-.45l.65,1.14c1-.9,1.32-2.08,2.13-3,.27-.07.73.12,1-.26l0,0,2.06-.19.71.57c-.42.5-.82-.15-1.18.09,0,.49-.38.57-.82.76.6.38,1.21.71,1,1.65l.3-.12c.1-.14.21-.27.29-.41a5,5,0,0,1,.46-.85,3.94,3.94,0,0,0,1.32-2.49l.27.12c0,.31,0,.61,0,.92s.26.44.65.42a2,2,0,0,0-.2.76c0,.24.27.45.39.69s.23.59.33.86c.6.43,1.19.16,1.74.1s.6.72,1.18.67c.24,0,.17.37.14.59Zm-9.86-1.23c.16-.26.32-.4.3-.52a.52.52,0,0,0-.29-.37c-.2-.06-.34.14-.31.33A2.08,2.08,0,0,0,133.34,6.26Zm6.06.89c.08-.14.18-.25.16-.33s-.16-.16-.25-.24c-.07.09-.21.19-.19.26S139.27,7,139.4,7.15ZM139,6.06l.17-.19c-.06-.06-.12-.15-.19-.15s-.15.11-.14.17S139,6,139,6.06Z"/><path d="M146.26,4.27a.83.83,0,0,0,.87.88c.27,0,.54,0,.92-.05a2.69,2.69,0,0,0-.05-.67c-.18-.42-.49-.78-.44-1.28a.61.61,0,0,1,.87,0,1.7,1.7,0,0,0,1.22.53c.62,0,.85.44.89,1-1.1,1.19-1.15,1.36-.57,2.41a5.56,5.56,0,0,1,.71-.29.91.91,0,0,1,1.1.6.49.49,0,0,1-.54.7c-.36-.07-.72-.18-1.08-.23A1.3,1.3,0,0,1,148.92,7c0-.1-.21-.15-.36-.25a3.56,3.56,0,0,1-.64.69,15.92,15.92,0,0,1-1.41.74c-.78-.42-.65-1.23-1-1.79L146,5.7c0-.71-1.21-.82-.6-1.76l.94.36Zm1.15,2-.07,0v.09Z"/><path d="M44.55,8.51c0-.64.07-1.28.11-1.94a6.69,6.69,0,0,1,1-.35,1.12,1.12,0,0,0,1-1.2c.7-.07,1.52.1,1.57-.9a2.92,2.92,0,0,1,2.07,1.21,1.21,1.21,0,0,1,.08,1.4.52.52,0,0,1-.17.22,2.24,2.24,0,0,0-.73,2.6,6.91,6.91,0,0,1,.06.92c-.6-.3-1.16-.45-1.37-1a1.2,1.2,0,0,0-1-.83c-.26-.05-.24-.33-.07-.6L48.22,8c.3-1-.4-1.31-1.16-1.66a6.56,6.56,0,0,0-2.52,2.17Zm3.91-2.65c.06-.05.17-.1.17-.16s-.07-.13-.12-.19-.17.09-.18.15S48.42,5.79,48.46,5.86Z"/><path d="M44.54,8.48c-.49.1-.27.34-.07.63l1.59-1a2.2,2.2,0,0,1,.49,2c-.44.52-.93.14-1.44.29l-.18.73-.51-.68-1.24.3L42.93,9l1-1,.58.44Z"/><path d="M98,5c-.07-.21-.25-.45-.2-.62A1.71,1.71,0,0,0,97.68,3c.87.87.87.87,2.44,1l.72-.92a.91.91,0,0,1,.3,0c1.15.86,1.13,1-.13,1.78-.32.18-.6.42-.91.61s-.87.05-1-.53a4.28,4.28,0,0,1,0-.52c-.52,0-.9,0-1.12.44Z"/><path d="M87.31,6.3l-.55-.6a3.4,3.4,0,0,0-.34-.4c-.69-.54-.75-.79-.26-1.36.7-.81,1.12-.87,2-.25.26.18.51.38.75.57.07.51-.47.36-.62.64s-.4.39-.55.61a8.36,8.36,0,0,0-.46.83Z"/><path d="M34.26,3.35a4.32,4.32,0,0,0-1.74,1.4c-.1.13-.41,0-.43-.15a2.17,2.17,0,0,1,.65-1.85.84.84,0,0,1,.75-.09C33.75,2.77,33.94,3.05,34.26,3.35Z"/><path d="M90.1,1.09C90.17.68,90,.34,90.39,0L91,.54c.17,0,.23-.17.34-.29s.39-.34.6-.19a.81.81,0,0,1,.31.56,1.11,1.11,0,0,1-.31,1Z"/><path d="M273.52,1.87a1.22,1.22,0,0,1-1.15.14c-.49-.1-.78.12-1.11.52a3.21,3.21,0,0,0-.67-.66,8.87,8.87,0,0,0-.92-.25.45.45,0,0,1-.2-.42c0-.13.25-.24.4-.28a.54.54,0,0,1,.39.13,3.75,3.75,0,0,0,2.51.56C273,1.6,273.32,1.48,273.52,1.87Z"/><path d="M143.17,7.52a1.92,1.92,0,0,0,.25-.12c.65-.34.7-.5.31-1-.17-.22-.34-.44-.52-.65l0,0c.44-.18.21-.67.44-1,.08-.09.21-.21.31-.21s.21.14.3.23a.49.49,0,0,1,.1.25c.12.76.23,1.52.35,2.32a1.15,1.15,0,0,1-1.48.07Z"/><path d="M274.26,4.3c.63-.6,1.24-1.21,1.88-1.79A5.08,5.08,0,0,1,277,2l-.21,1.39-1.13.27a2.75,2.75,0,0,0-.23.33c-.14.28-.16.64-.53.77l0,0-.6-.56Z"/><path d="M18.71,3.55a2.84,2.84,0,0,1,.38.05.51.51,0,0,1,.36.74c-.26.5-.54.68-.95.63a.73.73,0,0,1-.61-1C18,3.58,18.37,3.6,18.71,3.55Z"/><path d="M143.21,5.74c-.25-.09-.66-.13-.72-.29-.27-.73-.9-1-1.46-1.39-.1-.07-.1-.31-.14-.47.17,0,.37-.16.5-.11A2.73,2.73,0,0,1,142,4a3.41,3.41,0,0,1,1.14,1.82Z"/><path d="M183.17,3.23l.21-2.82c.49.68,1.06,1.1.87,2-.38.21-.94.28-1.08.86Z"/><path d="M42.16,8.19a2.72,2.72,0,0,0,1-1.49c0-.13.35-.24.55-.29a.43.43,0,0,1,.33.17.58.58,0,0,1,0,.39.64.64,0,0,1-.24.32,3.14,3.14,0,0,0-1,1.08C42.66,8.65,42.36,8.61,42.16,8.19Z"/><path d="M25.75,9,26.69,7c.29,0,.23.32.29.5.31.83.14,1.14-.72,1.35a3.31,3.31,0,0,1-.55.06Z"/><path d="M79,2.72c.35.52.09,1-.09,1.51,0,.09-.22.16-.33.15a.41.41,0,0,1-.29-.23,1,1,0,0,1,0-.62A5.57,5.57,0,0,1,79,2.72Z"/><path d="M252.6,2l-1,0L251.29.9c.76.08,1.26.29,1.3,1Z"/><path d="M157.46,1.52l.49.59a6,6,0,0,1-1.26.47c-.33-.23-.38-.45-.05-.65S157.17,1.66,157.46,1.52Z"/><path d="M162.75,1c-.3.21-.51.48-.71.48s-.54-.32-.62-.65c0-.1.08-.34.12-.34a2.85,2.85,0,0,1,.77.09C162.42.65,162.5.8,162.75,1Z"/><path d="M129.4,4.89a3.2,3.2,0,0,1-.74.13.64.64,0,0,1-.41-.27.5.5,0,0,1,.3-.66.59.59,0,0,1,.48.06A3,3,0,0,1,129.4,4.89Z"/><path d="M112.05,1.52a5.32,5.32,0,0,1-.72-.22.41.41,0,0,1-.12-.68.64.64,0,0,1,.45-.2.56.56,0,0,1,.34.35A3.22,3.22,0,0,1,112.05,1.52Z"/><path d="M107.7.38l1.14.23a1,1,0,0,1,0,.39.44.44,0,0,1-.55.3C107.89,1.21,107.63,1,107.7.38Z"/><path d="M121.7,1.3a6.34,6.34,0,0,1-1-.36c-.15-.09-.21-.32-.4-.62a3.54,3.54,0,0,1,.65,0C121.4.44,121.53.79,121.7,1.3Z"/><path d="M74,1.33,74.41.05c.13.1.28.16.31.25C74.91.91,74.88,1,74,1.33Z"/><path d="M25.82,3.3l-.78,1c-.11-.24-.26-.4-.23-.52C24.91,3.36,25.26,3.26,25.82,3.3Z"/><path d="M151.57,1.62c-.36.25-.54,0-.74-.14s-.15-.3-.12-.32.38-.21.43-.16A2.84,2.84,0,0,1,151.57,1.62Z"/><path d="M124,3.25l-1.21.24.21-.93Z"/><path d="M39.34,7.49C39.17,7.28,39,7.18,39,7a.38.38,0,0,1,.32-.49c.25-.06.51.12.44.34A2.38,2.38,0,0,1,39.34,7.49Z"/><path d="M267.29,1.12c.46-.46.77-.52,1.08-.19.08.08.09.23.13.35s-.17.08-.24.07C268,1.3,267.75,1.23,267.29,1.12Z"/><path d="M96.41,1.46c-.28-.33-.19-.63,0-1C96.76,1.05,96.76,1.05,96.41,1.46Z"/><path d="M67.12,1.88c-.54-.57-.54-.57-.08-1C67.42,1.23,67,1.56,67.12,1.88Z"/><path d="M87.22,2.09l-.54-.66c.18-.28.41-.33.6-.21S87.42,1.67,87.22,2.09Z"/><path d="M136.43,1.4c-.07,0-.18-.07-.21-.14a.55.55,0,0,1,.13-.71.27.27,0,0,1,.23,0,.49.49,0,0,1,.08.71C136.61,1.36,136.51,1.37,136.43,1.4Z"/><path d="M256.92,1.35l-.78.62C256,1.32,256.07,1.24,256.92,1.35Z"/><path d="M109,4.09a5.12,5.12,0,0,1,.75-.26c.43-.09.5.21.57.61A3,3,0,0,1,109,4.08Z"/><path d="M64.35,10.34a2.27,2.27,0,0,1,.43.19.25.25,0,0,1,.07.22.23.23,0,0,1-.19.13,1.67,1.67,0,0,1-.48-.15.25.25,0,0,1-.07-.22C64.13,10.45,64.24,10.42,64.35,10.34Z"/><path d="M6.6,9.87c-.17-.17-.34-.28-.33-.34a1.49,1.49,0,0,1,.26-.41c.09.07.27.15.27.23A2.06,2.06,0,0,1,6.6,9.87Z"/><path d="M113.59,3.85c-.17-.06-.3-.07-.32-.12a.39.39,0,0,1,.22-.53s.21.06.21.08C113.67,3.47,113.63,3.65,113.59,3.85Z"/><path d="M291.51,3.83l-.28-.15c.08-.08.15-.19.25-.23s.15.07.23.11Z"/><path d="M246.73,1.23a.41.41,0,0,1,.64.07.28.28,0,0,1,0,.23c0,.05-.16.11-.2.08A5,5,0,0,1,246.73,1.23Z"/><path d="M219.71.69c.21.05.41.09.61.15a.13.13,0,0,1,.07.1s0,.09-.07.09L219.68,1Z"/><path d="M62,3.54l-.22-.43A2.74,2.74,0,0,1,62,3a2.52,2.52,0,0,1,.24.42Z"/><path d="M277.93,1l-.38-.15c.07-.09.14-.23.23-.24s.24.06.36.1Z"/><path d="M146.3,4.3a3.07,3.07,0,0,1-.24-.48c-.07-.27.08-.42.35-.49.32.38,0,.65-.15.94Z"/><path d="M131.53,4.44a1.88,1.88,0,0,1-.24-.47c0-.05.19-.19.26-.17a.34.34,0,0,1,.23.25C131.79,4.13,131.67,4.24,131.53,4.44Z"/><path d="M51.83,1.35l-.42.23c0-.09-.07-.2,0-.25a1.23,1.23,0,0,1,.28-.23Z"/><path d="M191.62,1.29l-.34-.46c.07,0,.15-.12.22-.12.26,0,.46.23.38.41S191.75,1.21,191.62,1.29Z"/><path d="M55.3,1.56c-.11-.14-.24-.24-.24-.33s.18-.22.26-.21a.41.41,0,0,1,.25.25C55.58,1.33,55.42,1.44,55.3,1.56Z"/><path d="M115,4.91a2.33,2.33,0,0,1-.25.07c-.25,0-.53.11-.7-.19a.16.16,0,0,1,0-.12c.31-.27.44.1.65.19l.25.07Z"/><path d="M6.93,11.66a2,2,0,0,1,.53-.21s.19.21.16.28a.38.38,0,0,1-.28.21C7.25,12,7.15,11.82,6.93,11.66Z"/><path d="M130.64,1.16a1.37,1.37,0,0,1-.4.14c-.05,0-.17-.15-.16-.18a2,2,0,0,1,.24-.27Z"/><path d="M238.37,8.4c0,.12.06.29,0,.37a.38.38,0,0,1-.34.08,2.37,2.37,0,0,1-.48-.42l0,.05.89-.05Z"/><path d="M55.78,4l-.17.21A1.38,1.38,0,0,1,55.42,4s.08-.11.13-.17Z"/><path d="M256.11,3c0-.12-.09-.24-.07-.25a1.83,1.83,0,0,1,.32-.14c0,.08.09.19.06.21A1.33,1.33,0,0,1,256.11,3Z"/><path d="M179.14.89a.6.6,0,0,1-.16.19,2.37,2.37,0,0,1-.34.13c0-.08-.07-.23,0-.24a3.5,3.5,0,0,1,.46-.14S179.12.88,179.14.89Z"/><path d="M125.44,3.47a1.11,1.11,0,0,1,.19-.09s.06.07.05.09a1,1,0,0,1-.12.17Z"/><path d="M176.25,1.12l-.19-.26c.06,0,.16-.11.2-.09a1.29,1.29,0,0,1,.24.23Z"/><path d="M130.55,4.83c-.08.08-.15.18-.19.17a1.24,1.24,0,0,1-.3-.16c.05,0,.11-.15.16-.15A1.3,1.3,0,0,1,130.55,4.83Z"/><path d="M187.21,1.3c-.08-.1-.18-.21-.18-.22a1.18,1.18,0,0,1,.28-.22s.16.16.14.18A2,2,0,0,1,187.21,1.3Z"/><path d="M127.45,5.44l-.16-.19c.07,0,.15-.12.2-.1s.11.12.16.19Z"/><path d="M246.32,1.72l.19.28c-.06,0-.13.11-.18.1a.33.33,0,0,1-.16-.17S246.25,1.82,246.32,1.72Z"/><path d="M1.52,12.23l-.28-.17a2.42,2.42,0,0,1,.32-.32s.13.08.2.12Z"/><path d="M3.88,11.94a2.63,2.63,0,0,1-.13.24A3,3,0,0,1,3.44,12c0-.07.08-.2.11-.2A1.6,1.6,0,0,1,3.88,11.94Z"/><path d="M139.27.82a1.85,1.85,0,0,1-.22-.29s.07-.12.11-.18a1.6,1.6,0,0,1,.26.26S139.34.73,139.27.82Z"/><path d="M94.4.18l-.18.13s-.08-.07-.07-.1a1,1,0,0,1,.11-.2C94.31.07,94.35.13,94.4.18Z"/><path d="M307.58,2.24l.2-.11s.06.1.05.11l-.19.11Z"/><path d="M85.18,1.57l.13-.26a1.33,1.33,0,0,1,.26.21s-.07.13-.1.2Z"/><path d="M45.09,3.13,45,3c.06,0,.12-.13.18-.13s.09.1.14.16Z"/><path d="M62.05,5.44a1.84,1.84,0,0,1,0-.41c0-.06.11-.09.17-.14a.3.3,0,0,1,.07.1.15.15,0,0,1,0,.13c-.09.1-.2.19-.3.29Z"/><path d="M203,.9l-.3-.6c.43.08.42.3.27.56Z"/><path d="M203,.86a4.49,4.49,0,0,1-.36.39.54.54,0,0,1-.18-.14.17.17,0,0,1,0-.11L203,.9Z"/><path d="M186.59,2.07l.19.11s0,.12,0,.12a1.64,1.64,0,0,1-.23,0A2.41,2.41,0,0,1,186.59,2.07Z"/><path d="M76.23.68c0-.06-.07-.12-.1-.19l.19,0s.06.08.05.1Z"/><path d="M77.77,1.08l-.14.16a1.51,1.51,0,0,1-.09-.18S77.6,1,77.6,1Z"/><path d="M140.76,5.52s-.1,0-.1,0a1.62,1.62,0,0,1,0-.2,1,1,0,0,1,.17.1S140.78,5.49,140.76,5.52Z"/><path d="M151.64,4.22,151.53,4a.84.84,0,0,1,.2,0s.07.09.06.11A1.14,1.14,0,0,1,151.64,4.22Z"/><path d="M76.67,10s0-.07,0-.09.06,0,.09,0,0,.06,0,.09S76.7,9.94,76.67,10Z"/><path d="M78.13,5.36,78.7,5l0,0c0,.52,0,.52-.55.31Z"/><path d="M177.2,1.6s0,.07,0,.1,0,0-.07.06l-.06-.15Z"/><polygon points="152.51 7.46 152.44 7.54 152.41 7.45 152.51 7.46"/><path d="M143.12,3.29s0,.08-.06.1a.23.23,0,0,1-.12,0,1.11,1.11,0,0,1,.07-.16Z"/><path d="M11,9.19l.05-.12.17.1s-.07.06-.11.06S11.07,9.2,11,9.19Z"/><path d="M.14,11.22l-.1,0s0-.08,0-.1.06,0,.1-.05Z"/><path d="M49.47,2.48s-.1,0-.12,0,0-.09,0-.13l.18,0Z"/><path d="M60.8,9.69s.07-.07.11-.07l.35,0-.08.23c-.1,0-.2-.06-.3-.11s0-.08-.05-.11Z"/><polygon points="57.25 3.44 57.13 3.46 57.18 3.36 57.25 3.44"/><path d="M47.57,2l.12-.05,0,.1Z"/><path d="M125.34,1.88s0-.07,0-.11,0-.07,0-.11a1.1,1.1,0,0,1,.09.14S125.37,1.85,125.34,1.88Z"/><path d="M65.8.13c.06,0,.1,0,.12.06s0,.06,0,.09Z"/><path d="M46,1.86s-.07,0-.09,0,0,0,0-.09.07,0,.09,0S46,1.83,46,1.86Z"/><polygon points="283.12 1.22 283.14 1.14 283.22 1.19 283.12 1.22"/><path d="M12.08,9.21s-.05-.09,0-.12.07,0,.11-.06,0,.09,0,.12S12.12,9.19,12.08,9.21Z"/><polygon points="278.22 1.74 278.12 1.71 278.2 1.66 278.22 1.74"/><polygon points="276.05 0.78 276.14 0.77 276.11 0.85 276.05 0.78"/><path d="M255,3.27l.12,0-.07.17Z"/><path d="M182.19,2l.1,0s0,.09,0,.1-.06,0-.1,0Z"/><path d="M239.67.89,239.6.76l.1,0Z"/><path d="M225.12.7s0,.07-.06.08-.06,0-.08,0l.09-.13Z"/><polygon points="222.77 2.5 222.89 2.49 222.85 2.59 222.77 2.5"/><polygon points="221.9 2.17 221.84 2.12 221.91 2.09 221.9 2.17"/><polygon points="144.1 3.68 144.18 3.66 144.15 3.74 144.1 3.68"/><path d="M134.55,3.36a1.15,1.15,0,0,1-.26,0s-.08-.1-.12-.16a.42.42,0,0,1,.12,0l.23.14Z"/><polygon points="131.71 3.03 131.64 2.98 131.72 2.95 131.71 3.03"/><polygon points="107.8 2.4 107.74 2.47 107.71 2.39 107.8 2.4"/><polygon points="106.64 1.39 106.56 1.41 106.59 1.33 106.64 1.39"/><path d="M114.89,3.79l0-.25c0,.09,0,.17,0,.27S114.89,3.79,114.89,3.79Z"/><path d="M252.59,2l.25,0-.23,0A0,0,0,0,1,252.59,2Z"/><path d="M253.83,4.11l.26,0-.27,0Z"/><path d="M284.42,3.34l-.17,0,.16,0Z"/><polygon points="86.34 2.86 86.27 2.82 86.35 2.78 86.34 2.86"/><path d="M66.26,10.54l.19,0h-.08a.47.47,0,0,0-.1.05Z"/></g></g></svg>