<svg xmlns="http://www.w3.org/2000/svg" xmlns:xlink="http://www.w3.org/1999/xlink" width="59.746" height="60" viewBox="0 0 59.746 60">
  <defs>
    <clipPath id="clip-path">
      <rect id="Rectangle_19" data-name="Rectangle 19" width="31.602" height="30" fill="none"/>
    </clipPath>
    <clipPath id="clip-path-2">
      <rect id="Rectangle_111" data-name="Rectangle 111" width="59.746" height="60" fill="none"/>
    </clipPath>
  </defs>
  <g id="Group_191" data-name="Group 191" transform="translate(-102 -586.069)">
    <g id="Group_31" data-name="Group 31" transform="translate(115.768 601.288)">
      <g id="Group_30" data-name="Group 30" transform="translate(0 0)" clip-path="url(#clip-path)">
        <path id="Path_349" data-name="Path 349" d="M29.352,10.987c-.023.039-.036.1-.07.113-.523.259-1.048.512-1.674.817-.187.155-.055.47-.083.752l.011-.007c-.19.108-.312.328-.6.266-.259-.054-.434.112-.517.359a.841.841,0,0,0-.09.33c.042.342-.341.4-.411.66l-.709.063-.5.438a.973.973,0,0,0,.187.24,1.959,1.959,0,0,0,.362.155c-.116.367-.16.428-.324.33-.232-.137-.455.012-.651-.09-.307.218-.5.52-.853.624-.1.03-.163.2-.259.334a4.758,4.758,0,0,0,.437.553c.367.346.765.659,1.131,1.006a5.593,5.593,0,0,1,.69.768,2.992,2.992,0,0,0,.909.9.558.558,0,0,1,.193.2c.143.245.412.361.579.555s.348.359.522.537c.064.065.124.157.2.179a.782.782,0,0,1,.5.519,2.309,2.309,0,0,0,.386.476c.094.113.168.26.064.375-.157.175-.087.336-.044.514a4.578,4.578,0,0,0,.382,1.244.745.745,0,0,1-.186.944c-.208.213-.4.43-.6.658a1.75,1.75,0,0,1-1.011.581,2.921,2.921,0,0,1-.073.47c-.047.145-.106.346-.218.4-.2.094-.106.3-.219.4a1.462,1.462,0,0,1-.212.174c-.369.232-.742.457-1.111.691-.116.073-.213.177-.332.241a1.277,1.277,0,0,1-.435.167c-.143.017-.269.011-.352.154a.332.332,0,0,1-.425.141.911.911,0,0,0-.96.216c-.3.256-.688.235-1.024.373a.613.613,0,0,1-.459-.087,1.606,1.606,0,0,1-.634-.509c-.142-.276-.394-.363-.588-.542a5.609,5.609,0,0,1-.6-.564c-.369-.46-.957-.718-1.187-1.306a.424.424,0,0,0-.193-.191,4,4,0,0,1-.968-.873,4.714,4.714,0,0,0-.679-.581c-.6-.425-1.211-.836-1.825-1.242-.191-.126-.409-.211-.608-.325a.712.712,0,0,0-.815.079l-.329.658-.468.021c-.01.043-.041.1-.026.125.071.134.047.227-.1.258a1.741,1.741,0,0,1-.309,0c-.175.334-.353.674-.534,1.014a.367.367,0,0,1-.325.217.809.809,0,0,0-.672.426A10.393,10.393,0,0,1,9.5,27.649c-.028.035-.076.086-.106.08-.475-.089-.627.423-1,.509-.013.089-.019.158-.034.224-.074.349-.132.476-.422.411s-.306.256-.523.23c-.254-.03-.269.2-.35.355a1.173,1.173,0,0,1-.541.517c-.165.082-.341.144-.5.24a.844.844,0,0,1-1.027-.07,3.842,3.842,0,0,0-.736-.5c-.041-.019-.095-.041-.112-.077-.243-.5-.8-.758-.995-1.3a.8.8,0,0,0-.248-.323A25.345,25.345,0,0,1,.891,26.086C.717,25.912.5,25.8.4,25.542A.511.511,0,0,1,.4,25.026a.407.407,0,0,0,0-.327,3.333,3.333,0,0,1-.216-1.264,1,1,0,0,0-.055-.323.421.421,0,0,1,.036-.457.5.5,0,0,0,.106-.507c-.087-.5-.176-.992-.269-1.518a1.774,1.774,0,0,1,.167-.274c.233-.267.319-.266.613-.028.225.183.255.179.591-.1-.073-.083-.146-.165-.216-.25s-.135-.169-.242-.3c.247-.077.437-.141.629-.194.245-.067.228-.321.367-.506H3.367a2.453,2.453,0,0,1,.159-.419,2.312,2.312,0,0,1,.308-.37c.152-.163-.021-.34.039-.537.15.012.306.037.462.034.354-.007.486-.128.594-.512a1.143,1.143,0,0,1,.034-.132c.018-.042.037-.1.072-.116.425-.2.418-.765.819-.987l-.019-.023c.058.163.094.342.32.417a1.734,1.734,0,0,0,.535-.552l-.015.019c.333-.223.723-.375.926-.758l0,0c.165-.122.335-.236.493-.367.127-.106.416.009.4-.272-.01-.2-.256-.169-.352-.293A.161.161,0,0,1,8.1,13.98c.023-.058.065-.136.116-.15a1.436,1.436,0,0,1,.271-.006c.167-.013.167-.017.465-.245-.054-.307-.4-.17-.522-.329a1.735,1.735,0,0,0,.157-.368.192.192,0,0,0-.245-.234c-.342.144-.459-.051-.519-.3-.311-.1-.383.128-.515.307-.211.063-.4-.221-.639-.083-.17.1-.422.024-.553.277.054.024.106.071.152.065a1.645,1.645,0,0,1,.333-.073c.153.016.332.035.4.223.037.111-.1.252-.3.325a.573.573,0,0,1-.527,0c-.1-.058-.254-.022-.377-.028-.12-.615-.12-.615-.515-.777l.23-.366a2.414,2.414,0,0,1-.26-.286,1.955,1.955,0,0,1-.143-.337l-.478-.032c-.018-.059-.072-.14-.051-.184.1-.2.127-.362-.087-.53-.076-.06-.048-.252-.074-.427-.052-.013-.137-.04-.223-.053-.191-.03-.262-.148-.289-.33-.07-.462-.076-.461-.546-.476a1.836,1.836,0,0,1-.51-.784.76.76,0,0,0-.413-.431c-.424-.173-.527-.627-.853-.874.081-.252-.288-.453-.072-.735.074-.1-.011-.224-.132-.272S1.121,6.382.955,6.33c.078-.137.187-.245.194-.36s-.1-.242-.129-.369a.926.926,0,0,1,.425-1.063c.181-.113.227-.282.32-.433.171-.277.318-.568.7-.616A.462.462,0,0,0,2.7,3.356a4,4,0,0,1,1.622-.7,3.421,3.421,0,0,1,.473-.071A.638.638,0,0,0,5.1,2.476,1.268,1.268,0,0,1,6.26,2.168a2.505,2.505,0,0,0,.314,0l.1-.49c.2-.064.411-.128.622-.2.332-.119.331-.123.677.16V1.127L9.338.551c.21.149.362.335.541.366.2.035.3.162.446.248a1.729,1.729,0,0,0,.592.108l.289-.3a.574.574,0,0,1,.44.483.481.481,0,0,0,.274.367.331.331,0,0,1,.133.213c.1.481.094.48.535.463a1.761,1.761,0,0,1,.226.022A3.865,3.865,0,0,0,14.1,4.011c.057.378-.1.8.13,1.177.278.043.094-.287.264-.311.132-.021.176.06.19.156.025.176.04.353.057.507.172.128.209-.055.3-.087.03.028.077.052.084.084a.586.586,0,0,1,.012.206c-.026.2.4.213.2.506a2.16,2.16,0,0,0-.143.5.256.256,0,0,0,.042.3c.252.3.251.319.024.625a.6.6,0,0,0-.108.518c.045.222.24.327.4.176a.781.781,0,0,1,.4-.155,2,2,0,0,0,.977-.605,5.1,5.1,0,0,1,1.021-1.019,1.442,1.442,0,0,0,.32-.359,6.121,6.121,0,0,1,.827-.918.861.861,0,0,0,.255-.323,1.6,1.6,0,0,1,.687-.757,5.919,5.919,0,0,0,.968-.853c.347-.369.357-.36,1.016-.529a1.527,1.527,0,0,0,.507-.937,1.092,1.092,0,0,0,.67-.466,2.648,2.648,0,0,1,.6-.557A.52.52,0,0,1,24.13.776a1.27,1.27,0,0,1,1.069.378c.028.036.06.084.1.1.568.159.932.661,1.474.868a1.363,1.363,0,0,1,.81.611.2.2,0,0,0,.039.057c.541.5,1.061,1.016,1.629,1.477s1.07,1.006,1.6,1.516c.125.122.284.223.29.447.007.285.247.563.018.858-.023.03-.007.089-.01.169A1.145,1.145,0,0,1,31.491,8.7a.729.729,0,0,1-.422.519c-.511.165-.7.614-.963,1a2.171,2.171,0,0,1-.763.773c0-.045,0-.089-.007-.133,0,.041.011.082.016.122M9.88,11.071l-.179.137.178.146c-.063.422-.063.422.3.624l.359-.16c.155.208.283.4.429.57s-.1.521.266.6a.311.311,0,0,1-.027.178,1.477,1.477,0,0,1-.225.148c-.027.019-.035.064-.051.1l.245.163v.806c.335.15.41.469.417.839a2.077,2.077,0,0,1-.1,1.032L11,15.927a1.37,1.37,0,0,0-.429.646.8.8,0,0,1-.226.412,3.564,3.564,0,0,1-1.224.756,2.751,2.751,0,0,0-.917.452.95.95,0,0,1-.78.177,5.344,5.344,0,0,0-.828-.008,2.878,2.878,0,0,0-1-.037l.293.466.719-.445c.008.176.02.353.021.529,0,.034-.044.068-.067.1l-.422.03.251.34a3.1,3.1,0,0,1-.566.151,3.361,3.361,0,0,1-.6-.055l0,.009q.036-.214.072-.428c-.467-.088-.542.384-.911.6a1.289,1.289,0,0,1,.861.484l-.664.143c-.021-.181-.078-.315-.348-.219l.366.2-.742.839c.119.167.306.309.208.582-.242.212-.583.394-.616.822-.006.083-.163.149-.236.235s-.153.216-.222.314a14.988,14.988,0,0,0,1.246,1.685c.324.169.392.551.648.783a.814.814,0,0,1,.2.434,1.71,1.71,0,0,1-.026.442c.168.128.323.272.516.185.349-.159.683-.351.965-.5.084-.369.13-.665.222-.946a.481.481,0,0,1,.531-.359,2.022,2.022,0,0,0,1.412-.457,7.647,7.647,0,0,1,1.048-.667,3.679,3.679,0,0,0,1.111-.877,1.861,1.861,0,0,1,.647-.5,1.893,1.893,0,0,0,.642-.5c.409-.422.742-.954,1.38-1.089.205-.274.557-.17.809-.313a1.234,1.234,0,0,1,.937-.027.529.529,0,0,0,.683-.314.368.368,0,0,1,.467-.2c.089.019.181.029.243.039.327.333.619.659.941.953a15.459,15.459,0,0,1,1.308,1.508c.134.157.133.37.306.528.508.466.977.974,1.458,1.469a1.233,1.233,0,0,1,.3.373c.236.629.83.975,1.177,1.517a.65.65,0,0,0,.8.252,9.931,9.931,0,0,1,1.255-.36,5.6,5.6,0,0,0,1.247-.51,1.774,1.774,0,0,0,1.046-1.291l-1.461-1.4a1.61,1.61,0,0,1-1.572-.587c-.252-.235-.477-.5-.709-.755a2.375,2.375,0,0,1-.252-.328c-.192-.306-.318-.661-.715-.793-.084-.028-.124-.183-.186-.278-.149-.229-.248-.538-.458-.667a1.774,1.774,0,0,1-.633-1.016,1.408,1.408,0,0,0-.309-.593,1.145,1.145,0,0,1-.374-.929,2.557,2.557,0,0,0-.126-.671,3.988,3.988,0,0,0-.533-1.005,2.732,2.732,0,0,1,.468-.164,1.435,1.435,0,0,0,.851-.422,2.549,2.549,0,0,1,.8-.5,1.819,1.819,0,0,0,.2-.38,3.15,3.15,0,0,1,.97-1.475c.181-.175.3-.435.5-.568a1.378,1.378,0,0,0,.439-.553.588.588,0,0,1,.612-.362.949.949,0,0,0,.341-.088c.048-.077.1-.153.144-.231a.908.908,0,0,1,.56-.451c.216-.059.4-.242.612-.3.3-.082.3-.374.469-.542a1.043,1.043,0,0,1,.154-.139c.268-.175.42-.484.737-.614.1-.043.237-.241.213-.327-.081-.282.12-.359.265-.5a2.373,2.373,0,0,0,.26-.362,14.509,14.509,0,0,0-3.484-2.659c-.07.1-.152.161-.168.239-.121.582-.654.877-.923,1.355-.687.46-1.231,1.1-1.97,1.5a1.806,1.806,0,0,0-.676.572,3.058,3.058,0,0,1-.783.86c-.312.23-.48.626-.887.753-.087.027-.149.166-.2.264a4.072,4.072,0,0,0-.16.395c-.129.052-.258.1-.382.155a1.029,1.029,0,0,0-.61.527c-.024.062-.087.107-.124.165-.145.225-.418.164-.617.277-.223.127-.247.468-.544.5-.341.035-.511.273-.674.551l-.145-.333-1.073.1c.111-.413.108-.406-.229-.54-.145-.058-.341-.121-.4-.237-.175-.358-.621-.5-.7-.926-.01-.054-.085-.109-.143-.138A1.7,1.7,0,0,1,11.865,9.29c-.223-.132-.4-.235-.576-.341-.237-.143-.038-.459-.282-.645a3.653,3.653,0,0,1-1.27-.721.541.541,0,0,1-.24-.664,1.8,1.8,0,0,0,.122-.809c-.012-.077.121-.176.2-.283L9.7,5.353l-.825-.712h-.7c-.042.147-.044.328-.135.43a1.191,1.191,0,0,1-.5.336.8.8,0,0,0-.5.475h-.6c-.054.32-.1.606-.149.885a1.227,1.227,0,0,1,.63.642l-.162.327c.476-.006.654.329.923.578l-.25.415c.06.205.127.36.371.354.573-.014.589,0,.738.552a2.64,2.64,0,0,0,.1.254l.5.237-.1.392.422-.038.409.592m4.04-2c-.311-.129-.4.11-.565.224l.233.731a1.935,1.935,0,0,1,.389-.022,1.9,1.9,0,0,1,.366.126,1,1,0,0,0,.583-.712l-.316-.152c.013-.054.012-.085.025-.1.036-.027.087-.037.117-.069a1.047,1.047,0,0,0,.1-.153c-.078-.022-.186-.087-.23-.057a.994.994,0,0,0-.464.652c-.013.069-.1.123-.237.285ZM9.631,17.114c-.463-.19-.838-.352-1.182.068-.047.057-.165.057-.251.083s-.176.046-.142.194a2.658,2.658,0,0,0,1.575-.344m2.462-9.578c.428.844.428.844.779,1-.06-.358-.337-.587-.453-.86l.135-.264c-.265-.06-.265-.06-.46.122M9.76,3.928c-.043-.034-.094-.107-.141-.1-.149.007-.228.224-.423.14-.116-.05-.236-.017-.252.13s.11.184.212.225c.25.1.516-.067.6-.39M6.347,11.577c-.018-.169-.076-.335.18-.411.119-.035.051-.266-.089-.305-.157-.044-.281.055-.321.259-.074.363-.048.415.23.457M11.831,7.2c.088-.064.181-.1.183-.138a1.634,1.634,0,0,0-.046-.385c0-.022-.077-.046-.114-.04a.266.266,0,0,0-.206.3,1.068,1.068,0,0,0,.183.264M8.464,12.116c.117-.133.234-.208.237-.287a.382.382,0,0,0-.158-.264c-.09-.065-.206.078-.2.275,0,.07.06.14.123.276m6.447-3.923c-.1-.089-.181-.193-.2-.181a.472.472,0,0,0-.218.2.122.122,0,0,0,.137.165c.086-.016.16-.1.286-.181M7.126,9.931c-.091.115-.171.206-.239.308a.124.124,0,0,0,.025.116.121.121,0,0,0,.116.014.281.281,0,0,0,.1-.439M5.092,18.007c-.069.08-.151.145-.14.167a.868.868,0,0,0,.155.182c.053-.058.14-.112.147-.175.005-.047-.094-.105-.162-.174M11.273,1.889A.919.919,0,0,0,11.1,1.8c-.017-.005-.052.049-.079.077a.8.8,0,0,0,.147.106c.014.006.056-.05.1-.094M7.109,5.059a.4.4,0,0,0,.1-.011c.1-.047.209-.087.155-.233a.185.185,0,0,0-.036-.05.875.875,0,0,0-.185.136c-.029.034-.022.1-.033.158m4.28.636c-.048-.077-.063-.131-.1-.148-.069-.035-.172.077-.157.176.006.039.048.071.075.107l.178-.135m2.6-.4a1.9,1.9,0,0,0-.289-.133c-.034-.008-.077.026-.116.041.02.052.029.133.065.149s.113-.014.34-.057m-3.7-1.008c-.046.044-.1.073-.1.1a.152.152,0,0,0,.069.106c.025.012.073-.02.111-.032l-.084-.17m3.007,1.377c-.029.028-.081.055-.08.082s.046.064.072.1l.112-.112-.1-.065M6.583,11.932c-.052.031-.114.054-.112.07a.87.87,0,0,0,.056.172c.04-.029.108-.053.112-.086s-.034-.1-.056-.156m6.67,11.381c-.04.015-.1.02-.113.048s.019.078.031.118l.153-.068-.071-.1M9.769,16.562h.215v-.049H9.769ZM14,7.755l.074-.092c-.034-.024-.067-.064-.1-.065s-.046.057-.069.088l.1.069M2.688,19.409l-.09-.076-.1.121a.3.3,0,0,0,.116.03c.028,0,.048-.048.072-.075m10.5-14.757.075.076c.01-.017.033-.042.028-.049a.464.464,0,0,0-.069-.071l-.034.044M12.124,3.8l-.061,0,.041.09c.015-.012.041-.023.043-.037s-.015-.038-.023-.057m.363,3.121L12.568,7c.01-.018.034-.045.029-.051a.613.613,0,0,0-.077-.077l-.032.051M9.556,1.592l-.035.038.073.034c0-.017.013-.038.007-.049s-.03-.016-.045-.023M4.511,18.71l.044,0-.018-.051ZM1.545,19.889l.041-.019-.041-.018ZM12.617,3.272l.054-.025-.053-.025ZM10.654,5.407,10.615,5.4l.014.045ZM23.084,21.5l.029-.042-.046-.007ZM5.344,10.041a.115.115,0,0,0-.016.045c0,.006.024.011.038.017a.115.115,0,0,0,.015-.045c0-.007-.024-.011-.037-.017" transform="translate(0.001 -0.356)" fill="#161615"/>
        <path id="Path_350" data-name="Path 350" d="M16.53,41.251c0-.069,0-.138-.012-.206a.411.411,0,0,1,.323-.516,5.356,5.356,0,0,0,.689-.318V39.7l.533.152-.019-.02-.4.823-.375.078c.027.131.051.255.076.379l.015-.019c-.085.022-.2.016-.25.07-.19.211-.4.11-.6.066Z" transform="translate(-10.676 -25.67)" fill="#161615"/>
        <path id="Path_351" data-name="Path 351" d="M29.877.1l-.3.471A.523.523,0,0,1,29.22,0,2.436,2.436,0,0,0,29.539.1a2.567,2.567,0,0,0,.338,0" transform="translate(-18.893 -0.001)" fill="#161615"/>
        <path id="Path_352" data-name="Path 352" d="M20.87,39.623c.006-.078-.017-.2.022-.225a.253.253,0,0,1,.352.041c.024.031,0,.133-.04.174-.114.128-.236.057-.353-.01Z" transform="translate(-13.483 -25.442)" fill="#161615"/>
        <path id="Path_353" data-name="Path 353" d="M7.987,51.541a1.2,1.2,0,0,1-.208.116c-.012,0-.059-.088-.089-.135A2.288,2.288,0,0,1,7.9,51.41a.969.969,0,0,1,.083.131" transform="translate(-4.972 -33.242)" fill="#161615"/>
        <path id="Path_354" data-name="Path 354" d="M9.034,50.491c-.065-.162-.123-.237-.1-.278a.437.437,0,0,1,.173-.156c.014-.009.1.049.095.06-.023.075-.06.146-.163.374" transform="translate(-5.772 -32.367)" fill="#161615"/>
        <path id="Path_355" data-name="Path 355" d="M19.124,38.394l.017.055-.088.007c.006-.019.007-.042.019-.054s.034-.006.052-.007" transform="translate(-12.32 -24.826)" fill="#161615"/>
        <path id="Path_356" data-name="Path 356" d="M66.113,82.506H66.07l.023-.045Z" transform="translate(-42.722 -53.32)" fill="#161615"/>
        <path id="Path_357" data-name="Path 357" d="M77.889,34.754l.119-.047a.133.133,0,0,1-.039.029c-.021.006-.043,0-.067.008l-.013.01" transform="translate(-50.364 -22.442)" fill="#161615"/>
        <path id="Path_358" data-name="Path 358" d="M21.378,41.543l-.07.007.066-.012,0,0" transform="translate(-13.778 -26.859)" fill="#161615"/>
        <path id="Path_359" data-name="Path 359" d="M12.526,45.407v-.045l.045.023Z" transform="translate(-8.099 -29.331)" fill="#161615"/>
        <path id="Path_360" data-name="Path 360" d="M20.486,52.074a.447.447,0,0,1,0-.052c.036,0,.072,0,.108,0a.352.352,0,0,1,0,.053c-.036,0-.072,0-.107,0" transform="translate(-13.246 -33.636)" fill="#161615"/>
        <path id="Path_361" data-name="Path 361" d="M14.811,54c0,.042,0,.085,0,.128,0-.037,0-.075,0-.116a.028.028,0,0,1,0-.012" transform="translate(-9.576 -34.92)" fill="#161615"/>
        <path id="Path_362" data-name="Path 362" d="M27.9,30.594q0-.155,0-.31c.08.1.134.207,0,.31" transform="translate(-18.037 -19.582)" fill="#161615"/>
      </g>
    </g>
    <g id="Group_153" data-name="Group 153" transform="translate(102 586.069)">
      <g id="Group_152" data-name="Group 152" clip-path="url(#clip-path-2)">
        <path id="Path_4304" data-name="Path 4304" d="M19.066,24.38c-.047.06-.1.1-.1.139s.042.068.076.083l.1-.127c-.018-.027-.046-.057-.075-.095" transform="translate(-9.734 -12.514)" fill="#161615"/>
        <path id="Path_4305" data-name="Path 4305" d="M16.666,27.387l.113.22c.026-.048.05-.1.077-.143l-.19-.078" transform="translate(-8.555 -14.058)" fill="#161615"/>
        <path id="Path_4306" data-name="Path 4306" d="M17.63,26.52l.015.01.011-.017-.026.006" transform="translate(-9.05 -13.61)" fill="#161615"/>
        <path id="Path_4307" data-name="Path 4307" d="M15.057,30.818c0,.018,0,.035,0,.052.01-.019.021-.038.032-.057l-.036,0" transform="translate(-7.729 -15.816)" fill="#161615"/>
        <path id="Path_4308" data-name="Path 4308" d="M85.751,107.931c-.166-.019-.325.01-.313.2,0,.072.162.176.263.195a2.685,2.685,0,0,0,.411.033,2.427,2.427,0,0,1,.118-.387c-.18-.015-.33-.027-.478-.043" transform="translate(-43.855 -55.399)" fill="#161615"/>
        <path id="Path_4309" data-name="Path 4309" d="M94.528,105.048a4.613,4.613,0,0,1,.067-.518c-.3.216-.324.264-.067.518" transform="translate(-48.43 -53.656)" fill="#161615"/>
        <path id="Path_4310" data-name="Path 4310" d="M27.19,15.247c-.017-.006-.075.037-.073.054a.432.432,0,0,0,.052.12l.1-.048.029-.048a.379.379,0,0,0-.1-.078" transform="translate(-13.919 -7.826)" fill="#161615"/>
        <path id="Path_4311" data-name="Path 4311" d="M83.025,108.193a.74.74,0,0,0,.045.088l.084-.154-.129.066" transform="translate(-42.617 -55.502)" fill="#161615"/>
        <path id="Path_4312" data-name="Path 4312" d="M11.712,38.58a.182.182,0,0,0-.132.067c-.012.014.034.077.061.131l.153-.084v0c-.027-.04-.051-.107-.083-.111" transform="translate(-5.943 -19.803)" fill="#161615"/>
        <path id="Path_4313" data-name="Path 4313" d="M81.719,107.4c.027.062.162.131.241.2.068-.092.173-.176.2-.278a.639.639,0,0,0,0-.191.715.715,0,0,0-.283.111.456.456,0,0,0-.159.162" transform="translate(-41.947 -54.988)" fill="#161615"/>
        <path id="Path_4314" data-name="Path 4314" d="M27.01,12.12a.682.682,0,0,0-.119.174l.065.055.27-.2-.037-.075a.5.5,0,0,0-.18.051" transform="translate(-13.803 -6.195)" fill="#161615"/>
        <path id="Path_4315" data-name="Path 4315" d="M8.212,39.287,7.8,38.94l-.084.084c.078.145.128.329.5.263" transform="translate(-3.96 -19.988)" fill="#161615"/>
        <path id="Path_4316" data-name="Path 4316" d="M39.021,8.657h-.607c.167.075.333.231.607,0" transform="translate(-19.718 -4.444)" fill="#161615"/>
        <path id="Path_4317" data-name="Path 4317" d="M20.3,20.418c-.053.01-.1.073-.136.127-.009.015.053.072.1.131l.166-.146c-.044-.04-.095-.119-.129-.112" transform="translate(-10.351 -10.48)" fill="#161615"/>
        <path id="Path_4318" data-name="Path 4318" d="M22.236,16.411a.163.163,0,0,0,.1.1c.022.006.093-.061.091-.091s-.055-.078-.1-.136c-.04.053-.1.1-.091.126" transform="translate(-11.413 -8.359)" fill="#161615"/>
        <path id="Path_4319" data-name="Path 4319" d="M21.54,17.444a.3.3,0,0,0-.143.135c-.008.012.059.072.2.238a.792.792,0,0,0,.063-.252c0-.047-.092-.128-.122-.12" transform="translate(-10.983 -8.954)" fill="#161615"/>
        <path id="Path_4320" data-name="Path 4320" d="M9.282,50.115a.547.547,0,0,0-.111-.157c-.035.03-.1.062-.1.088a1.233,1.233,0,0,0,.114.269c.056-.111.106-.164.1-.2" transform="translate(-4.657 -25.644)" fill="#161615"/>
        <path id="Path_4321" data-name="Path 4321" d="M9.014,54.331c.044.038.088.106.133.107a.759.759,0,0,0,.234-.087c-.144-.107-.2-.167-.219-.158a.774.774,0,0,0-.148.138" transform="translate(-4.627 -27.817)" fill="#161615"/>
        <path id="Path_4322" data-name="Path 4322" d="M18.812,21.587l.127.05.149-.338-.148-.059-.128.347" transform="translate(-9.656 -10.903)" fill="#161615"/>
        <path id="Path_4323" data-name="Path 4323" d="M8.525,48.364l.147-.048c-.038-.084-.075-.169-.119-.25a.276.276,0,0,0-.09.03c.016.09.04.179.062.268" transform="translate(-4.344 -24.672)" fill="#161615"/>
        <path id="Path_4324" data-name="Path 4324" d="M8.354,64.084l-.218.07c.007.031.015.062.023.094l.225-.065-.03-.1" transform="translate(-4.176 -32.895)" fill="#161615"/>
        <path id="Path_4325" data-name="Path 4325" d="M8.634,82.047l-.129.139.122.1c.045-.054.1-.092.1-.134s-.061-.069-.095-.1" transform="translate(-4.366 -42.115)" fill="#161615"/>
        <path id="Path_4326" data-name="Path 4326" d="M17.4,25.348a.648.648,0,0,0,.085.106c.006.005.075-.039.073-.05a.565.565,0,0,0-.061-.121l-.1.065" transform="translate(-8.93 -12.978)" fill="#161615"/>
        <path id="Path_4327" data-name="Path 4327" d="M8.626,37.006c.019.011.035.021.061.035-.057.022-.1.041-.131.054.449.376.7.358.886-.128-.253.227-.551-.106-.816.039" transform="translate(-4.392 -18.975)" fill="#161615"/>
        <path id="Path_4328" data-name="Path 4328" d="M13.814,28.792c.458.281.6-.087.822-.218l-.058-.137-.764.355" transform="translate(-7.091 -14.597)" fill="#161615"/>
        <path id="Path_4329" data-name="Path 4329" d="M14.577,27.542a.48.48,0,0,0,.149-.124c.009-.013-.049-.074-.1-.147a.9.9,0,0,0-.13.176c-.008.02.073.1.081.1" transform="translate(-7.441 -13.998)" fill="#161615"/>
        <path id="Path_4330" data-name="Path 4330" d="M12.48,30.5c-.03.06-.007.146-.007.356l.269-.368-.09-.086c-.06.032-.147.049-.171.1" transform="translate(-6.398 -15.607)" fill="#161615"/>
        <path id="Path_4331" data-name="Path 4331" d="M36.863,9.842l.1,0,.019-.324-.116-.005Z" transform="translate(-18.922 -4.885)" fill="#161615"/>
        <path id="Path_4332" data-name="Path 4332" d="M111.3,30.91l-.155-.09a.368.368,0,0,0-.094.507l.25-.418" transform="translate(-56.973 -15.82)" fill="#161615"/>
        <path id="Path_4333" data-name="Path 4333" d="M114.026,39.26c-.025,0-.053.03-.079.047l.092.087.055-.073c-.023-.021-.044-.058-.068-.06" transform="translate(-58.489 -20.152)" fill="#161615"/>
        <path id="Path_4334" data-name="Path 4334" d="M98.669,21.9a.4.4,0,0,0,.164.562.379.379,0,0,0-.164-.562" transform="translate(-50.618 -11.241)" fill="#161615"/>
        <path id="Path_4335" data-name="Path 4335" d="M110.45,36.237c0,.032.059.1.093.1s.077-.058.135-.107c-.054-.046-.1-.108-.126-.1a.157.157,0,0,0-.1.106" transform="translate(-56.694 -18.546)" fill="#161615"/>
        <path id="Path_4336" data-name="Path 4336" d="M104.265,30.021c.027.015.06.047.078.039s.045-.05.066-.076l-.079-.045-.065.082" transform="translate(-53.52 -15.368)" fill="#161615"/>
        <path id="Path_4337" data-name="Path 4337" d="M112.773,43.226l-.044-.091-.233.111.039.085.237-.105" transform="translate(-57.745 -22.141)" fill="#161615"/>
        <path id="Path_4338" data-name="Path 4338" d="M116.282,48.04l-.234-.185-.076.093.226.193.084-.1" transform="translate(-59.529 -24.564)" fill="#161615"/>
        <path id="Path_4339" data-name="Path 4339" d="M118.853,54.207a.711.711,0,0,0,.132.145c.018.011.079-.043.16-.092a.773.773,0,0,0-.18-.135c-.024-.009-.073.053-.111.083" transform="translate(-61.008 -27.782)" fill="#161615"/>
        <path id="Path_4340" data-name="Path 4340" d="M115.452,49.778a.539.539,0,0,0-.064.132c0,.02.053.073.06.07a.84.84,0,0,0,.128-.1l-.124-.1" transform="translate(-59.229 -25.551)" fill="#161615"/>
        <path id="Path_4341" data-name="Path 4341" d="M116.347,55.274l-.548-.147c.065.338.217.362.548.147" transform="translate(-59.44 -28.297)" fill="#161615"/>
        <path id="Path_4342" data-name="Path 4342" d="M86.148,10.718c.015.046.017.11.049.133s.089,0,.161-.01c-.032-.068-.041-.132-.074-.149s-.089.015-.135.025" transform="translate(-44.22 -5.486)" fill="#161615"/>
        <path id="Path_4343" data-name="Path 4343" d="M91.4,13.21l-.449-.136c.037.368.184.432.449.136" transform="translate(-46.684 -6.711)" fill="#161615"/>
        <path id="Path_4344" data-name="Path 4344" d="M6.276,65.581a.689.689,0,0,0-.12-.136.711.711,0,0,0-.025.179c0,.017.063.041.088.033s.064-.061.056-.076" transform="translate(-3.146 -33.593)" fill="#161615"/>
        <path id="Path_4345" data-name="Path 4345" d="M96.094,104.668c-.145.217,0,.322.194.439.158-.216.14-.367-.007-.486a.2.2,0,0,0-.187.047" transform="translate(-49.295 -53.697)" fill="#161615"/>
        <path id="Path_4346" data-name="Path 4346" d="M6.13,52.407l-.144,0c0,.1.009.191.014.287l.117-.006.013-.276" transform="translate(-3.073 -26.899)" fill="#161615"/>
        <path id="Path_4347" data-name="Path 4347" d="M101.786,100.322c.049.041.122.127.144.116a2.21,2.21,0,0,0,.3-.228c-.114-.074-.2-.15-.216-.138a2.241,2.241,0,0,0-.229.25" transform="translate(-52.247 -51.367)" fill="#161615"/>
        <path id="Path_4348" data-name="Path 4348" d="M6.549,60.511c-.113.116-.186.229-.031.35a.15.15,0,0,0,.143-.027c.124-.155.047-.251-.112-.323" transform="translate(-3.3 -31.06)" fill="#161615"/>
        <path id="Path_4349" data-name="Path 4349" d="M7.056,70.729a.518.518,0,0,0,.035-.137l-.2.139c.1,0,.154.012.162,0" transform="translate(-3.539 -36.235)" fill="#161615"/>
        <path id="Path_4350" data-name="Path 4350" d="M41.189,8.251a.422.422,0,0,0-.131-.366,1.567,1.567,0,0,0-.512-.092l-.079.133a2.6,2.6,0,0,0,.373.429.305.305,0,0,0,.036.017l.195.021a.176.176,0,0,0,.12-.143" transform="translate(-20.771 -4)" fill="#161615"/>
        <path id="Path_4351" data-name="Path 4351" d="M104.64,96.4c-.063.092-.131.179-.2.265.158-.054.209-.117.2-.265" transform="translate(-53.61 -49.481)" fill="#161615"/>
        <path id="Path_4352" data-name="Path 4352" d="M32.068,12.051c.15-.168.128-.362-.043-.64l-.553.936a1.816,1.816,0,0,0,.181-.051,2.5,2.5,0,0,0,.416-.246" transform="translate(-16.154 -5.857)" fill="#161615"/>
        <path id="Path_4353" data-name="Path 4353" d="M73.96,110.65a.562.562,0,0,0-.125-.106c-.018-.007-.078.037-.078.055a.436.436,0,0,0,.047.128l.155-.078" transform="translate(-37.86 -56.742)" fill="#161615"/>
        <path id="Path_4354" data-name="Path 4354" d="M108.031,93.919c-.036-.28-.068-.528-.1-.788-.055.058-.117.111-.176.166a.609.609,0,0,0,.276.622" transform="translate(-55.305 -47.804)" fill="#161615"/>
        <path id="Path_4355" data-name="Path 4355" d="M79.289,107.8a1.289,1.289,0,0,0,.158-.008l.341-.234c-.418-.223-.472-.219-.5.242" transform="translate(-40.699 -55.136)" fill="#161615"/>
        <path id="Path_4356" data-name="Path 4356" d="M87.325,107.018c-.182.079-.26.088-.289.13a1.887,1.887,0,0,0-.187.359l.241.02-.083.375c-.1,0-.188-.006-.276-.009a4.679,4.679,0,0,0-.087.618,1.063,1.063,0,0,0,.183-.118,1.947,1.947,0,0,0,.509-.592,5.261,5.261,0,0,1-.01-.785" transform="translate(-44.475 -54.933)" fill="#161615"/>
        <path id="Path_4357" data-name="Path 4357" d="M109.392,35.974v-.638c-.363.273-.364.293,0,.638" transform="translate(-56.011 -18.138)" fill="#161615"/>
        <path id="Path_4358" data-name="Path 4358" d="M87.108,14.169l.388.3.121-.165-.422-.265Z" transform="translate(-44.713 -7.207)" fill="#161615"/>
        <path id="Path_4359" data-name="Path 4359" d="M90.94,107.644c-.661-.419-1.086-.426-1.372,0l.176.1c-.051.083-.1.146-.134.2.476-.007.847-.28,1.33-.311" transform="translate(-45.976 -55.092)" fill="#161615"/>
        <path id="Path_4360" data-name="Path 4360" d="M98.356,103.67c-.01.022.032.07.051.105l.127-.089-.067-.131a.485.485,0,0,0-.11.115" transform="translate(-50.486 -53.155)" fill="#161615"/>
        <path id="Path_4361" data-name="Path 4361" d="M91.82,16.085c-.228.255-.314.474-.146.686a.44.44,0,0,0,.379.126c.261-.077.3-.314.279-.608l-.512-.2" transform="translate(-47.011 -8.256)" fill="#161615"/>
        <path id="Path_4362" data-name="Path 4362" d="M90.183,15.058l.254.367a1.644,1.644,0,0,0,.178-.128c-.071-.127-.157-.246-.24-.366l-.191.127" transform="translate(-46.291 -7.664)" fill="#161615"/>
        <path id="Path_4363" data-name="Path 4363" d="M94.563,17.342c.152-.031.218-.026.251-.056a.511.511,0,0,0,.081-.161l-.079-.048-.254.266" transform="translate(-48.539 -8.765)" fill="#161615"/>
        <path id="Path_4364" data-name="Path 4364" d="M89.73,13.839a.656.656,0,0,0-.184.119c.039.043.078.121.116.12a.787.787,0,0,0,.237-.1c-.085-.074-.137-.15-.168-.143" transform="translate(-45.964 -7.104)" fill="#161615"/>
        <path id="Path_4365" data-name="Path 4365" d="M96.819,105.112c-.007.007.035.095.05.093a.6.6,0,0,0,.152-.052l-.068-.125a.709.709,0,0,0-.134.084" transform="translate(-49.697 -53.911)" fill="#161615"/>
        <path id="Path_4366" data-name="Path 4366" d="M94.715,105.595a.363.363,0,0,0,.07.275l.046-.163-.116-.112" transform="translate(-48.617 -54.202)" fill="#161615"/>
        <path id="Path_4367" data-name="Path 4367" d="M115.917,50.128l-.084-.114a.508.508,0,0,0-.1.119c-.008.017.042.059.067.09l.117-.1" transform="translate(-59.406 -25.672)" fill="#161615"/>
        <path id="Path_4368" data-name="Path 4368" d="M100.263,104.432l.065.162a1.663,1.663,0,0,1,.049-.165l-.027-.044-.088.046" transform="translate(-51.465 -53.582)" fill="#161615"/>
        <path id="Path_4369" data-name="Path 4369" d="M117.6,48.9a.509.509,0,0,0,.641-.221c-.333-.226-.5-.111-.641.221" transform="translate(-60.367 -24.928)" fill="#161615"/>
        <path id="Path_4370" data-name="Path 4370" d="M111.227,39.827c.089.009.189-.106.344-.2-.156-.1-.251-.219-.347-.219s-.164.131-.245.2c.082.077.158.209.248.218" transform="translate(-56.966 -20.227)" fill="#161615"/>
        <path id="Path_4371" data-name="Path 4371" d="M111.337,42.6a.437.437,0,0,0-.04-.652c-.013-.012-.037-.012-.095-.028a.417.417,0,0,0-.12.66.269.269,0,0,0,.255.019" transform="translate(-56.962 -21.52)" fill="#161615"/>
        <path id="Path_4372" data-name="Path 4372" d="M112.361,46.066a.691.691,0,0,0,.722.493.805.805,0,0,0-.722-.493" transform="translate(-57.675 -23.646)" fill="#161615"/>
        <path id="Path_4373" data-name="Path 4373" d="M112.043,44.164l-.62-.1c.2.429.381.433.62.1" transform="translate(-57.194 -22.619)" fill="#161615"/>
        <path id="Path_4374" data-name="Path 4374" d="M114.333,49.477a.5.5,0,0,0,.075.141l.145-.138a.732.732,0,0,0-.154-.092c-.014,0-.071.062-.066.089" transform="translate(-58.687 -25.351)" fill="#161615"/>
        <path id="Path_4375" data-name="Path 4375" d="M8.464,36.985a.451.451,0,0,0-.121-.058c-.03-.006-.068.027-.1.043.033.04.059.1.1.115a.1.1,0,0,0,.053-.011l-.023-.018a.336.336,0,0,1,.093-.07" transform="translate(-4.23 -18.955)" fill="#161615"/>
        <path id="Path_4376" data-name="Path 4376" d="M38.489,7.409a1.534,1.534,0,0,0-.106-.45l-.166-.013a1.7,1.7,0,0,0-.156.441c-.006.076.124.164.192.246.084-.074.232-.145.236-.223" transform="translate(-19.537 -3.565)" fill="#161615"/>
        <path id="Path_4377" data-name="Path 4377" d="M38.123,9.468l.234.05-.186-.149-.048.1" transform="translate(-19.569 -4.809)" fill="#161615"/>
        <path id="Path_4378" data-name="Path 4378" d="M6.395,72.308c-.035.007-.064.044-.095.068.025.024.055.073.074.069.035-.008.062-.046.093-.073-.025-.023-.054-.068-.073-.064" transform="translate(-3.234 -37.116)" fill="#161615"/>
        <path id="Path_4379" data-name="Path 4379" d="M39.743,19.116l.032.026h0l.013-.016-.049-.01" transform="translate(-20.4 -9.812)" fill="#161615"/>
        <path id="Path_4380" data-name="Path 4380" d="M78.637,8.267c-.008.014.114.136.144.125a1.245,1.245,0,0,0,.267-.2c-.114-.064-.2-.144-.234-.125a.5.5,0,0,0-.177.2" transform="translate(-40.364 -4.137)" fill="#161615"/>
        <path id="Path_4381" data-name="Path 4381" d="M76.011,7.235c.035.078.081.151.124.226l.093-.054-.145-.244c-.025.024-.077.061-.072.072" transform="translate(-39.016 -3.677)" fill="#161615"/>
        <path id="Path_4382" data-name="Path 4382" d="M61.405,28.886l-.507-.674a.854.854,0,0,0,.273-1.034.6.6,0,0,1-.048-.369c.2-.548-.128-.968-.35-1.393a.663.663,0,0,1-.067-.676,1.089,1.089,0,0,0,0-1.02,16.8,16.8,0,0,0-.719-2.171.2.2,0,0,1-.034-.106,1.4,1.4,0,0,0-.537-1.058.868.868,0,0,1-.265-.7,6.593,6.593,0,0,0-.066-.784c-.417.165-.671.018-.736-.324a5.06,5.06,0,0,1-.011-.91c-.273-.067-.366-.282-.418-.592a2.866,2.866,0,0,0-.57-1.3c-.343-.434-.678-.875-1.036-1.3a2.086,2.086,0,0,0-.676-.651,3.769,3.769,0,0,1-1.472-.93c-.111-.12-.264-.188-.256-.373a.4.4,0,0,0-.4-.443,2.212,2.212,0,0,0-.254-.524c-.309-.343-.644-.662-.975-.985a3.7,3.7,0,0,1-.637-.6c-.223-.362-.586-.478-.878-.7-.25.12-.238.546-.658.42v-.9c-.067-.061-.173-.232-.316-.274a1.888,1.888,0,0,1-.789-.593c-.317-.322-.49-.839-1.09-.738-.225-.331-.768-.187-.929-.622-.013-.035-.094-.051-.147-.063a2.034,2.034,0,0,1-1.112-.651c-.13-.149-.274-.26-.479-.112a1.328,1.328,0,0,1-1.708-.064l.289-.7a.963.963,0,0,0-1.277-.29,1.78,1.78,0,0,1-1.11.1c-.209-.344-.318-.707-.561-.875a2.883,2.883,0,0,0-.971-.25l-.19.527-.538-.349c-.195.56-.634.389-1.04.419.21-.4.156-.509-.21-.509-.2,0-.408,0-.612.006-.027,0-.054.038-.08.059l.147.167c-.576.012-.609-.009-.708-.425-.119-.5-.193-.544-.724-.572a1.526,1.526,0,0,1-.64-.129,2.531,2.531,0,0,0-1.366-.236l0,.015-.117.021-.006-.032c-.135.005-.27.011-.4.013-.234,0-.467.042-.719.067-.018.063-.043.132-.059.2a.536.536,0,0,1-.475.473c-.259.018-.308-.223-.355-.427a.355.355,0,0,0-.364-.285,1.629,1.629,0,0,0-.663-.013,3.407,3.407,0,0,1-1.743.178c-.234-.025-.471-.032-.707-.038a.92.92,0,0,0-.255.032,2.18,2.18,0,0,1-.631.166c-.471-.035-.945.275-1.316.02-.348.111-.62.209-.9.286-.4.109-.8.186-1.008.612-.032.066-.136.1-.284.195a3,3,0,0,0,.055-.343c0-.265-.189-.438-.372-.292a1.931,1.931,0,0,1-1.3.365,1.039,1.039,0,0,0-.9.636l-.777-.128c-.271.4-.271.391-.686.413a.568.568,0,0,0-.357.093c-.329.363-.819.336-1.218.525-.322.152-.477.192-.437.563a.778.778,0,0,1-.552.887c-.063.026-.125.055-.212.094l-.054-.49.394.035V5.819c-.2.092-.362.18-.531.238a1.722,1.722,0,0,0-1.178.8c-.061.126-.3.174-.463.239a2.137,2.137,0,0,0-.445.141c-.434.308-.85.64-1.271.967a4.769,4.769,0,0,1-.606.475c-.309.166-.546.335-.371.712l-.531.282c.014.3.329.556-.021.76-.3.175-.293-.264-.511-.293l-.476.6c.569.284.588.342.306.89-.467.047-.184-.39-.34-.549-.325-.083-.528.055-.562.363a.852.852,0,0,1-.33.6,3.066,3.066,0,0,0-.644.818c-.309.563-.566,1.154-.855,1.757l.2.482L8,14.98l.334.414.269.2a1.052,1.052,0,0,0-.923.574c-.124.3-.331.536-.463.816-.235.5-.422,1.022-.64,1.53-.131.306-.3.6-.416.907-.107.293-.149.608-.246.906-.12.369-.306.72-.39,1.1a9.8,9.8,0,0,0-.111,1.146,1.089,1.089,0,0,1-.085.309,1.52,1.52,0,0,0,.025,1.678c-.409.427-.185.828.045,1.242a.333.333,0,0,0-.379.4c.047.3-.057.588-.015.859.11.706-.309,1.376-.1,2.078.014.044-.035.1-.047.158a1.848,1.848,0,0,0,.1,1.125c.068.165.074.359.154.517.2.388-.035.766-.039,1.145a22.758,22.758,0,0,0,.135,2.314,11.526,11.526,0,0,0,.417,2.839.418.418,0,0,1,.01.219,1.3,1.3,0,0,0,.074.877,2.25,2.25,0,0,1,.127.624c.011.086-.08.22-.043.262.264.3.146.817.585.971A2.2,2.2,0,0,0,7.017,42.6l-.472.073a3.178,3.178,0,0,1,.257.363c.077.157.21.342.18.486a.723.723,0,0,0,.576.966c.038.011.061.08.092.123l-.346.215.7.651-.313.365a5.589,5.589,0,0,0,.768,1.011c.288.244.509.652,1.022.578-.058.2-.094.342-.141.48a3.191,3.191,0,0,0-.091,1.1c.006.609.262.877.846.9.247.011.338.163.35.411a7.942,7.942,0,0,0,.126,1.045.858.858,0,0,0,.2.443,6.77,6.77,0,0,0,.673.519c.217-.093.395-.24.543-.215.173.03.32.21.49.333l-.357.449.439.293c.071-.12.145-.238.211-.36.049-.091.088-.187.134-.289.312.089.249.317.258.511a1.194,1.194,0,0,0,.547.87c.242.193.45-.017.668-.105.344-.138.448-.093.644.251a1.2,1.2,0,0,0-.324.2.541.541,0,0,0-.156.379.409.409,0,0,0,.314.246c.372-.053.469.224.62.493a4.568,4.568,0,0,0,.65-.16,6.622,6.622,0,0,0,.7-.389c-.046.276-.077.453-.1.63-.083.537.249,1.147.7,1.158.428.012.861.249,1.3-.057a1.336,1.336,0,0,1,.108.964c-.1.261.112.434.375.291a.8.8,0,0,1,.736-.01,3.024,3.024,0,0,0,1.78.216c.552-.139.7.457,1.121.53.017.439.324.468.682.419.07.223.145.412.188.607.1.457.093.448.536.391a.893.893,0,0,1,.482.046,7.511,7.511,0,0,0,1.852.365c.353.079.5-.087.5-.467,0-.2.021-.33.218-.389.22-.066.31.093.372.249.153.387.463.435.821.424.4-.012.805-.2,1.2.029.048.028.14-.027.212-.036a5.248,5.248,0,0,1,.654-.071c.437,0,.493-.045.645-.47a.445.445,0,0,1,.292-.264c.2-.016.259.141.266.341a.723.723,0,0,0,1.186.612c.107-.065.24-.165.343-.146.344.064.455-.129.57-.393.134-.3.25-.311.487-.084.079.074.168.138.258.211.017-.139.013-.272.021-.389a.092.092,0,0,1-.052.007c-.225-.07-.28-.22-.148-.432.162-.017.261.031.306.127.343-.48.724-.933,1.1-1.39.052-.062.149-.086.3-.165.072.385.134.715.2,1.045.52-.018.408-.55.708-.746a4.744,4.744,0,0,0,.758-.824,4.792,4.792,0,0,0,.145.551c.044.108.123.264.2.276a.35.35,0,0,0,.3-.177c.114-.556.6-1,.431-1.663.564.092.556-.508.9-.658.519.355.519.355.381.893-.085.334-.029.442.373.649.028-.153.052-.291.078-.428a3.963,3.963,0,0,1,.115-.587c.157-.45.331-.5.747-.256a.659.659,0,0,0,1.042-.3,2.792,2.792,0,0,0,.077-.3c.3.063.588.095.687-.2a4.314,4.314,0,0,1,.9.013.673.673,0,0,0,.483-.057,4.587,4.587,0,0,1,.087-.618,2.684,2.684,0,0,1-.411-.033c-.1-.019-.259-.123-.263-.2-.011-.192.147-.22.313-.2.148.016.3.028.478.043a1.931,1.931,0,0,1,.187-.359c.029-.043.108-.051.289-.13a5.335,5.335,0,0,0,.01.785,1.5,1.5,0,0,0,.183-.637l.549.323c.285-.429.711-.422,1.372,0-.483.031-.854.3-1.33.311a.357.357,0,0,0-.011.417.27.27,0,0,0,.244-.024c.212-.36.644-.347.933-.575.312-.246.4-.219.617.1.091.131.134.322.362.25l.387-1.366a.362.362,0,0,1-.07-.275c-.257-.254-.238-.3.067-.518,0-.017,0-.029.007-.046-.34-.206-.617-.024-.843.193a1.2,1.2,0,0,1-.97.32,5.158,5.158,0,0,0-1.349.265c-.5.128-.992.3-1.5.424-.519.126-.562.158-.523.671,0,.021.015.043.011.062-.037.154-.029.391-.124.445-.22.126-.394-.023-.514-.271l.087-.16a.786.786,0,0,1-.045-.089l.129-.066.152-.277a.51.51,0,0,0-.475-.209.657.657,0,0,1,0,.191c-.024.1-.129.186-.2.278-.078-.066-.214-.135-.241-.2-.15.256.132.545.131.811a.364.364,0,0,1-.051.119c-.249.251-.463.6-.765.716-.282.1-.658-.072-1-.091a2.005,2.005,0,0,0-1.336.338c-.3.219-.509.1-.712-.217l.511-.67a.47.47,0,0,1-.617-.235c-.091-.14-.329-.185-.557-.234a1.364,1.364,0,0,1-.063,1.228,3.151,3.151,0,0,1-.428.431c.075-.511-.188-.714-.43-.62a.959.959,0,0,1-1.194-.362c.134.755-.619.9-.852,1.4-.109.231-.44.116-.588-.181-.235-.471-.233-.45-.742-.394a2.78,2.78,0,0,0-1.359.482,2.866,2.866,0,0,1-.9.257c-.127.249.055.376.2.537a.4.4,0,1,1-.673.415A4.414,4.414,0,0,1,30.652,57a.841.841,0,0,0-1.127-.609,3.958,3.958,0,0,0-.524.23c-.1.044-.2.134-.287.125-.578-.057-1.154-.135-1.73-.207a.864.864,0,0,0-.25-.04c-.914.186-1.86-.234-2.771.161a1.289,1.289,0,0,1-.683-.072c-.641-.142-1.286-.276-1.916-.46a4.653,4.653,0,0,1-1.032-.463,1,1,0,0,0-1.112-.134,4.308,4.308,0,0,0-2.5-1.641,1.282,1.282,0,0,1-.487-.275A6.569,6.569,0,0,0,14.445,52.4a.972.972,0,0,1-.379-.231c-.774-.87-1.741-1.543-2.492-2.433a10.821,10.821,0,0,1-.681-.994c-.035-.053-.04-.146-.085-.167-.581-.267-.515-.92-.8-1.36a2.4,2.4,0,0,1-.192-.727,1,1,0,0,0-.1-.357A5.1,5.1,0,0,1,9.1,44.622a3.759,3.759,0,0,0-.243-.585,11.158,11.158,0,0,1-.606-1.846A18.552,18.552,0,0,0,7.671,39.6a3.1,3.1,0,0,1-.134-1.248c-.017-.5-.09-1-.115-1.5-.042-.82-.086-1.641-.112-2.463a8.663,8.663,0,0,0-.24-1.178,1.974,1.974,0,0,1-.037-.678,5.475,5.475,0,0,0,.085-1.895,5.993,5.993,0,0,1,.015-1.586,12.071,12.071,0,0,0,.129-2.6A4.634,4.634,0,0,1,7.391,25.4a.892.892,0,0,0,.036-.313A6.753,6.753,0,0,1,7.561,23.2a7.517,7.517,0,0,1,.685-2.761c.028-.07.053-.141.078-.212l-.153.084c-.027-.055-.073-.118-.061-.131a.181.181,0,0,1,.132-.067c.033,0,.056.071.083.111a4.235,4.235,0,0,0,.246-1.066A2.254,2.254,0,0,1,9,18.128a4.479,4.479,0,0,0,.647-1.295,1.922,1.922,0,0,1,.16-.441c0-.018,0-.035,0-.052l.035,0c.2-.381.49-.7.671-1.094.056-.121.126-.236.19-.353l-.113-.22.19.077c.094-.164.192-.326.294-.486l-.016-.01.026-.007c.052-.08.1-.163.153-.243a3.8,3.8,0,0,1,.4-.4c.052-.058.1-.118.15-.179-.034-.015-.076-.055-.076-.083s.055-.079.1-.139c.029.038.057.068.075.095a7.552,7.552,0,0,1,1.408-1.628c.182-.132.252-.418.412-.7a1.137,1.137,0,0,0,.845-.763c.114-.244.235-.432.549-.453s.451-.282.56-.544a2.582,2.582,0,0,1,.164-.326l-.1.048a.432.432,0,0,1-.052-.12c0-.017.057-.06.073-.054a.4.4,0,0,1,.1.078,1.151,1.151,0,0,1,.933-.579c.263-.338.649-.347,1.01-.431l.553-.936c.171.278.194.471.044.64a.629.629,0,0,1,.468-.1c.062.012.194-.184.246-.305a1.676,1.676,0,0,0,.038-.451c.558.392,1.047-.163,1.579,0,.057.018.171-.1.239-.176.123-.135.232-.283.346-.426h0l-.037-.03L21.028,6l.048-.1.186.149.056.012-.015.018c.379.109.566-.057.584-.45l.69.083a.308.308,0,0,1-.036-.018,2.627,2.627,0,0,1-.373-.429l.08-.133a1.557,1.557,0,0,1,.512.092.424.424,0,0,1,.131.366.176.176,0,0,1-.12.143c.128.015.256.03.384.042.078.008.2-.006.235-.056.17-.238.467-.188.659-.3a1.217,1.217,0,0,1,1.327-.123.083.083,0,0,0,.063,0c.358-.146.752-.466,1.065-.4.465.1.739-.248,1.129-.263.119,0,.23-.224.354-.355a3.8,3.8,0,0,1,.861.2.6.6,0,0,0,.863-.16h1.578l.45-.6a.954.954,0,0,0,1.1.784.787.787,0,0,0,.573-.176c.394-.329.4-.313.786.116a1.685,1.685,0,0,0,.252.194c.2-.121.372-.318.54-.311s.3.237.425.383c.393.264.6-.289,1.025-.238l-.148.517a3.2,3.2,0,0,0,1.388.3.152.152,0,0,1,.063-.008,8.636,8.636,0,0,1,1.708.573c.326.185.545.264.867.036.265.424.626.36,1.01.272a4.3,4.3,0,0,1,.684-.055v.849l.766-.128.389.82c.255.047.546.086.829.157.363.091.45.35.289.676.331.163.608.274.859.427.336.205.745.328.9.765a.4.4,0,0,0,.277.224,1.176,1.176,0,0,1,.761.52,2.992,2.992,0,0,0,1.949.839l.8,1.29a.889.889,0,0,1,.962.551c.039.1.284.126.492.209-.4.429-.1.743.1,1.112l.634-.046a5.968,5.968,0,0,1,.528,1.305c.073.456.015.9.616,1.006.063.012.143.163.137.245,0,.057-.132.124-.217.153a.793.793,0,0,1-.264-.01c.2.566.544.145.856.191a.72.72,0,0,0,.907.485l.285-.485a3.146,3.146,0,0,0,.3.523c.324.378.332.384-.079.732a1.237,1.237,0,0,0-.116.146l.324.961-.619.341.278.488c.063-.094.116-.136.119-.182.012-.191.063-.372.289-.308a.417.417,0,0,1,.235.312c.009.624-.018,1.247-.034,1.892l.368-.282c.115.486.208.911.319,1.331a3.1,3.1,0,0,0,.218.584,14.457,14.457,0,0,1,.786,1.583c.1.284.009.639.354.808.251.124.515.22.828.352l-.438.74c.167.109.3.2.439.284.366.213.467.363.38.777-.122.581-.136,1.1.465,1.444a.219.219,0,0,1,.107.149,1.3,1.3,0,0,0,.664,1.015c-.058.065-.09.12-.1.116-.657-.2-.824-.072-.728.592a4.209,4.209,0,0,0,.194.666c.1.3.2.6.311.933a.634.634,0,0,0-.381.872,14.1,14.1,0,0,1,.328,2.027c.013.094-.057.2-.088.3a3.007,3.007,0,0,0-.123,1.506.846.846,0,0,1-.012.5,3.971,3.971,0,0,0-.273,1.749,1.075,1.075,0,0,1-.273.687,7.95,7.95,0,0,0-1.071,1.56,6.838,6.838,0,0,0-.286,1.643c-.209.162-.685.255-.583.823l-.3-.277c-.06.041-.182.084-.183.132a1.06,1.06,0,0,1-.471.747c0,.188,0,.368-.012.541s-.076.349.133.425a.356.356,0,0,0,.475-.183c.163-.364.293-.741.434-1.1.111-.056.3-.089.375-.2a10.913,10.913,0,0,0,1.155-1.687c.209-.512.632-.978.559-1.549a2.678,2.678,0,0,1,.363-1.483,9.736,9.736,0,0,1,.591-1.008,1.169,1.169,0,0,0,.256-.984,1.313,1.313,0,0,1,.125-.635,7.557,7.557,0,0,0,.32-.994,7.206,7.206,0,0,0,.138-2.258c-.036-.216-.045-.437-.069-.686.55-.1.6-.491.515-.89a4.361,4.361,0,0,1,.076-1.64,2.326,2.326,0,0,0-.011-.819,2.735,2.735,0,0,1-.028-1.479M5.387,26.843l.144,0-.013.276L5.4,27.13c0-.1-.009-.191-.014-.287m.1,6.348a.689.689,0,0,1,.12.136c.007.016-.031.068-.057.076s-.085-.017-.088-.033a.689.689,0,0,1,.025-.179m.13,3.477c-.018,0-.049-.044-.074-.069.031-.024.06-.061.095-.068.019,0,.048.041.073.064-.031.026-.059.065-.093.073m.077-5.528c-.156-.122-.083-.234.031-.35.159.073.236.168.112.323a.15.15,0,0,1-.143.027m.3,4.693c-.008.014-.063,0-.162,0l.2-.139a.517.517,0,0,1-.035.137M38.449,55.141a.56.56,0,0,1,.125.105l-.155.078a.415.415,0,0,1-.047-.128c0-.019.06-.063.077-.055m-2.047.84c.12-.038.312-.06.385.009.183.172.222.393-.047.632a1.734,1.734,0,0,1-.349-.322c-.049-.079-.027-.307.011-.319m-.4.229c-.03.1-.03.153-.055.166-.205.11-.343.069-.414-.267l.468.1m-1.592,1.77c.024.025.073.055.068.073-.008.034-.046.06-.072.089-.024-.024-.071-.055-.066-.073.008-.034.045-.06.071-.09m-.792-.649a.191.191,0,0,1-.159.1c-.2-.062-.245-.193-.129-.378.216-.021.317.074.288.28m-.3-1.278c.021.022.063.048.059.064s-.041.053-.063.078c-.02-.021-.061-.048-.058-.064s.04-.053.062-.078m-5.36,3.066.2.24-.088.073-.205-.235.094-.079m-2.807.184a.522.522,0,0,1,.083.032l-.046.078a.484.484,0,0,1-.061-.07c0-.006.018-.041.024-.04M21.6,56.623l.262.171-.078.118-.258-.176.074-.113m-.384.522a.718.718,0,0,1,.122.136l-.167.062a.588.588,0,0,1-.043-.149c0-.017.074-.058.089-.049m-.771-.011-.038.073a.464.464,0,0,1-.159-.064c-.031-.03-.028-.094-.069-.256l.266.246M18.505,55.91c.332-.066.343.191.442.457-.355.087-.565.058-.616-.237-.011-.065.1-.206.174-.22M6.228,20.375l.084-.084.413.348c-.368.066-.419-.119-.5-.263M6.8,24.983l-.147.048c-.022-.089-.046-.178-.062-.268a.27.27,0,0,1,.09-.03c.044.081.08.166.119.25M6.433,32.6l.218-.07.03.1-.225.065c-.008-.032-.016-.063-.023-.094m.3,8.91-.121-.1.129-.139c.034.035.1.072.1.1s-.058.08-.1.134m.259-13.549c-.045,0-.089-.069-.133-.107a.759.759,0,0,1,.148-.138c.017-.01.074.051.219.158a.761.761,0,0,1-.234.087m-.105-2.218c0-.025.064-.058.1-.088a.554.554,0,0,1,.111.157c.01.037-.039.089-.1.2a1.233,1.233,0,0,1-.114-.27m-.251-6.283a.1.1,0,0,1-.053.011c-.041-.013-.068-.074-.1-.115.034-.016.072-.049.1-.043a.449.449,0,0,1,.121.058c.265-.145.563.188.816-.039-.186.485-.436.5-.885.128m1.91-2.867c0-.21-.023-.3.007-.356s.111-.067.171-.1l.09.086-.268.369M9.66,14.612c.051.072.109.134.1.146a.488.488,0,0,1-.149.125c-.008,0-.089-.076-.08-.1a.846.846,0,0,1,.13-.175m-.463.922.764-.355.058.137c-.227.131-.364.5-.823.218m1.829-1.719a.648.648,0,0,1-.085-.106l.1-.065a.577.577,0,0,1,.061.121c0,.011-.067.055-.073.05m.731-1.741-.127-.05.128-.347.147.059-.149.338m.633-.539c-.047-.059-.109-.117-.1-.131.032-.053.083-.116.136-.127.035-.007.086.072.129.112l-.166.146m.7-1.333c-.142-.165-.209-.225-.2-.238a.3.3,0,0,1,.143-.135c.03-.008.117.073.123.12a.8.8,0,0,1-.064.252m.308-.71a.162.162,0,0,1-.1-.1c-.006-.03.05-.073.091-.126.046.058.1.095.1.136s-.068.1-.09.091m2.23-2-.065-.054a.7.7,0,0,1,.119-.174.49.49,0,0,1,.18-.051l.037.075-.27.2M20.512,6.3l-.1,0V5.971l.117.005c-.007.108-.013.216-.019.324M21,5.16a1.705,1.705,0,0,1,.156-.44l.166.013a1.527,1.527,0,0,1,.106.45c0,.079-.153.149-.236.223-.068-.082-.2-.169-.192-.246m.172.392h.607c-.274.231-.439.075-.607,0m2.825-1.111a.817.817,0,0,1-.16-.1l.117-.105c.05.04.108.065.121.1.008.025-.065.108-.078.1m1.3-.917.055.069a.692.692,0,0,1-.076.043s-.03-.03-.026-.037a.474.474,0,0,1,.048-.075m-.075.4a.288.288,0,0,1,.109-.253.274.274,0,0,1,.264.062,3.429,3.429,0,0,1,.247.521c-.37.092-.548-.051-.62-.329m1.253.307c-.043-.039-.13-.09-.123-.114a.346.346,0,0,1,.124-.155c.01-.008.073.051.136.1l-.137.173m2.318.03c0-.474,0-.474.488-.527-.231.511-.231.511-.488.527m.508-.87s-.046-.105-.028-.136c.1-.173.228-.106.368.065-.113.026-.226.053-.34.071m.563.465-.1-.082.074-.068c.024.022.065.041.068.065s-.029.056-.046.085m.2-.641-.111-.065c.022-.025.041-.063.068-.07s.053.027.079.043l-.036.091m.114.48c.028-.234.147-.292.358-.231-.061.242-.061.242-.358.231m.762-.024c-.048,0-.147-.136-.138-.2.033-.2.178-.2.365-.128.025.176-.009.32-.227.323m.851-.065a.209.209,0,0,1-.127.055c-.01,0-.046-.055-.042-.08a1.261,1.261,0,0,1,.083-.217c.061.165.1.224.087.243m.738.734.643-.37c-.237.521-.237.521-.643.37m1.593-.534c-.015.007-.092-.07-.086-.086a.211.211,0,0,1,.1-.11c.031-.013.081.022.176.054a1.126,1.126,0,0,1-.193.143m.866-.2c-.032,0-.057-.065-.084-.1.029-.018.059-.053.086-.051a.616.616,0,0,1,.155.069c-.076.043-.12.087-.157.083m.484.494-.112-.067c.017-.027.035-.077.05-.076A.42.42,0,0,1,35.531,4l-.058.1M35.3,3.777l-.043-.164c.1-.024.2-.049.3-.067a.375.375,0,0,1,.031.109c-.094.046-.194.083-.292.122m.848-.22a.465.465,0,0,1-.093-.1c-.008-.014.034-.078.052-.077a.574.574,0,0,1,.151.054l-.11.122m3.444,1.565a2.554,2.554,0,0,1-.124-.226c0-.011.047-.047.072-.072l.145.244-.093.054m1.3.471c-.03.012-.152-.111-.144-.125a.506.506,0,0,1,.177-.2c.033-.018.119.061.234.125a1.275,1.275,0,0,1-.267.2M44.45,6.7c-.032-.023-.034-.087-.049-.133.046-.01.1-.042.135-.025s.043.081.075.149c-.072.007-.133.031-.161.01m.806,1.9-.388-.3.087-.128.422.265-.121.165m.915-.288c-.037,0-.077-.077-.116-.12a.643.643,0,0,1,.184-.119c.031-.008.084.068.168.143a.788.788,0,0,1-.237.1m.448.787-.254-.367.191-.127c.083.12.17.239.24.366a1.7,1.7,0,0,1-.178.129m.119-1.4.449.136c-.264.3-.412.232-.449-.136m.777,2.277a.44.44,0,0,1-.378-.126c-.169-.212-.082-.432.146-.686l.512.2c.024.294-.018.53-.28.608m1.234-.12c-.034.031-.1.025-.252.056l.254-.266.078.048a.508.508,0,0,1-.081.162m1.939,2.7A.4.4,0,0,1,50.525,12a.378.378,0,0,1,.164.561M53.3,16.031c-.018.007-.051-.025-.078-.039l.065-.082.079.045c-.021.027-.038.065-.066.076m2.557,3.144c-.364-.345-.363-.365,0-.638Zm.469-.043c-.034,0-.1-.07-.093-.1a.157.157,0,0,1,.1-.106c.028-.007.073.055.126.1-.057.049-.1.107-.135.107m1.135,3.2.044.091-.237.105-.039-.085.233-.111m-.812-5.994.155.09-.25.418a.368.368,0,0,1,.094-.507m.086,4.178c.1,0,.191.113.346.219-.155.1-.256.212-.344.2s-.166-.141-.248-.219c.082-.073.163-.2.245-.2m-.018,1.226c.057.016.082.016.095.028a.437.437,0,0,1,.04.652.269.269,0,0,1-.255-.019.417.417,0,0,1,.12-.66M56.7,22.786l.62.1c-.239.334-.424.33-.62-.1m.457.973a.805.805,0,0,1,.722.493.69.69,0,0,1-.722-.493m.864-3.179-.092-.087c.027-.017.055-.048.079-.047s.045.039.068.06l-.055.073m.171,5.026a.506.506,0,0,1-.075-.141c0-.027.052-.093.066-.089a.692.692,0,0,1,.154.092l-.145.137m.8-.976.234.185-.084.1-.226-.193ZM58.632,25.7a.532.532,0,0,1,.064-.132l.124.1a.76.76,0,0,1-.128.1c-.008,0-.064-.05-.06-.069m.168.1a.533.533,0,0,1,.1-.119l.085.114-.117.1c-.024-.031-.074-.073-.067-.09m.032,2.369.548.147c-.331.215-.483.191-.548-.147m.879-2.856c.145-.332.308-.447.641-.221a.509.509,0,0,1-.641.221m.74,2.6a.684.684,0,0,1-.132-.145c.037-.03.087-.091.111-.083a.772.772,0,0,1,.18.135c-.08.049-.141.1-.159.092" transform="translate(-2.473 -1.339)" fill="#161615"/>
        <path id="Path_4383" data-name="Path 4383" d="M61.405,28.886l-.507-.674a.854.854,0,0,0,.273-1.034.6.6,0,0,1-.048-.369c.2-.548-.128-.968-.35-1.393a.663.663,0,0,1-.067-.676,1.089,1.089,0,0,0,0-1.02,16.8,16.8,0,0,0-.719-2.171.2.2,0,0,1-.034-.106,1.4,1.4,0,0,0-.537-1.058.868.868,0,0,1-.265-.7,6.593,6.593,0,0,0-.066-.784c-.417.165-.671.018-.736-.324a5.06,5.06,0,0,1-.011-.91c-.273-.067-.366-.282-.418-.592a2.866,2.866,0,0,0-.57-1.3c-.343-.434-.678-.875-1.036-1.3a2.086,2.086,0,0,0-.676-.651,3.769,3.769,0,0,1-1.472-.93c-.111-.12-.264-.188-.256-.373a.4.4,0,0,0-.4-.443,2.212,2.212,0,0,0-.254-.524c-.309-.343-.644-.662-.975-.985a3.7,3.7,0,0,1-.637-.6c-.223-.362-.586-.478-.878-.7-.25.12-.238.546-.658.42v-.9c-.067-.061-.173-.232-.316-.274a1.888,1.888,0,0,1-.789-.593c-.317-.322-.49-.839-1.09-.738-.225-.331-.768-.187-.929-.622-.013-.035-.094-.051-.147-.063a2.034,2.034,0,0,1-1.112-.651c-.13-.149-.274-.26-.479-.112a1.328,1.328,0,0,1-1.708-.064l.289-.7a.963.963,0,0,0-1.277-.29,1.78,1.78,0,0,1-1.11.1c-.209-.344-.318-.707-.561-.875a2.883,2.883,0,0,0-.971-.25l-.19.527-.538-.349c-.195.56-.634.389-1.04.419.21-.4.156-.509-.21-.509-.2,0-.408,0-.612.006-.027,0-.054.038-.08.059l.147.167c-.576.012-.609-.009-.708-.425-.119-.5-.193-.544-.724-.572a1.526,1.526,0,0,1-.64-.129,2.531,2.531,0,0,0-1.366-.236l0,.015-.117.021-.006-.032c-.135.005-.27.011-.4.013-.234,0-.467.042-.719.067-.018.063-.043.132-.059.2a.536.536,0,0,1-.475.473c-.259.018-.308-.223-.355-.427a.355.355,0,0,0-.364-.285,1.629,1.629,0,0,0-.663-.013,3.407,3.407,0,0,1-1.743.178c-.234-.025-.471-.032-.707-.038a.92.92,0,0,0-.255.032,2.18,2.18,0,0,1-.631.166c-.471-.035-.945.275-1.316.02-.348.111-.62.209-.9.286-.4.109-.8.186-1.008.612-.032.066-.136.1-.284.195a3,3,0,0,0,.055-.343c0-.265-.189-.438-.372-.292a1.931,1.931,0,0,1-1.3.365,1.039,1.039,0,0,0-.9.636l-.777-.128c-.271.4-.271.391-.686.413a.568.568,0,0,0-.357.093c-.329.363-.819.336-1.218.525-.322.152-.477.192-.437.563a.778.778,0,0,1-.552.887c-.063.026-.125.055-.212.094l-.054-.49.394.035V5.819c-.2.092-.362.18-.531.238a1.722,1.722,0,0,0-1.178.8c-.061.126-.3.174-.463.239a2.137,2.137,0,0,0-.445.141c-.434.308-.85.64-1.271.967a4.769,4.769,0,0,1-.606.475c-.309.166-.546.335-.371.712l-.531.282c.014.3.329.556-.021.76-.3.175-.293-.264-.511-.293l-.476.6c.569.284.588.342.306.89-.467.047-.184-.39-.34-.549-.325-.083-.528.055-.562.363a.852.852,0,0,1-.33.6,3.066,3.066,0,0,0-.644.818c-.309.563-.566,1.154-.855,1.757l.2.482L8,14.98l.334.414.269.2a1.052,1.052,0,0,0-.923.574c-.124.3-.331.536-.463.816-.235.5-.422,1.022-.64,1.53-.131.306-.3.6-.416.907-.107.293-.149.608-.246.906-.12.369-.306.72-.39,1.1a9.8,9.8,0,0,0-.111,1.146,1.089,1.089,0,0,1-.085.309,1.52,1.52,0,0,0,.025,1.678c-.409.427-.185.828.045,1.242a.333.333,0,0,0-.379.4c.047.3-.057.588-.015.859.11.706-.309,1.376-.1,2.078.014.044-.035.1-.047.158a1.848,1.848,0,0,0,.1,1.125c.068.165.074.359.154.517.2.388-.035.766-.039,1.145a22.758,22.758,0,0,0,.135,2.314,11.526,11.526,0,0,0,.417,2.839.418.418,0,0,1,.01.219,1.3,1.3,0,0,0,.074.877,2.25,2.25,0,0,1,.127.624c.011.086-.08.22-.043.262.264.3.146.817.585.971A2.2,2.2,0,0,0,7.017,42.6l-.472.073a3.178,3.178,0,0,1,.257.363c.077.157.21.342.18.486a.723.723,0,0,0,.576.966c.038.011.061.08.092.123l-.346.215.7.651-.313.365a5.589,5.589,0,0,0,.768,1.011c.288.244.509.652,1.022.578-.058.2-.094.342-.141.48a3.191,3.191,0,0,0-.091,1.1c.006.609.262.877.846.9.247.011.338.163.35.411a7.942,7.942,0,0,0,.126,1.045.858.858,0,0,0,.2.443,6.77,6.77,0,0,0,.673.519c.217-.093.395-.24.543-.215.173.03.32.21.49.333l-.357.449.439.293c.071-.12.145-.238.211-.36.049-.091.088-.187.134-.289.312.089.249.317.258.511a1.194,1.194,0,0,0,.547.87c.242.193.45-.017.668-.105.344-.138.448-.093.644.251a1.2,1.2,0,0,0-.324.2.541.541,0,0,0-.156.379.409.409,0,0,0,.314.246c.372-.053.469.224.62.493a4.568,4.568,0,0,0,.65-.16,6.622,6.622,0,0,0,.7-.389c-.046.276-.077.453-.1.63-.083.537.249,1.147.7,1.158.428.012.861.249,1.3-.057a1.336,1.336,0,0,1,.108.964c-.1.261.112.434.375.291a.8.8,0,0,1,.736-.01,3.024,3.024,0,0,0,1.78.216c.552-.139.7.457,1.121.53.017.439.324.468.682.419.07.223.145.412.188.607.1.457.093.448.536.391a.893.893,0,0,1,.482.046,7.511,7.511,0,0,0,1.852.365c.353.079.5-.087.5-.467,0-.2.021-.33.218-.389.22-.066.31.093.372.249.153.387.463.435.821.424.4-.012.805-.2,1.2.029.048.028.14-.027.212-.036a5.248,5.248,0,0,1,.654-.071c.437,0,.493-.045.645-.47a.445.445,0,0,1,.292-.264c.2-.016.259.141.266.341a.723.723,0,0,0,1.186.612c.107-.065.24-.165.343-.146.344.064.455-.129.57-.393.134-.3.25-.311.487-.084.079.074.168.138.258.211.017-.139.013-.272.021-.389a.092.092,0,0,1-.052.007c-.225-.07-.28-.22-.148-.432.162-.017.261.031.306.127.343-.48.724-.933,1.1-1.39.052-.062.149-.086.3-.165.072.385.134.715.2,1.045.52-.018.408-.55.708-.746a4.744,4.744,0,0,0,.758-.824,4.792,4.792,0,0,0,.145.551c.044.108.123.264.2.276a.35.35,0,0,0,.3-.177c.114-.556.6-1,.431-1.663.564.092.556-.508.9-.658.519.355.519.355.381.893-.085.334-.029.442.373.649.028-.153.052-.291.078-.428a3.963,3.963,0,0,1,.115-.587c.157-.45.331-.5.747-.256a.659.659,0,0,0,1.042-.3,2.792,2.792,0,0,0,.077-.3c.3.063.588.095.687-.2a4.314,4.314,0,0,1,.9.013.673.673,0,0,0,.483-.057,4.587,4.587,0,0,1,.087-.618,2.684,2.684,0,0,1-.411-.033c-.1-.019-.259-.123-.263-.2-.011-.192.147-.22.313-.2.148.016.3.028.478.043a1.931,1.931,0,0,1,.187-.359c.029-.043.108-.051.289-.13a5.335,5.335,0,0,0,.01.785,1.5,1.5,0,0,0,.183-.637l.549.323c.285-.429.711-.422,1.372,0-.483.031-.854.3-1.33.311a.357.357,0,0,0-.011.417.27.27,0,0,0,.244-.024c.212-.36.644-.347.933-.575.312-.246.4-.219.617.1.091.131.134.322.362.25l.387-1.366a.362.362,0,0,1-.07-.275c-.257-.254-.238-.3.067-.518,0-.017,0-.029.007-.046-.34-.206-.617-.024-.843.193a1.2,1.2,0,0,1-.97.32,5.158,5.158,0,0,0-1.349.265c-.5.128-.992.3-1.5.424-.519.126-.562.158-.523.671,0,.021.015.043.011.062-.037.154-.029.391-.124.445-.22.126-.394-.023-.514-.271l.087-.16a.786.786,0,0,1-.045-.089l.129-.066.152-.277a.51.51,0,0,0-.475-.209.657.657,0,0,1,0,.191c-.024.1-.129.186-.2.278-.078-.066-.214-.135-.241-.2-.15.256.132.545.131.811a.364.364,0,0,1-.051.119c-.249.251-.463.6-.765.716-.282.1-.658-.072-1-.091a2.005,2.005,0,0,0-1.336.338c-.3.219-.509.1-.712-.217l.511-.67a.47.47,0,0,1-.617-.235c-.091-.14-.329-.185-.557-.234a1.364,1.364,0,0,1-.063,1.228,3.151,3.151,0,0,1-.428.431c.075-.511-.188-.714-.43-.62a.959.959,0,0,1-1.194-.362c.134.755-.619.9-.852,1.4-.109.231-.44.116-.588-.181-.235-.471-.233-.45-.742-.394a2.78,2.78,0,0,0-1.359.482,2.866,2.866,0,0,1-.9.257c-.127.249.055.376.2.537a.4.4,0,1,1-.673.415A4.414,4.414,0,0,1,30.652,57a.841.841,0,0,0-1.127-.609,3.958,3.958,0,0,0-.524.23c-.1.044-.2.134-.287.125-.578-.057-1.154-.135-1.73-.207a.864.864,0,0,0-.25-.04c-.914.186-1.86-.234-2.771.161a1.289,1.289,0,0,1-.683-.072c-.641-.142-1.286-.276-1.916-.46a4.653,4.653,0,0,1-1.032-.463,1,1,0,0,0-1.112-.134,4.308,4.308,0,0,0-2.5-1.641,1.282,1.282,0,0,1-.487-.275A6.569,6.569,0,0,0,14.445,52.4a.972.972,0,0,1-.379-.231c-.774-.87-1.741-1.543-2.492-2.433a10.821,10.821,0,0,1-.681-.994c-.035-.053-.04-.146-.085-.167-.581-.267-.515-.92-.8-1.36a2.4,2.4,0,0,1-.192-.727,1,1,0,0,0-.1-.357A5.1,5.1,0,0,1,9.1,44.622a3.759,3.759,0,0,0-.243-.585,11.158,11.158,0,0,1-.606-1.846A18.552,18.552,0,0,0,7.671,39.6a3.1,3.1,0,0,1-.134-1.248c-.017-.5-.09-1-.115-1.5-.042-.82-.086-1.641-.112-2.463a8.663,8.663,0,0,0-.24-1.178,1.974,1.974,0,0,1-.037-.678,5.475,5.475,0,0,0,.085-1.895,5.993,5.993,0,0,1,.015-1.586,12.071,12.071,0,0,0,.129-2.6A4.634,4.634,0,0,1,7.391,25.4a.892.892,0,0,0,.036-.313A6.753,6.753,0,0,1,7.561,23.2a7.517,7.517,0,0,1,.685-2.761c.028-.07.053-.141.078-.212l-.153.084c-.027-.055-.073-.118-.061-.131a.181.181,0,0,1,.132-.067c.033,0,.056.071.083.111a4.235,4.235,0,0,0,.246-1.066A2.254,2.254,0,0,1,9,18.128a4.479,4.479,0,0,0,.647-1.295,1.922,1.922,0,0,1,.16-.441c0-.018,0-.035,0-.052l.035,0c.2-.381.49-.7.671-1.094.056-.121.126-.236.19-.353l-.113-.22.19.077c.094-.164.192-.326.294-.486l-.016-.01.026-.007c.052-.08.1-.163.153-.243a3.8,3.8,0,0,1,.4-.4c.052-.058.1-.118.15-.179-.034-.015-.076-.055-.076-.083s.055-.079.1-.139c.029.038.057.068.075.095a7.552,7.552,0,0,1,1.408-1.628c.182-.132.252-.418.412-.7a1.137,1.137,0,0,0,.845-.763c.114-.244.235-.432.549-.453s.451-.282.56-.544a2.582,2.582,0,0,1,.164-.326l-.1.048a.432.432,0,0,1-.052-.12c0-.017.057-.06.073-.054a.4.4,0,0,1,.1.078,1.151,1.151,0,0,1,.933-.579c.263-.338.649-.347,1.01-.431l.553-.936c.171.278.194.471.044.64a.629.629,0,0,1,.468-.1c.062.012.194-.184.246-.305a1.676,1.676,0,0,0,.038-.451c.558.392,1.047-.163,1.579,0,.057.018.171-.1.239-.176.123-.135.232-.283.346-.426h0l-.037-.03L21.028,6l.048-.1.186.149.056.012-.015.018c.379.109.566-.057.584-.45l.69.083a.308.308,0,0,1-.036-.018,2.627,2.627,0,0,1-.373-.429l.08-.133a1.557,1.557,0,0,1,.512.092.424.424,0,0,1,.131.366.176.176,0,0,1-.12.143c.128.015.256.03.384.042.078.008.2-.006.235-.056.17-.238.467-.188.659-.3a1.217,1.217,0,0,1,1.327-.123.083.083,0,0,0,.063,0c.358-.146.752-.466,1.065-.4.465.1.739-.248,1.129-.263.119,0,.23-.224.354-.355a3.8,3.8,0,0,1,.861.2.6.6,0,0,0,.863-.16h1.578l.45-.6a.954.954,0,0,0,1.1.784.787.787,0,0,0,.573-.176c.394-.329.4-.313.786.116a1.685,1.685,0,0,0,.252.194c.2-.121.372-.318.54-.311s.3.237.425.383c.393.264.6-.289,1.025-.238l-.148.517a3.2,3.2,0,0,0,1.388.3.152.152,0,0,1,.063-.008,8.636,8.636,0,0,1,1.708.573c.326.185.545.264.867.036.265.424.626.36,1.01.272a4.3,4.3,0,0,1,.684-.055v.849l.766-.128.389.82c.255.047.546.086.829.157.363.091.45.35.289.676.331.163.608.274.859.427.336.205.745.328.9.765a.4.4,0,0,0,.277.224,1.176,1.176,0,0,1,.761.52,2.992,2.992,0,0,0,1.949.839l.8,1.29a.889.889,0,0,1,.962.551c.039.1.284.126.492.209-.4.429-.1.743.1,1.112l.634-.046a5.968,5.968,0,0,1,.528,1.305c.073.456.015.9.616,1.006.063.012.143.163.137.245,0,.057-.132.124-.217.153a.793.793,0,0,1-.264-.01c.2.566.544.145.856.191a.72.72,0,0,0,.907.485l.285-.485a3.146,3.146,0,0,0,.3.523c.324.378.332.384-.079.732a1.237,1.237,0,0,0-.116.146l.324.961-.619.341.278.488c.063-.094.116-.136.119-.182.012-.191.063-.372.289-.308a.417.417,0,0,1,.235.312c.009.624-.018,1.247-.034,1.892l.368-.282c.115.486.208.911.319,1.331a3.1,3.1,0,0,0,.218.584,14.457,14.457,0,0,1,.786,1.583c.1.284.009.639.354.808.251.124.515.22.828.352l-.438.74c.167.109.3.2.439.284.366.213.467.363.38.777-.122.581-.136,1.1.465,1.444a.219.219,0,0,1,.107.149,1.3,1.3,0,0,0,.664,1.015c-.058.065-.09.12-.1.116-.657-.2-.824-.072-.728.592a4.209,4.209,0,0,0,.194.666c.1.3.2.6.311.933a.634.634,0,0,0-.381.872,14.1,14.1,0,0,1,.328,2.027c.013.094-.057.2-.088.3a3.007,3.007,0,0,0-.123,1.506.846.846,0,0,1-.012.5,3.971,3.971,0,0,0-.273,1.749,1.075,1.075,0,0,1-.273.687,7.95,7.95,0,0,0-1.071,1.56,6.838,6.838,0,0,0-.286,1.643c-.209.162-.685.255-.583.823l-.3-.277c-.06.041-.182.084-.183.132a1.06,1.06,0,0,1-.471.747c0,.188,0,.368-.012.541s-.076.349.133.425a.356.356,0,0,0,.475-.183c.163-.364.293-.741.434-1.1.111-.056.3-.089.375-.2a10.913,10.913,0,0,0,1.155-1.687c.209-.512.632-.978.559-1.549a2.678,2.678,0,0,1,.363-1.483,9.736,9.736,0,0,1,.591-1.008,1.169,1.169,0,0,0,.256-.984,1.313,1.313,0,0,1,.125-.635,7.557,7.557,0,0,0,.32-.994,7.206,7.206,0,0,0,.138-2.258c-.036-.216-.045-.437-.069-.686.55-.1.6-.491.515-.89a4.361,4.361,0,0,1,.076-1.64,2.326,2.326,0,0,0-.011-.819A2.735,2.735,0,0,1,61.405,28.886ZM5.387,26.843l.144,0-.013.276L5.4,27.13C5.4,27.035,5.392,26.939,5.387,26.843Zm.1,6.348a.689.689,0,0,1,.12.136c.007.016-.031.068-.057.076s-.085-.017-.088-.033A.689.689,0,0,1,5.484,33.191Zm.13,3.477c-.018,0-.049-.044-.074-.069.031-.024.06-.061.095-.068.019,0,.048.041.073.064C5.677,36.622,5.649,36.66,5.614,36.668Zm.077-5.528c-.156-.122-.083-.234.031-.35.159.073.236.168.112.323A.15.15,0,0,1,5.691,31.14Zm.3,4.693c-.008.014-.063,0-.162,0l.2-.139A.517.517,0,0,1,5.991,35.833ZM38.449,55.141a.56.56,0,0,1,.125.105l-.155.078a.415.415,0,0,1-.047-.128C38.37,55.177,38.432,55.134,38.449,55.141Zm-2.047.84c.12-.038.312-.06.385.009.183.172.222.393-.047.632a1.734,1.734,0,0,1-.349-.322C36.341,56.22,36.364,55.993,36.4,55.981Zm-.4.229c-.03.1-.03.153-.055.166-.205.11-.343.069-.414-.267Zm-1.592,1.77c.024.025.073.055.068.073-.008.034-.046.06-.072.089-.024-.024-.071-.055-.066-.073C34.345,58.036,34.383,58.009,34.408,57.98Zm-.792-.649a.191.191,0,0,1-.159.1c-.2-.062-.245-.193-.129-.378C33.544,57.029,33.645,57.125,33.616,57.33Zm-.3-1.278c.021.022.063.048.059.064s-.041.053-.063.078c-.02-.021-.061-.048-.058-.064S33.289,56.079,33.311,56.053Zm-5.36,3.066.2.24-.088.073-.205-.235Zm-2.807.184a.522.522,0,0,1,.083.032l-.046.078a.484.484,0,0,1-.061-.07C25.116,59.337,25.139,59.3,25.144,59.3ZM21.6,56.623l.262.171-.078.118-.258-.176Zm-.384.522a.718.718,0,0,1,.122.136l-.167.062a.588.588,0,0,1-.043-.149C21.132,57.178,21.207,57.136,21.221,57.146Zm-.771-.011-.038.073a.464.464,0,0,1-.159-.064c-.031-.03-.028-.094-.069-.256ZM18.505,55.91c.332-.066.343.191.442.457-.355.087-.565.058-.616-.237C18.32,56.066,18.432,55.925,18.505,55.91ZM6.228,20.375l.084-.084.413.348C6.357,20.7,6.307,20.52,6.228,20.375ZM6.8,24.983l-.147.048c-.022-.089-.046-.178-.062-.268a.27.27,0,0,1,.09-.03C6.726,24.814,6.763,24.9,6.8,24.983ZM6.433,32.6l.218-.07.03.1-.225.065C6.448,32.66,6.44,32.629,6.433,32.6Zm.3,8.91-.121-.1.129-.139c.034.035.1.072.1.1S6.78,41.454,6.734,41.508Zm.259-13.549c-.045,0-.089-.069-.133-.107a.759.759,0,0,1,.148-.138c.017-.01.074.051.219.158A.761.761,0,0,1,6.994,27.959Zm-.105-2.218c0-.025.064-.058.1-.088a.554.554,0,0,1,.111.157c.01.037-.039.089-.1.2A1.233,1.233,0,0,1,6.889,25.741Zm-.251-6.283a.1.1,0,0,1-.053.011c-.041-.013-.068-.074-.1-.115.034-.016.072-.049.1-.043a.449.449,0,0,1,.121.058c.265-.145.563.188.816-.039C7.337,19.816,7.087,19.834,6.638,19.458Zm1.91-2.867c0-.21-.023-.3.007-.356s.111-.067.171-.1l.09.086ZM9.66,14.612c.051.072.109.134.1.146a.488.488,0,0,1-.149.125c-.008,0-.089-.076-.08-.1A.846.846,0,0,1,9.66,14.612Zm-.463.922.764-.355.058.137C9.792,15.447,9.656,15.815,9.2,15.534Zm1.829-1.719a.648.648,0,0,1-.085-.106l.1-.065a.577.577,0,0,1,.061.121C11.1,13.776,11.031,13.821,11.025,13.815Zm.731-1.741-.127-.05.128-.347.147.059Zm.633-.539c-.047-.059-.109-.117-.1-.131.032-.053.083-.116.136-.127.035-.007.086.072.129.112Zm.7-1.333c-.142-.165-.209-.225-.2-.238a.3.3,0,0,1,.143-.135c.03-.008.117.073.123.12A.8.8,0,0,1,13.089,10.2Zm.308-.71a.162.162,0,0,1-.1-.1c-.006-.03.05-.073.091-.126.046.058.1.095.1.136S13.419,9.5,13.4,9.492Zm2.23-2-.065-.054a.7.7,0,0,1,.119-.174.49.49,0,0,1,.18-.051l.037.075ZM20.512,6.3l-.1,0V5.971l.117.005C20.525,6.084,20.519,6.192,20.512,6.3ZM21,5.16a1.705,1.705,0,0,1,.156-.44l.166.013a1.527,1.527,0,0,1,.106.45c0,.079-.153.149-.236.223C21.121,5.324,20.991,5.237,21,5.16Zm.172.392h.607C21.5,5.783,21.337,5.627,21.169,5.552Zm2.825-1.111a.817.817,0,0,1-.16-.1l.117-.105c.05.04.108.065.121.1C24.081,4.363,24.008,4.446,23.995,4.441Zm1.3-.917.055.069a.692.692,0,0,1-.076.043s-.03-.03-.026-.037A.474.474,0,0,1,25.3,3.524Zm-.075.4a.288.288,0,0,1,.109-.253.274.274,0,0,1,.264.062,3.429,3.429,0,0,1,.247.521C25.469,4.348,25.292,4.2,25.22,3.926Zm1.253.307c-.043-.039-.13-.09-.123-.114a.346.346,0,0,1,.124-.155c.01-.008.073.051.136.1Zm2.318.03c0-.474,0-.474.488-.527C29.049,4.247,29.049,4.247,28.792,4.263Zm.508-.87s-.046-.105-.028-.136c.1-.173.228-.106.368.065C29.526,3.348,29.414,3.375,29.3,3.393Zm.563.465-.1-.082.074-.068c.024.022.065.041.068.065S29.879,3.83,29.862,3.858Zm.2-.641-.111-.065c.022-.025.041-.063.068-.07s.053.027.079.043Zm.114.48c.028-.234.147-.292.358-.231C30.477,3.708,30.477,3.708,30.179,3.7Zm.762-.024c-.048,0-.147-.136-.138-.2.033-.2.178-.2.365-.128C31.193,3.526,31.158,3.67,30.941,3.673Zm.851-.065a.209.209,0,0,1-.127.055c-.01,0-.046-.055-.042-.08a1.261,1.261,0,0,1,.083-.217C31.767,3.53,31.806,3.589,31.792,3.608Zm.738.734.643-.37C32.937,4.492,32.937,4.492,32.53,4.342Zm1.593-.534c-.015.007-.092-.07-.086-.086a.211.211,0,0,1,.1-.11c.031-.013.081.022.176.054A1.126,1.126,0,0,1,34.123,3.807Zm.866-.2c-.032,0-.057-.065-.084-.1.029-.018.059-.053.086-.051a.616.616,0,0,1,.155.069C35.07,3.568,35.026,3.612,34.989,3.607Zm.484.494-.112-.067c.017-.027.035-.077.05-.076A.42.42,0,0,1,35.531,4ZM35.3,3.777l-.043-.164c.1-.024.2-.049.3-.067a.375.375,0,0,1,.031.109C35.5,3.7,35.4,3.737,35.3,3.777Zm.848-.22a.465.465,0,0,1-.093-.1c-.008-.014.034-.078.052-.077a.574.574,0,0,1,.151.054Zm3.444,1.565a2.554,2.554,0,0,1-.124-.226c0-.011.047-.047.072-.072l.145.244Zm1.3.471c-.03.012-.152-.111-.144-.125a.506.506,0,0,1,.177-.2c.033-.018.119.061.234.125A1.275,1.275,0,0,1,40.89,5.593ZM44.45,6.7c-.032-.023-.034-.087-.049-.133.046-.01.1-.042.135-.025s.043.081.075.149C44.539,6.7,44.478,6.725,44.45,6.7Zm.806,1.9-.388-.3.087-.128.422.265Zm.915-.288c-.037,0-.077-.077-.116-.12a.643.643,0,0,1,.184-.119c.031-.008.084.068.168.143A.788.788,0,0,1,46.171,8.314Zm.448.787-.254-.367.191-.127c.083.12.17.239.24.366A1.7,1.7,0,0,1,46.619,9.1Zm.119-1.4.449.136C46.922,8.134,46.774,8.07,46.738,7.7Zm.777,2.277a.44.44,0,0,1-.378-.126c-.169-.212-.082-.432.146-.686l.512.2C47.819,9.665,47.776,9.9,47.515,9.979Zm1.234-.12c-.034.031-.1.025-.252.056l.254-.266.078.048A.508.508,0,0,1,48.749,9.86Zm1.939,2.7A.4.4,0,0,1,50.525,12,.378.378,0,0,1,50.688,12.558ZM53.3,16.031c-.018.007-.051-.025-.078-.039l.065-.082.079.045C53.342,15.982,53.325,16.02,53.3,16.031Zm2.557,3.144c-.364-.345-.363-.365,0-.638Zm.469-.043c-.034,0-.1-.07-.093-.1a.157.157,0,0,1,.1-.106c.028-.007.073.055.126.1C56.4,19.074,56.361,19.132,56.323,19.132Zm1.135,3.2.044.091-.237.105-.039-.085Zm-.812-5.994.155.09-.25.418A.368.368,0,0,1,56.646,16.339Zm.086,4.178c.1,0,.191.113.346.219-.155.1-.256.212-.344.2s-.166-.141-.248-.219C56.568,20.648,56.65,20.517,56.732,20.517Zm-.018,1.226c.057.016.082.016.095.028a.437.437,0,0,1,.04.652.269.269,0,0,1-.255-.019A.417.417,0,0,1,56.714,21.743ZM56.7,22.786l.62.1C57.083,23.218,56.9,23.214,56.7,22.786Zm.457.973a.805.805,0,0,1,.722.493A.69.69,0,0,1,57.159,23.759Zm.864-3.179-.092-.087c.027-.017.055-.048.079-.047s.045.039.068.06Zm.171,5.026a.506.506,0,0,1-.075-.141c0-.027.052-.093.066-.089a.692.692,0,0,1,.154.092Zm.8-.976.234.185-.084.1-.226-.193ZM58.632,25.7a.532.532,0,0,1,.064-.132l.124.1a.76.76,0,0,1-.128.1C58.685,25.771,58.629,25.717,58.632,25.7Zm.168.1a.533.533,0,0,1,.1-.119l.085.114-.117.1C58.843,25.859,58.793,25.816,58.8,25.8Zm.032,2.369.548.147C59.049,28.531,58.9,28.507,58.832,28.169Zm.879-2.856c.145-.332.308-.447.641-.221A.509.509,0,0,1,59.711,25.313Zm.74,2.6a.684.684,0,0,1-.132-.145c.037-.03.087-.091.111-.083a.772.772,0,0,1,.18.135C60.53,27.865,60.469,27.92,60.451,27.909Z" transform="translate(-2.473 -1.339)" fill="none" stroke="#161615" stroke-miterlimit="10" stroke-width="3"/>
        <path id="Path_4384" data-name="Path 4384" d="M38.6,9.676l.037.03h0l.015-.018L38.6,9.676" transform="translate(-19.816 -4.967)" fill="#161615"/>
        <path id="Path_4385" data-name="Path 4385" d="M101.815,93.333a.61.61,0,0,1-.276-.623,4.8,4.8,0,0,1-.662.526,3.132,3.132,0,0,0-.757.9c.01.147-.041.21-.2.265-.027.034-.051.071-.078.1a8.283,8.283,0,0,1-.98.95,4.12,4.12,0,0,0-1.185,1.12,1.458,1.458,0,0,1-1.082.718,2.893,2.893,0,0,0-.5.111.6.6,0,0,0-.465.612c0,.282,0,.562,0,.841l1.093.164c-.23-.414.17-.464.371-.659.255-.248.533-.174.841-.078,0-.019.011-.032.015-.05l-.065-.162.088-.046.027.043a1.953,1.953,0,0,1,.82-1.035c.411-.288.973-.553.8-1.23.281-.146.538-.257.77-.408a6.311,6.311,0,0,0,.562-.441c.109-.341-.323-.479-.1-.737.245-.04.427.349.618.1.107-.138.05-.4.067-.614.741-.249,1.095-.516,1.009-.806l-.369-.222a5.861,5.861,0,0,1-.023-.685,4.319,4.319,0,0,1-.44.556c.033.261.065.509.1.788m-5.733,5.294c-.2-.116-.339-.221-.195-.439a.2.2,0,0,1,.187-.047c.147.119.165.27.007.486m.179-.115c-.015,0-.057-.087-.05-.093a.709.709,0,0,1,.134-.084l.068.125a.592.592,0,0,1-.152.052m.749-.673c-.018-.036-.061-.083-.051-.106a.5.5,0,0,1,.11-.115l.067.131-.127.09m1.762-1.55c-.022.011-.094-.074-.144-.116a2.238,2.238,0,0,1,.229-.25c.014-.012.1.063.216.138a2.24,2.24,0,0,1-.3.228" transform="translate(-49.088 -47.218)" fill="#161615"/>
        <path id="Path_4386" data-name="Path 4386" d="M12.042,28.875l0,0-.01-.007Z" transform="translate(-6.174 -14.815)" fill="#161615"/>
        <path id="Path_4387" data-name="Path 4387" d="M78.635,107.6c.126.01.227.014.318.015.027-.461.08-.465.5-.242l-.341.234c.277-.032.377-.166.508-.513-.46-.148-.685.142-.984.507" transform="translate(-40.364 -54.952)" fill="#161615"/>
        <path id="Path_4388" data-name="Path 4388" d="M76.483,108.488c.064.587.064.587.55.68l-.418-.75-.132.069" transform="translate(-39.259 -55.652)" fill="#161615"/>
        <path id="Path_4389" data-name="Path 4389" d="M109.113,89.215c-.008.016.083.1.088.1a1.863,1.863,0,0,0,.171-.151l-.128-.107a.833.833,0,0,0-.131.162" transform="translate(-56.008 -45.711)" fill="#161615"/>
        <path id="Path_4390" data-name="Path 4390" d="M11.408,29.036l.253-.139-.289.037.036.1" transform="translate(-5.837 -14.833)" fill="#161615"/>
        <path id="Path_4391" data-name="Path 4391" d="M12.008,28.874,12,28.863l-.031.017.043-.006" transform="translate(-6.142 -14.815)" fill="#161615"/>
        <path id="Path_4392" data-name="Path 4392" d="M74.746,104.744c.6.049.7-.008.86-.443-.4-.13-.6.124-.86.443" transform="translate(-38.367 -53.52)" fill="#161615"/>
        <path id="Path_4393" data-name="Path 4393" d="M72.864,105.519c.055.513.055.513.481.6l-.366-.656-.116.06" transform="translate(-37.401 -54.132)" fill="#161615"/>
      </g>
    </g>
  </g>
</svg>
