<svg xmlns="http://www.w3.org/2000/svg" viewBox="0 0 82.66 80.76"><title>Asset 3retry</title><g id="Layer_2" data-name="Layer 2"><g id="Layer_1-2" data-name="Layer 1"><path d="M13.23,39.66a8.94,8.94,0,0,1-1,.55c-.48.19-1,.3-1.56.47a3.25,3.25,0,0,0-.83-.59,2,2,0,0,0-.95.12c-.31.06-.61.19-.93.25a1.4,1.4,0,0,1-1.26-.33c-.6-.5-1.22-1-1.83-1.43a10.44,10.44,0,0,1-3.09-4.6A19.1,19.1,0,0,1,1,31.33C.74,30.4.62,29.44.4,28.51a3.6,3.6,0,0,1,.14-2.64A1.43,1.43,0,0,0,.4,24.78a2.2,2.2,0,0,1-.11-2,2,2,0,0,0,.08-1.3,5.19,5.19,0,0,1,0-2.87,4.31,4.31,0,0,0-.1-2.46A9.1,9.1,0,0,1,0,14a2.72,2.72,0,0,1,3.09-.81,18.49,18.49,0,0,1,4.1,1.64,15.85,15.85,0,0,0,2.66,1.1,2.16,2.16,0,0,0,2.62-.71c1.81-2.43,4.27-4.13,6.66-5.89a17.53,17.53,0,0,0,2.69-1.9,17.57,17.57,0,0,1,3.23-2.44,23,23,0,0,1,6.41-3.19c1.12-.33,2.19-.82,3.33-1.07A31.56,31.56,0,0,1,44,.11a25.53,25.53,0,0,1,5.1,1.19c2.17.64,4.35,1.24,6.52,1.87a18.46,18.46,0,0,1,5,2.06,38.41,38.41,0,0,0,4.15,2.1,4.45,4.45,0,0,1,1.73,1.21,2.91,2.91,0,0,0,.84.8,6.71,6.71,0,0,1,2.79,3.12c.06.11.11.28.2.32,1.37.65,1.83,2.13,2.86,3.1a4.49,4.49,0,0,1,.93,1.23A9.53,9.53,0,0,0,76,19.58a3.55,3.55,0,0,1,.66,1.17c.83,2.1,1.63,4.21,2.44,6.32a5.18,5.18,0,0,1,.17.56l1.47,6.23c.11.5.23,1,.35,1.49.06.25.24.51.2.74-.33,2.09.79,3.89,1.13,5.85a10.52,10.52,0,0,1,.12,4c-.1.51-.12,1-.19,1.54a3.15,3.15,0,0,1-.19,1.13c-1.08,1.82-1.35,4-2.67,5.74a9.55,9.55,0,0,0-1.13,3.07c-.29,1-.46,2-.72,3a12.31,12.31,0,0,1-.51,1.44,4.53,4.53,0,0,0-.37.89C76.4,64.69,75,65.92,74,67.37s-2.51,2.38-3.66,3.68a2.46,2.46,0,0,1-.78.57,27.37,27.37,0,0,1-4.22,1.89,9.66,9.66,0,0,0-2.46,1,31.45,31.45,0,0,1-5.41,2.56,3.73,3.73,0,0,0-.88.41,6,6,0,0,1-2.3,1A4.34,4.34,0,0,0,53,79a3.41,3.41,0,0,1-1.65.46,7.84,7.84,0,0,0-1.32.3,3.92,3.92,0,0,1-1.12.15,15,15,0,0,0-5.57.5,6.46,6.46,0,0,1-3.82,0,6,6,0,0,0-1.34-.2c-2-.18-4-.26-6-.53a12.68,12.68,0,0,1-2.89-.94c-1.19-.48-2.22-1.33-3.56-1.45a2,2,0,0,1-.69-.33c-.62-.34-1.22-.73-1.86-1a18.43,18.43,0,0,1-3.53-2.36c-2.46-2-4.28-4.48-6.3-6.82a4.94,4.94,0,0,1-1.44-3.52c0-.58-.42-1-.25-1.69a4.66,4.66,0,0,1,3.68-3.73c.64.63.64.63.76,1.82.64.17.84-.25.81-.73a12,12,0,0,0-.34-1.73,2.54,2.54,0,0,1,3.08.46,65.62,65.62,0,0,1,4.63,5.22,14.19,14.19,0,0,0,3.36,3.47,19.3,19.3,0,0,1,1.73,1.53,2.37,2.37,0,0,0,2,.91,1.82,1.82,0,0,1,.76.1,27.48,27.48,0,0,0,7.66.87,2.52,2.52,0,0,0,1.47-.38,26.51,26.51,0,0,1,2.85-1.59A14.2,14.2,0,0,1,46.55,67a6,6,0,0,0,2.94-1.36,1.83,1.83,0,0,1,.84-.46,14,14,0,0,0,3.75-1.54,2.73,2.73,0,0,1,.56-.15,3.23,3.23,0,0,0,.11.54s.19,0,.29,0,0-.14,0-.16-.31-.21-.46-.31a8,8,0,0,1,1-.82c1-.55,2.11-1,3.11-1.58.61-.35,1.08-.91,1.68-1.29,1-.65,2.11-1.25,3.18-1.84a4.34,4.34,0,0,0,2.06-2.22A5.58,5.58,0,0,1,67,53.93a14.73,14.73,0,0,0,3.18-4.85,30,30,0,0,0,1.54-5.57,28.55,28.55,0,0,0,.62-4.41,16,16,0,0,0-.14-3.85,33.67,33.67,0,0,0-2.55-7.93,11.89,11.89,0,0,0-1.9-2.66c-1.6-1.87-3.26-3.68-4.9-5.51a18,18,0,0,0-4.19-3.44c-.94-.57-1.79-1.3-2.77-1.79-1.5-.74-3.08-1.33-4.62-2a42.79,42.79,0,0,1-6.63-1.34,30.14,30.14,0,0,0-5.6-.33,29.17,29.17,0,0,0-3.5.1c-1.8.13-3.61.3-5.4.52a2.41,2.41,0,0,0-1,.53c-1.23.83-2.47,1.66-3.66,2.55a7.11,7.11,0,0,0-1.51,1.49,5.22,5.22,0,0,1-2.22,1.81,5.42,5.42,0,0,0-1.14.71,2.2,2.2,0,0,0-1,2,5,5,0,0,1-.24,1.18c.76,1,2.11,1.07,3.12,1.72.54.34,1.1.52,1.45,1.15a2.41,2.41,0,0,0,1.21.9,2.51,2.51,0,0,0,1.51.19c2.2-.68,3.44.37,4.33,2.19.08.17.21.33.3.5a.8.8,0,0,1,.05.22,3.53,3.53,0,0,1-2.2,3.33,2.29,2.29,0,0,0-.78.56,1.84,1.84,0,0,1-1.71.71,2.45,2.45,0,0,0-1.59.6c-1.59,1-3.2,1.93-4.81,2.88a14.12,14.12,0,0,1-3.11,1.55,4.27,4.27,0,0,0-1.26.89,4.37,4.37,0,0,1-2.63,1.14l-.32.1Z"/></g></g></svg>