<svg xmlns="http://www.w3.org/2000/svg" viewBox="0 0 140.5 155.56"><title>Asset 1sun</title><g id="Layer_2" data-name="Layer 2"><g id="Layer_1-2" data-name="Layer 1"><path d="M89.05,113.27l.13.56a7.49,7.49,0,0,1-3.46.58,5.66,5.66,0,0,0-2.87.36,3.24,3.24,0,0,1-.79.23c-1.14.07-2.29,0-3.42.19a18.09,18.09,0,0,1-4.65-.07c-.92-.12-1.86-.14-2.79-.22a3.33,3.33,0,0,1-.6-.16,19.62,19.62,0,0,0-3.95-.87,10.27,10.27,0,0,1-2.21-.57c-.45-.14-.85-.49-1.38-.18-.08,0-.3-.12-.45-.18l-2-.8a8,8,0,0,1-1-.36c-1.25-.68-2.49-1.38-3.74-2.07-.12-.07-.26-.09-.39-.15a20.59,20.59,0,0,1-2.87-1.4,6.08,6.08,0,0,1-1.33-1.69c-.32-.45-.59-.83-1.26-.71a1,1,0,0,1-.76-.4c-.87-1.13-1.73-2.26-2.5-3.45a12.27,12.27,0,0,1-.91-2.06c-.06-.12-.09-.3-.18-.35-.69-.39-.8-.93-.24-1.69a1.09,1.09,0,0,1-1.3-.81c-.53-1.35-1.22-2.64-1.68-4A19.41,19.41,0,0,1,42,89.91a2.23,2.23,0,0,1-.51-2.15,5.89,5.89,0,0,0,0-1.45,3.21,3.21,0,0,1,0-.62c.29-1.39.51-2.8.92-4.15a7.81,7.81,0,0,0,.22-3.18A15.29,15.29,0,0,1,43,75.83a4.94,4.94,0,0,1,.35-1.29c.17-.49.37-1,.54-1.46.28-.84.54-1.7.84-2.55a5.05,5.05,0,0,1,.43-.79c.07-.12.23-.21.24-.33.19-1.35,1.23-2.33,1.57-3.61a1,1,0,0,1,.28-.44,21.88,21.88,0,0,0,1.44-2.25c.72-1,1.19-2.24,2.1-3,1.31-1.07,2-2.6,3.41-3.61s2.35-2.1,3.53-3.14a3.44,3.44,0,0,1,.7-.4c.45-.25.88-.55,1.35-.76s.88-.23,1.3-.4a32.91,32.91,0,0,1,4.62-1.94,4.14,4.14,0,0,1,2.15-.16.81.81,0,0,0,1-.31,2,2,0,0,1,1-.61,13.47,13.47,0,0,0,3.87-1.43,1.24,1.24,0,0,0,.52-.46,2.64,2.64,0,0,1,1.43-1.32c.88-.45,1.78-.87,2.68-1.27a.77.77,0,0,1,.59,0,1.46,1.46,0,0,0,1.72-.19,2.6,2.6,0,0,1,1.8-.21,4.5,4.5,0,0,1,2,.84,2.46,2.46,0,0,0,2,.58,4.75,4.75,0,0,1,3.22,1,10.22,10.22,0,0,1,2.49,2.1c.16.19.47.24.78.39-.31.42-.73.87,0,1.27l0,0a.84.84,0,0,0,1,.6,2,2,0,0,1,2,.87c.27.34.79.47,1.08.8.58.68,1.08,1.43,1.73,2.31H97.35c.93.75,1.62,1.76,2.85,2a5,5,0,0,1,2.22,1.5,28.16,28.16,0,0,1,2.09,2.14,1.44,1.44,0,0,1,.21.47,8,8,0,0,0,1.69,2.6,1.61,1.61,0,0,0,.48.38,4.46,4.46,0,0,1,2.06,2,9.45,9.45,0,0,0,.59.79c-.59.44.38,1.11-.3,1.66,1.65.76,1.82,2,1.42,3.51-.16.6,0,.91.63,1.09s.66.5.68,1c0,1,.07,2,.19,3a5.78,5.78,0,0,0,.44,1c.42,1.19.38,1.28-.66,2a2.31,2.31,0,0,1,.27,2.71.68.68,0,0,0,0,.59,3.18,3.18,0,0,1,.31,2c0,1,0,1-.94,1.29l1.17,1.26c-.55.85-1.06,1.59-1.5,2.37a1.19,1.19,0,0,0,0,.81,1.14,1.14,0,0,1-.24,1.06,2.81,2.81,0,0,0-.46,1c-.14.69-.33,1.24-1.26,1.06a6.2,6.2,0,0,1-1.07,2.82,3.56,3.56,0,0,1-1.41,1.87.47.47,0,0,0-.18.25c-.23.89-.94,1.55-1.09,2.47,0,.16-.11.38-.24.44-.75.41-1.06,1.44-2.1,1.37.27,2.14-1.44,2.27-2.84,2.89l.56,1.12c-.4.54-.78,0-1.21.06.41,1.06-.55,1.41-1.07,2a3,3,0,0,1-2.33.85l0,.6a7.38,7.38,0,0,1-1.77,1.08,5.17,5.17,0,0,0-2.49,1.3c-.23.24-.79.18-1.21.21-.63,0-1.25.05-1.88.08l-.54-.26,0,.18Zm-19.16-6.91c.13.21.06.66.59.42l-.61-.39a4.22,4.22,0,0,1,1,0c.75.12,1.5.3,2.23.49,1.58.39,3.31,0,4.83,1l-.17-.72L80,107c.86,0,1.72,0,2.58-.13,1.1-.11,2.21-.28,3.3-.46.75-.12,1.42-.62,2.23-.43.09,0,.2-.07.29-.11a2.75,2.75,0,0,1,.83-.4,2.31,2.31,0,0,1,.83.25c.2-.58.2-.59.62-.73l2.34-.78c.1-.38.08-.85.31-1.06a2.44,2.44,0,0,1,1-.35c.27-.38.41-.8.7-.94a6.68,6.68,0,0,0,2.45-2.18c.63-.89.91-1,2-.69a1.41,1.41,0,0,0,.39-.08,1.33,1.33,0,0,1,0-2c.1-.13.23-.25.35-.38a10,10,0,0,0,1-1.11,2.51,2.51,0,0,1,.79-.73,2.91,2.91,0,0,0,1.27-1.41,5.56,5.56,0,0,1,.63-1.6,3.63,3.63,0,0,0,.37-1.08,11.62,11.62,0,0,0,.27-1.85c0-1,.25-1.71,1.43-2a1.91,1.91,0,0,1-.57-2.28,2.23,2.23,0,0,0,0-.73c0-1.29,0-1.29,1.1-1.79-1-.22-1-.22-1-1.12a5.33,5.33,0,0,1-1-1,4.76,4.76,0,0,1-.6-1.65,9.05,9.05,0,0,0-.61-2.46,14.91,14.91,0,0,1-.45-2.13,1.05,1.05,0,0,0-.25-.43c-.43-.54-.89-1.06-1.31-1.6-.55-.71-1.07-1.45-1.63-2.16a15.34,15.34,0,0,1-1.34-1.58,7.18,7.18,0,0,0-2.39-2.57,2.24,2.24,0,0,1-.66-.79,22,22,0,0,0-2.95-3.07,47.82,47.82,0,0,0-6.58-2.74c-1.12-.34-1.43-.2-2.18.64s-1.34,1.29-2,1.94c-.37.35-.72.73-1.1,1.08a5.92,5.92,0,0,1-1.37,1.1c-.27.12-.74-.22-1.13-.34-.16,0-.34,0-.51-.07a2.38,2.38,0,0,1-.77-.23,2.54,2.54,0,0,0-2.11-.32,5.88,5.88,0,0,1-2.85.37c-.14,0-.32.09-.49.14-.81.23-1.63.44-2.45.68q-1.68.48-3.36,1a.88.88,0,0,0-.17.12,13,13,0,0,1-2,1.21,3.16,3.16,0,0,0-1.9,1.66c-.08.17-.27.28-.41.42a7.29,7.29,0,0,0-1.08,1.07,1.41,1.41,0,0,1-1.31.82c-.12,0-.24.08-.39.14l.29.51A1.92,1.92,0,0,1,57,71.9a1.93,1.93,0,0,0-1.34,1.2,2.68,2.68,0,0,1-.46.57,1.88,1.88,0,0,1-.67,2.12,2.23,2.23,0,0,0-.56.73c-.37.82-.7,1.67-1.06,2.49a1.15,1.15,0,0,1-.34.51,1.06,1.06,0,0,0-.41,1.2c.15.67-.46,1.32,0,2,0,.06-.16.28-.24.43a5.15,5.15,0,0,1-1.63,2.16,3.06,3.06,0,0,1,.8,3.07c-.49,1.86.6,3.36,1,5,1.13,1.29,1.46,3.18,3.06,4.13a.33.33,0,0,1,.12.16c.29,1.09,1.43,1.56,1.86,2.55,0,0,.13,0,.2,0l.42-.49a5.35,5.35,0,0,0,.84,1.13,2.65,2.65,0,0,1,1,1.77,7.13,7.13,0,0,0,.23.91s.11.06.24.13l.09-1.06a12.14,12.14,0,0,1,2.27.69,14.9,14.9,0,0,1,1.9,1.42,2.53,2.53,0,0,0,1.07.59c.3,0,.64-.29,1-.48l1.68.71Zm40.18-23.63c-.42-.59-.77-.68-1.27-.46C109.08,82.77,109.49,82.68,110.07,82.73ZM75.89,111.1l.13-.23a.83.83,0,0,0-1.08-.23Zm-22.57-2.91.17-.17-.44-.48-.2.18Zm2.07-.6v-.16l-.39,0a.7.7,0,0,0,0,.17A2.2,2.2,0,0,0,55.39,107.59ZM108.22,80.7c-.08,0-.15-.09-.18-.07a1,1,0,0,0-.18.18s.12.08.15.06A.83.83,0,0,0,108.22,80.7ZM60.9,104.8l.25-.23-.41-.38-.25.27Zm35.81,2.65a1.43,1.43,0,0,0,.07-.36s-.09-.1-.13-.15-.14.14-.13.21S96.61,107.3,96.71,107.45Zm-29.49-1.69.06-.23-.43,0c0,.06,0,.17,0,.18A2.12,2.12,0,0,0,67.22,105.76Zm-5.88.67.12-.17L61,106l-.09.14ZM111,87.24l.14-.11S111,87,111,87s-.09.06-.14.09ZM67.54,111.79l.18-.24-.32-.24-.14.16ZM97.26,53.43s.09-.12.07-.15-.09-.07-.14-.1-.09.11-.07.15S97.21,53.39,97.26,53.43Zm-5.09,56.34-.09-.13s-.12.07-.13.11,0,.09.08.14ZM105,94.85l-.06.08.22.18.07-.09Zm5.58-4.72a.38.38,0,0,0-.17-.08s0,.09-.07.15.11.07.17.07S110.57,90.18,110.59,90.13Z"/><path d="M16.05,109.38a2.94,2.94,0,0,1,1.67-1.16,4.87,4.87,0,0,0,1.94-1.36,8.52,8.52,0,0,1,1.94-1.51,2.49,2.49,0,0,0,.46-.4,4.8,4.8,0,0,1,1-.8,14.3,14.3,0,0,0,1.76-1.38c.81-.57,1.54-1.45,2.73-1.39,0-1.19,1.08-1.17,1.78-1.52.33-.17.72-.14.89-.57a.42.42,0,0,1,.34-.19c.86,0,1.72,0,2.64,0a2.69,2.69,0,0,0,.59,2c.25-.77.48-1.51.72-2.25.7.09.32.76.45.92a9.35,9.35,0,0,1,1.45,1c.37.38.69.51,1.11.13.61.84-.11,1.36-.33,2,.06.1.09.23.16.27a5,5,0,0,1,2.25,1.76c.16.27.66.34,1,.52.19.48-.66,1.14.39,1.58-.9.19-.76.61-.5,1.06s.46.76-.12,1.06c.1.21.18.36.26.51.37.74.21,1-.63,1a1.77,1.77,0,0,0-.32,0,4.29,4.29,0,0,1-1.08.24,3.16,3.16,0,0,1-1-.43l-.85,1c-.16-.13-.29-.19-.36-.3a1.48,1.48,0,0,0-1.75-.57c-.45.09-.93.09-1.42.14a2,2,0,0,1,0,.71c-.26,1-.95,1.42-1.88.94a3,3,0,0,0-1.62-.11c-.2,0-.39.22-.58.34a6.93,6.93,0,0,0,.5.58s.13,0,.27,0l.17-.5c.06,0,.16,0,.18.06.67,1.11.39,1.7-.87,1.82a3.05,3.05,0,0,0-1.77.75c-.85.72-1.8,1.31-2.71,2-.37.27-.94.4-.84,1a5.22,5.22,0,0,1-1.42.74c-.62.11-1.12.17-1.38.87-.16.43-.66.49-1.06.18a3.53,3.53,0,0,1-.56-.69l-.69.92H17.83a1.52,1.52,0,0,1-1.6,1.44,1.54,1.54,0,0,0-1.29.8c-.22.41-.54.44-1,.29a4.65,4.65,0,0,0-1.06-.11c-.16.84.67.7.85,1.16-1.25.85-2.76.52-4.14.86a2.34,2.34,0,0,1,0,.76c-.06.2-.29.51-.41.49-.76-.1-1.23.45-1.8.74-.86.45-1.51.22-1.51-.71a1.28,1.28,0,0,0-.72-1.24c-.33-.2-.63-.45-1-.65a2.47,2.47,0,0,1-1.16-2.92c.15-.53.35-1,1-1l-.16-1.08c1.2.18,1.53-1,2.37-1.4l.5.55c0-.08.13-.15.12-.17a1.39,1.39,0,0,1,.38-1.54,4.84,4.84,0,0,1,2.52-1.91,1.35,1.35,0,0,0,.77-.75c.48-1.25,1.61-2,2.34-3,.74-.16,1.17-.79,1.77-1.16A4.9,4.9,0,0,1,16.05,109.38Zm22.61.66c-.28-.46-.68-.83-.33-1.36.05-.06-.13-.39-.2-.39s-.47.12-.47.21a3.13,3.13,0,0,0,.08,1.1C37.83,109.94,38.07,110.21,38.66,110Zm-1.76-1.8c-.76-.4-1.38.41-2.14-.23C35.51,109.2,35.92,109.22,36.9,108.24Zm-1.18-2.83c.4,1.3.46,1.28,1.88,1Zm-10.19,10c-.3-1.36-.3-1.36-1-1.58C24.91,114.34,24.85,115,25.53,115.39ZM36,109.77l-.09.25.66.25.07-.19ZM10.66,119.88l.11-.26-.58-.22-.07.17Zm15.4-16.16c.09-.11.21-.22.19-.24a.5.5,0,0,0-.26-.24s-.15.14-.22.22Zm-1.43,3.67-.13-.21-.31.3s.12.13.13.12A3.37,3.37,0,0,0,24.63,107.39Zm10.59-2.18a1.69,1.69,0,0,0-.36-.2s-.11.12-.16.18a1.23,1.23,0,0,0,.28.23S35.1,105.32,35.22,105.21Zm-9.89,5.56a1.43,1.43,0,0,0-.4-.16s-.1.12-.16.19a1.8,1.8,0,0,0,.31.2S25.2,110.89,25.33,110.77Zm1.79-8.39c-.05,0-.1-.1-.14-.09s-.07.08-.11.12.1.09.14.09S27.08,102.42,27.12,102.38Zm.78,8.78s0-.13-.09-.15-.11,0-.17,0l.12.22Zm-6,3-.14-.12a.59.59,0,0,0-.06.14s0,.06.06.06Zm-10.46,6.44-.12.09s0,.08,0,.08h.14A1,1,0,0,0,11.41,120.56Z"/><path d="M72,147.13c.34,0,.62,0,.77.11.61.48,1.44.64,1.83,1.48.18.4.8.6,1.23.89l.14-.16c-.45-.53-.87-1.08-1.36-1.57a4.79,4.79,0,0,0-1.48-1.12c-.69-.27-1-.86-1.43-1.32a1.39,1.39,0,0,1-.42-.82,4.5,4.5,0,0,0-.5-1.67,13.51,13.51,0,0,1-.93-4.16,1.08,1.08,0,0,1,0-.51,1,1,0,0,0-.12-1.06c-.49-.79-.1-1.61,0-2.41,0-.09.21-.16.26-.19-.25-.54-.76-1.1-.67-1.56.16-.88,0-1.89.71-2.69a1.32,1.32,0,0,1-.27-1.74c.24-.41,0-1.08.12-1.6a5.18,5.18,0,0,0,.23-1.84,1.59,1.59,0,0,1,.74-1.62,5.07,5.07,0,0,0,.69-.7l-1-.74c.28-.77.58-1.57.9-2.43.79.16,1.56.35,2.34.45a2.74,2.74,0,0,0,1.21-.1.85.85,0,0,1,1,.2,3.94,3.94,0,0,0,3,1.52,2,2,0,0,1,1.91,2c0,.45.37.53.74.56a1.76,1.76,0,0,1,1.45.59c0,.06,0,.16-.08.18-1.11.51-1.24.76-1.16,2,0,.47-.07,1-.07,1.43a3.36,3.36,0,0,0,.1.9c.3,1,.7,2,.94,3a3.5,3.5,0,0,1-.09,1.54,6.84,6.84,0,0,0-.15,2.95,1.28,1.28,0,0,1-.58,1.48l.75,1.13-1-.16.7,1.4-.94,1,.33,1-.76.44.28.86-1.42-.12c.21.24.35.41.5.57a3.42,3.42,0,0,1,.68,3c0,.2-.33.42-.55.5a3.3,3.3,0,0,1-1,0c.42.46,1,.58.9,1.27l-.8-.25c.17,1,.7,2.16-.87,2.61.91,1.29-.23,2-.74,2.77a2.22,2.22,0,0,1-1.63,1.12c-.39,0-.67,0-.92-.28a10,10,0,0,1-2.25-4.37,19.23,19.23,0,0,0-1.27-3.29C72.15,147.49,72.09,147.37,72,147.13Zm6.43-5.07h-.18c0,.13-.1.27-.06.38s.18.21.28.31l.14-.08Zm1.13,7.74c-.11-.09-.18-.19-.25-.2s-.13.09-.2.14.11.17.19.19S79.43,149.86,79.55,149.8Zm-.76-26.58s-.06-.11-.1-.13-.1,0-.15,0,0,.12.09.14S78.74,123.24,78.79,123.22Zm-8.34,3.87-.14-.11a.25.25,0,0,0,0,.08l.15.11Z"/><path d="M12,58a1.63,1.63,0,0,1-1.77-.43,3.29,3.29,0,0,0-.83-.44,11.27,11.27,0,0,1-3.26-2.34,1.31,1.31,0,0,0-.32-.26,13.52,13.52,0,0,1-3.46-2.79,13.89,13.89,0,0,0-1.9-1.43.78.78,0,0,1-.39-1,2.63,2.63,0,0,1,2-1.88A3,3,0,0,0,3,47.08c.34-.21.6-.54,1.09-.51.17,0,.38-.25.53-.43a1.22,1.22,0,0,1,1.73-.38c.41.17.86.23,1.29.36s.73.24,1.09.34.51.2.7.13c1.66-.66,3.3-.16,4.95.06a10.28,10.28,0,0,1,1.28.37c.06,0,.14.08.19.06,1.09-.33,1.94.41,2.9.62A9.72,9.72,0,0,1,20,48a10.24,10.24,0,0,1,1.65.84,1.53,1.53,0,0,0,1,.32,3.55,3.55,0,0,1,1.73.59c.62.3,1.19.68,1.8,1a11.68,11.68,0,0,0,1.87.61,2.34,2.34,0,0,1,1.29.83,1.89,1.89,0,0,0,.87.73c.95.2,1.11,1.06,1.57,1.67s.71,1,1.07,1.51c.08.11.23.26.31.24.81-.15,1.19.33,1.6.9a1.85,1.85,0,0,0,.92.44,1.15,1.15,0,0,1,.91,1,.9.9,0,0,1-.69,1c-.57.21-.71.84-1.15,1.22-.78.66-1.44,1.22-2.53.91a.9.9,0,0,0-1,.35.93.93,0,0,1-1.37.26,1.89,1.89,0,0,0-1.61,0,1.73,1.73,0,0,1-.8.11c-1.12-.23-2.23-.53-3.35-.76-.75-.15-1.51-.23-2.27-.31a16.59,16.59,0,0,1-4.46-1.32c-1.34-.53-2.76-.85-4.13-1.32A7.57,7.57,0,0,1,12,58Zm18.57-4.28-.16.21.45.28.1-.14ZM20,55.29a.9.9,0,0,0,0,.16s.05,0,.07.07l.1-.13Z"/><path d="M66,32.54l-.92-.86.09,0c-.25-.55-.51-1.1-.75-1.66a2.18,2.18,0,0,1-.26-.87c.06-1,.18-2,.28-3a2.24,2.24,0,0,0,0-.51c-.17-1.06-.39-2.11-.53-3.17a6.29,6.29,0,0,1-.06-2.07c.13-.63-.14-1.34.37-1.89a.3.3,0,0,0,0-.29,4.2,4.2,0,0,1,0-2.88,6.9,6.9,0,0,0,.24-2.52c.7-.86.37-1.95.66-2.91.16-.53.18-1.1.3-1.64s.25-1,.41-1.62c-.55-.82-.17-1.71.41-2.53a5.3,5.3,0,0,0,1.2-2.4.43.43,0,0,1,.12-.28A16.18,16.18,0,0,1,69.23.19a1.13,1.13,0,0,1,1.35.07,17.63,17.63,0,0,0,2.06,1.11,5.07,5.07,0,0,1,.75.72c.4.37.79.75,1.21,1.09a1.2,1.2,0,0,1,.25,1.68c-.95,1-.5,1.9-.08,2.92a4.6,4.6,0,0,0-.52.47.74.74,0,0,0-.06,1.11.81.81,0,0,1,.19,1,1.38,1.38,0,0,0,.29,1.55,4.81,4.81,0,0,1,.53,1,2.25,2.25,0,0,0-.44,2.62c.09.16-.07.45-.12.67a5.49,5.49,0,0,0-.4,1.72,1.18,1.18,0,0,1-1.13,1.49l.51.66c-.3,1.48.17,3.09-.88,4.47l-.85-.59c-.35.34-.28.67,0,.8a2.21,2.21,0,0,1,1.26,1.68,7.6,7.6,0,0,0,.57,1.16l-1.14-.16.72,1.2a4,4,0,0,0-.71,2.69c0,.5-.06.87-.46,1.11.07.38.61.69,0,1.07L71.47,33c0-.37,0-.73-.15-.9s-.66-.38-.79-.28a1.79,1.79,0,0,0-.57.93c-.09.36.23.81-.25,1.13a2.07,2.07,0,0,0,.37.77c.11.13.37.15.57.22.63.21.73.35.61,1a4.63,4.63,0,0,1-.21.59l1.28,1c-.79.26-1.08.68-1,1.42A2.17,2.17,0,0,1,71,40.05a4.54,4.54,0,0,1-.87,1.27c-.56.48-.83-.4-1.34-.4a1.38,1.38,0,0,1-1.3-1c-.53-1.28-1.1-2.55-1.62-3.83a1.18,1.18,0,0,1,0-.72,2,2,0,0,0-.63-2.16.74.74,0,0,1-.17-.25c0-.06,0-.13,0-.24l.86,0Zm.92-3.6-.76-.79-.2,1.42Zm4.64,1.77a1.43,1.43,0,0,0,.16-.42c0-.06-.17-.17-.22-.15s-.23.15-.23.23S71.39,30.55,71.54,30.71ZM68.46,34.8c-.1-.62-.35-.63-.67-.48,0,0,0,.11-.08.24Zm1.41-3.51.18.14.28-.53-.15-.08Zm2-4.56c.08,0,.19-.07.19-.09a1.09,1.09,0,0,0-.1-.25l-.22.1Z"/><path d="M131.61,118.78c.3-.43,1.07.09,1.19-.69l-1.56.07-.3-.68a1.62,1.62,0,0,0-.33,0c-.16.07-.36.12-.45.25a1.93,1.93,0,0,1-2.32.61c-1-.25-2,0-3-.41a1.26,1.26,0,0,0-.72,0,3.43,3.43,0,0,1-2.58-.58,18,18,0,0,0-1.84-.8c-.23-1-.2-2-1.08-2.59a1.3,1.3,0,0,1-.47-1.22,2.45,2.45,0,0,0-1.27-2.25,1.54,1.54,0,0,1-.6-.91c-.19-.62-.45-1.23-.65-1.85a5.65,5.65,0,0,1-.63-2.88c.15-.81.23-.89,1-1l1.17-.2-.64-.59s.06-.14.1-.15a5.6,5.6,0,0,1,3.09,0,1.6,1.6,0,0,0,.92,0,2.48,2.48,0,0,1,2,.15,4,4,0,0,0,1.12.24c.9.18,1.17.52,1,1.42a.69.69,0,0,0,.48.9,5.23,5.23,0,0,1,2.42,1.53,1.72,1.72,0,0,0,.8.48,5.77,5.77,0,0,1,2.83,2c.82.94,1.73,1.8,2.63,2.71l-.47,1a1.5,1.5,0,0,0,1.73.68c.8-.19.9-.16,1.14.59.15.5.57.58.91.78s.94.44,1.42.66a2.64,2.64,0,0,1,1.55,2.08c0,.31.13.62.18.92a1.11,1.11,0,0,1-1.27,1.34c-1.26-.27-2.49-.66-3.73-1a6.91,6.91,0,0,0-1-.19l-2.6-.2C131.79,118.94,131.71,118.85,131.61,118.78Zm5.64-2.28-.1.14s.1.1.14.09.07-.09.11-.13Z"/><path d="M38,102.62a4.7,4.7,0,0,1,.54-.37,5,5,0,0,1,.64-.26l1.5,1.62c-1.11.17-1.59-1.12-2.62-.69Z"/><path d="M92.88,50c.78-.62.78-.62,1.85,0H92.86Z"/><path d="M72.66,36.25l-.22.14c0-.06-.09-.14-.07-.16a1.16,1.16,0,0,1,.2-.18Z"/><path d="M82.53,141.89c0-.06-.12-.11-.11-.14s.08-.08.12-.12.11.08.1.12S82.57,141.84,82.53,141.89Z"/><path d="M136.08,38.55c-.21-.26-.45-.42-.48-.61-.11-.77-.6-1.45-.31-2.33.15-.42-.17-1-.28-1.49h-.21c0,.69-.11,1.39-.09,2.08A4.79,4.79,0,0,0,135,38a4.16,4.16,0,0,1,.13,1.94,1.32,1.32,0,0,1-.26.88,4.53,4.53,0,0,0-.78,1.57,13.42,13.42,0,0,1-2.19,3.65c-.11.13-.21.31-.36.36a1,1,0,0,0-.65.85c-.19.91-1,1.24-1.68,1.72-.08.06-.27,0-.32,0-.19.56-.21,1.32-.59,1.6-.72.53-1.28,1.39-2.37,1.45a1.31,1.31,0,0,1-1,1.45c-.46.13-.74.79-1.19,1.09a5.22,5.22,0,0,0-1.44,1.17,1.58,1.58,0,0,1-1.65.67,4.92,4.92,0,0,0-1,0c.07.43.13.77.21,1.22l-2.33,1.14c-.47-.67-.9-1.33-1.39-1.94a2.69,2.69,0,0,0-1-.76c-.42-.19-.69-.49-.62-.86A4,4,0,0,0,113.44,52a2,2,0,0,1,0-2.73c.28-.36.09-.64-.15-.92a1.76,1.76,0,0,1-.65-1.43c.06,0,.14-.08.18-.07,1.16.4,1.42.3,2.22-.65.31-.37.71-.65,1-1a2.94,2.94,0,0,0,.54-.73c.47-.93.85-1.9,1.37-2.8a3.42,3.42,0,0,1,1.12-1.05,7.06,7.06,0,0,0,2.14-2,1.28,1.28,0,0,1,1.44-.68l.23-1.34.61.81.45-1.5,1.4-.12.44-.93.85.2.38-.81L128,35.3c0-.32,0-.54,0-.75a3.42,3.42,0,0,1,1.6-2.69.94.94,0,0,1,.75,0c.22.1.39.35.72.66,0-.62-.36-1.14.22-1.54l.41.73c.6-.87,1-2,2.43-1.29.22-1.56,1.53-1.3,2.44-1.5a2.22,2.22,0,0,1,1.95.3c.3.25.51.45.48.84a10.19,10.19,0,0,1-1.37,4.72,18.46,18.46,0,0,0-1.35,3.26Zm-8.14-.75.14.12c.1-.07.25-.13.29-.23a1,1,0,0,0,0-.42l-.16,0Zm4.5-6.39c0,.15,0,.26,0,.32s.16,0,.24,0,0-.19,0-.26S132.57,31.45,132.44,31.41ZM114.71,51.22c0,.06,0,.13,0,.17s.09,0,.14.07,0-.12,0-.16S114.76,51.25,114.71,51.22Zm8.71,2.94,0,.18s.09,0,.09,0l0-.18Z"/></g></g></svg>